{
.appVersion = "1342";
classes = (
{

glyphs = (
{
glyphname = .notdef;
layers = (
{
layerId = "30D4BC2E-225F-4273-AE59-0FC741A5E71E";
paths = (
{
closed = 1;
nodes = (
"129 0 LINE",
"556 0 LINE",
"556 700 LINE",
"129 700 LINE"
);
},
{
closed = 1;
nodes = (
"158 21 LINE",
"343 329 LINE",
"528 21 LINE"
);
},
{
closed = 1;
nodes = (
"150 49 LINE",
"150 650 LINE",
"330 350 LINE"
);
},
{
closed = 1;
nodes = (
"536 47 LINE",
"355 350 LINE",
"536 652 LINE"
);
},
{
closed = 1;
nodes = (
"342 371 LINE",
"157 680 LINE",
"528 680 LINE"
);
}
);
width = 676;
}
);
},
{
color = (153,255,154,255);
glyphname = zero;
layers = (
{
layerId = "30D4BC2E-225F-4273-AE59-0FC741A5E71E";
paths = (
{
closed = 1;
nodes = (
"185 680 OFFCURVE",
"72 549 OFFCURVE",
"50 335 CURVE SMOOTH",
"28 122 OFFCURVE",
"112 -12 OFFCURVE",
"300 -12 CURVE SMOOTH",
"487 -12 OFFCURVE",
"600 122 OFFCURVE",
"622 335 CURVE SMOOTH",
"644 549 OFFCURVE",
"559 680 OFFCURVE",
"372 680 CURVE SMOOTH"
);
},
{
closed = 1;
nodes = (
"210 380 OFFCURVE",
"219 418 OFFCURVE",
"230 450 CURVE",
"385 128 LINE",
"363 110 OFFCURVE",
"338 101 OFFCURVE",
"312 101 CURVE SMOOTH",
"217 101 OFFCURVE",
"192 207 OFFCURVE",
"206 335 CURVE"
);
},
{
closed = 1;
nodes = (
"462 294 OFFCURVE",
"454 258 OFFCURVE",
"444 227 CURVE",
"291 544 LINE",
"312 559 OFFCURVE",
"335 567 OFFCURVE",
"360 567 CURVE SMOOTH",
"475 567 OFFCURVE",
"475 416 OFFCURVE",
"466 335 CURVE SMOOTH"
);
}
);
width = 659;
}
);
unicode = 0030;
},
{
color = (153,255,154,255);
glyphname = one;
layers = (
{
layerId = "30D4BC2E-225F-4273-AE59-0FC741A5E71E";
paths = (
{
closed = 1;
nodes = (
"310 668 LINE",
"260 587 OFFCURVE",
"206 571 OFFCURVE",
"98 571 CURVE",
"72 449 LINE",
"228 449 LINE",
"132 0 LINE",
"287 0 LINE",
"428 668 LINE"
);
}
);
width = 455;
}
);
unicode = "0031,E920";
},
{
color = (153,255,154,255);
glyphname = two;
layers = (
{
layerId = "30D4BC2E-225F-4273-AE59-0FC741A5E71E";
paths = (
{
closed = 1;
nodes = (
"204 125 LINE",
"404 223 OFFCURVE",
"570 347 OFFCURVE",
"578 491 CURVE SMOOTH",
"591 720 OFFCURVE",
"200 747 OFFCURVE",
"81 539 CURVE",
"208 489 LINE",
"270 596 OFFCURVE",
"405 586 OFFCURVE",
"419 507 CURVE SMOOTH",
"439 394 OFFCURVE",
"257 262 OFFCURVE",
"-9 125 CURVE",
"-35 0 LINE",
"478 0 LINE",
"504 125 LINE"
);
}
);
width = 587;
}
);
unicode = 0032;
},
{
color = (153,255,154,255);
glyphname = three;
layers = (
{
layerId = "30D4BC2E-225F-4273-AE59-0FC741A5E71E";
paths = (
{
closed = 1;
nodes = (
"526 373 OFFCURVE",
"579 417 OFFCURVE",
"579 513 CURVE SMOOTH",
"579 620 OFFCURVE",
"472 680 OFFCURVE",
"344 680 CURVE SMOOTH",
"231 680 OFFCURVE",
"135 645 OFFCURVE",
"77 535 CURVE",
"204 485 LINE",
"221 548 OFFCURVE",
"272 567 OFFCURVE",
"326 567 CURVE SMOOTH",
"376 567 OFFCURVE",
"417 542 OFFCURVE",
"419 492 CURVE SMOOTH",
"422 423 OFFCURVE",
"341 397 OFFCURVE",
"227 397 CURVE",
"205 291 LINE",
"283 291 OFFCURVE",
"381 278 OFFCURVE",
"381 190 CURVE SMOOTH",
"381 135 OFFCURVE",
"329 101 OFFCURVE",
"268 101 CURVE SMOOTH",
"216 101 OFFCURVE",
"166 125 OFFCURVE",
"155 190 CURVE",
"6 140 LINE",
"52 22 OFFCURVE",
"155 -12 OFFCURVE",
"267 -12 CURVE SMOOTH",
"405 -12 OFFCURVE",
"527 59 OFFCURVE",
"539 200 CURVE SMOOTH",
"544 263 OFFCURVE",
"520 318 OFFCURVE",
"465 349 CURVE"
);
}
);
width = 619;
}
);
unicode = 0033;
},
{
color = (153,255,154,255);
glyphname = four;
layers = (
{
layerId = "30D4BC2E-225F-4273-AE59-0FC741A5E71E";
paths = (
{
closed = 1;
nodes = (
"508 275 LINE",
"592 668 LINE",
"421 668 LINE",
"7 252 LINE",
"-16 141 LINE",
"324 141 LINE",
"294 0 LINE",
"450 0 LINE",
"480 141 LINE",
"572 141 LINE",
"600 275 LINE"
);
},
{
closed = 1;
nodes = (
"352 275 LINE",
"193 275 LINE",
"394 469 LINE"
);
}
);
width = 646;
}
);
unicode = 0034;
},
{
color = (153,255,154,255);
glyphname = five;
layers = (
{
layerId = "30D4BC2E-225F-4273-AE59-0FC741A5E71E";
paths = (
{
closed = 1;
nodes = (
"259 544 LINE",
"560 544 LINE",
"586 668 LINE",
"156 668 LINE",
"41 327 LINE",
"168 276 LINE",
"219 372 OFFCURVE",
"407 361 OFFCURVE",
"386 199 CURVE SMOOTH",
"369 70 OFFCURVE",
"179 68 OFFCURVE",
"156 189 CURVE",
"17 142 LINE",
"77 -71 OFFCURVE",
"504 -73 OFFCURVE",
"541 198 CURVE SMOOTH",
"574 438 OFFCURVE",
"341 489 OFFCURVE",
"217 419 CURVE"
);
}
);
width = 616;
}
);
unicode = 0035;
},
{
color = (153,255,154,255);
glyphname = six;
layers = (
{
layerId = "30D4BC2E-225F-4273-AE59-0FC741A5E71E";
paths = (
{
closed = 1;
nodes = (
"289 452 OFFCURVE",
"254 435 OFFCURVE",
"220 409 CURVE",
"233 506 OFFCURVE",
"282 570 OFFCURVE",
"352 570 CURVE SMOOTH",
"389 570 OFFCURVE",
"414 557 OFFCURVE",
"429 535 CURVE",
"567 583 LINE",
"533 640 OFFCURVE",
"469 680 OFFCURVE",
"370 680 CURVE SMOOTH",
"170 680 OFFCURVE",
"66 509 OFFCURVE",
"46 318 CURVE SMOOTH",
"26 130 OFFCURVE",
"95 -12 OFFCURVE",
"289 -12 CURVE SMOOTH",
"440 -12 OFFCURVE",
"555 91 OFFCURVE",
"562 229 CURVE SMOOTH",
"569 367 OFFCURVE",
"469 452 OFFCURVE",
"349 452 CURVE SMOOTH"
);
},
{
closed = 1;
nodes = (
"226 101 OFFCURVE",
"185 155 OFFCURVE",
"193 227 CURVE SMOOTH",
"201 300 OFFCURVE",
"243 339 OFFCURVE",
"308 339 CURVE SMOOTH",
"368 339 OFFCURVE",
"407 303 OFFCURVE",
"407 227 CURVE",
"406 155 OFFCURVE",
"357 101 OFFCURVE",
"293 101 CURVE SMOOTH"
);
}
);
width = 629;
}
);
unicode = 0036;
},
{
color = (153,255,154,255);
glyphname = seven;
layers = (
{
layerId = "30D4BC2E-225F-4273-AE59-0FC741A5E71E";
paths = (
{
closed = 1;
nodes = (
"194 0 LINE",
"567 543 LINE",
"593 668 LINE",
"80 668 LINE",
"53 543 LINE",
"400 543 LINE",
"13 0 LINE"
);
}
);
width = 561;
}
);
unicode = 0037;
},
{
color = (153,255,154,255);
glyphname = eight;
layers = (
{
layerId = "30D4BC2E-225F-4273-AE59-0FC741A5E71E";
paths = (
{
closed = 1;
nodes = (
"564 288 OFFCURVE",
"513 342 OFFCURVE",
"455 373 CURVE",
"481 399 OFFCURVE",
"501 444 OFFCURVE",
"507 494 CURVE SMOOTH",
"518 585 OFFCURVE",
"446 680 OFFCURVE",
"334 680 CURVE SMOOTH",
"208 680 OFFCURVE",
"127 585 OFFCURVE",
"121 486 CURVE SMOOTH",
"119 446 OFFCURVE",
"130 409 OFFCURVE",
"147 378 CURVE",
"67 336 OFFCURVE",
"19 283 OFFCURVE",
"13 201 CURVE SMOOTH",
"4 76 OFFCURVE",
"105 -12 OFFCURVE",
"274 -12 CURVE SMOOTH",
"441 -12 OFFCURVE",
"544 73 OFFCURVE",
"556 201 CURVE SMOOTH"
);
},
{
closed = 1;
nodes = (
"359 555 OFFCURVE",
"386 525 OFFCURVE",
"382 486 CURVE SMOOTH",
"378 448 OFFCURVE",
"344 417 OFFCURVE",
"307 417 CURVE SMOOTH",
"270 417 OFFCURVE",
"242 448 OFFCURVE",
"246 486 CURVE SMOOTH",
"250 525 OFFCURVE",
"284 555 OFFCURVE",
"321 555 CURVE SMOOTH"
);
},
{
closed = 1;
nodes = (
"210 114 OFFCURVE",
"162 151 OFFCURVE",
"167 206 CURVE SMOOTH",
"172 262 OFFCURVE",
"221 294 OFFCURVE",
"291 294 CURVE SMOOTH",
"359 294 OFFCURVE",
"408 262 OFFCURVE",
"402 206 CURVE SMOOTH",
"396 152 OFFCURVE",
"348 114 OFFCURVE",
"280 114 CURVE SMOOTH"
);
}
);
width = 623;
}
);
unicode = 0038;
},
{
color = (153,255,154,255);
glyphname = nine;
layers = (
{
layerId = "30D4BC2E-225F-4273-AE59-0FC741A5E71E";
paths = (
{
closed = 1;
nodes = (
"324 700 OFFCURVE",
"190 678 OFFCURVE",
"111 567 CURVE SMOOTH",
"4 416 OFFCURVE",
"81 216 OFFCURVE",
"271 222 CURVE",
"106 0 LINE",
"280 0 LINE",
"280 0 OFFCURVE",
"441 232 OFFCURVE",
"502 319 CURVE SMOOTH",
"617 482 OFFCURVE",
"529 627 OFFCURVE",
"418 666 CURVE SMOOTH"
);
},
{
closed = 1;
nodes = (
"240 333 OFFCURVE",
"194 376 OFFCURVE",
"203 437 CURVE SMOOTH",
"212 501 OFFCURVE",
"258 540 OFFCURVE",
"315 545 CURVE SMOOTH",
"382 551 OFFCURVE",
"422 507 OFFCURVE",
"417 441 CURVE SMOOTH",
"413 389 OFFCURVE",
"370 341 OFFCURVE",
"301 336 CURVE"
);
}
);
width = 576;
}
);
unicode = 0039;
},
{
color = (255,153,254,255);
glyphname = A;
layers = (
{
layerId = "30D4BC2E-225F-4273-AE59-0FC741A5E71E";
paths = (
{
closed = 1;
nodes = (
"329 668 LINE",
"-65 0 LINE",
"121 0 LINE",
"187 119 LINE",
"442 119 LINE",
"458 0 LINE",
"623 0 LINE",
"512 668 LINE"
);
},
{
closed = 1;
nodes = (
"255 247 LINE",
"395 501 LINE",
"427 247 LINE"
);
}
);
width = 698;
}
);
leftKerningGroup = A1;
rightKerningGroup = A_2;
unicode = 0041;
},
{
color = (255,153,254,255);
glyphname = B;
layers = (
{
layerId = "30D4BC2E-225F-4273-AE59-0FC741A5E71E";
paths = (
{
closed = 1;
nodes = (
"119 668 LINE",
"-23 0 LINE",
"283 0 LINE SMOOTH",
"463 0 OFFCURVE",
"576 73 OFFCURVE",
"596 185 CURVE SMOOTH",
"612 277 OFFCURVE",
"580 329 OFFCURVE",
"523 355 CURVE",
"584 383 OFFCURVE",
"623 433 OFFCURVE",
"631 495 CURVE SMOOTH",
"649 634 OFFCURVE",
"540 668 OFFCURVE",
"413 668 CURVE SMOOTH"
);
},
{
closed = 1;
nodes = (
"224 404 LINE",
"253 539 LINE",
"391 539 LINE SMOOTH",
"446 539 OFFCURVE",
"469 512 OFFCURVE",
"463 472 CURVE SMOOTH",
"457 430 OFFCURVE",
"417 404 OFFCURVE",
"363 404 CURVE SMOOTH"
);
},
{
closed = 1;
nodes = (
"166 131 LINE",
"198 282 LINE",
"339 282 LINE SMOOTH",
"406 282 OFFCURVE",
"441 254 OFFCURVE",
"431 207 CURVE SMOOTH",
"422 163 OFFCURVE",
"377 131 OFFCURVE",
"313 131 CURVE SMOOTH"
);
}
);
width = 656;
}
);
leftKerningGroup = B;
leftMetricsKey = H;
rightMetricsKey = P;
unicode = 0042;
},
{
color = (255,153,254,255);
glyphname = C;
layers = (
{
layerId = "30D4BC2E-225F-4273-AE59-0FC741A5E71E";
paths = (
{
closed = 1;
nodes = (
"481 194 LINE",
"438 138 OFFCURVE",
"389 120 OFFCURVE",
"339 120 CURVE",
"246 121 OFFCURVE",
"185 192 OFFCURVE",
"205 334 CURVE",
"226 474 OFFCURVE",
"309 550 OFFCURVE",
"402 550 CURVE SMOOTH",
"456 550 OFFCURVE",
"502 532 OFFCURVE",
"526 476 CURVE",
"672 525 LINE",
"634 641 OFFCURVE",
"522 680 OFFCURVE",
"418 680 CURVE SMOOTH",
"224 680 OFFCURVE",
"73 563 OFFCURVE",
"38 334 CURVE SMOOTH",
"5 111 OFFCURVE",
"129 -5 OFFCURVE",
"303 -12 CURVE SMOOTH",
"449 -18 OFFCURVE",
"553 41 OFFCURVE",
"617 141 CURVE"
);
}
);
width = 687;
}
);
leftKerningGroup = C;
leftMetricsKey = O;
rightKerningGroup = C_2;
rightMetricsKey = P;
unicode = 0043;
},
{
color = (255,153,254,255);
glyphname = D;
layers = (
{
layerId = "30D4BC2E-225F-4273-AE59-0FC741A5E71E";
paths = (
{
closed = 1;
nodes = (
"119 668 LINE",
"-23 0 LINE",
"200 0 LINE SMOOTH",
"397 0 OFFCURVE",
"608 74 OFFCURVE",
"651 312 CURVE SMOOTH",
"690 527 OFFCURVE",
"583 668 OFFCURVE",
"313 668 CURVE SMOOTH"
);
},
{
closed = 1;
nodes = (
"311 537 LINE SMOOTH",
"471 537 OFFCURVE",
"502 476 OFFCURVE",
"488 355 CURVE SMOOTH",
"473 226 OFFCURVE",
"392 133 OFFCURVE",
"230 133 CURVE SMOOTH",
"167 133 LINE",
"253 537 LINE"
);
}
);
width = 689;
}
);
leftKerningGroup = B;
leftMetricsKey = H;
rightKerningGroup = D;
rightMetricsKey = O;
unicode = 0044;
},
{
color = (255,153,254,255);
glyphname = E;
layers = (
{
layerId = "30D4BC2E-225F-4273-AE59-0FC741A5E71E";
paths = (
{
closed = 1;
nodes = (
"607 529 LINE",
"637 668 LINE",
"119 668 LINE",
"-23 0 LINE",
"495 0 LINE",
"524 139 LINE",
"168 139 LINE",
"197 274 LINE",
"414 274 LINE",
"443 413 LINE",
"226 413 LINE",
"251 529 LINE"
);
}
);
width = 595;
}
);
leftKerningGroup = B;
leftMetricsKey = H;
rightKerningGroup = E;
unicode = 0045;
},
{
color = (255,153,254,255);
glyphname = F;
layers = (
{
layerId = "30D4BC2E-225F-4273-AE59-0FC741A5E71E";
paths = (
{
closed = 1;
nodes = (
"571 529 LINE",
"600 668 LINE",
"119 668 LINE",
"-23 0 LINE",
"138 0 LINE",
"197 274 LINE",
"517 274 LINE",
"546 413 LINE",
"226 413 LINE",
"251 529 LINE"
);
}
);
width = 559;
}
);
leftKerningGroup = B;
leftMetricsKey = H;
unicode = 0046;
},
{
color = (255,153,254,255);
glyphname = G;
layers = (
{
layerId = "30D4BC2E-225F-4273-AE59-0FC741A5E71E";
paths = (
{
closed = 1;
nodes = (
"360 250 LINE",
"510 250 LINE",
"506 231 LINE SMOOTH",
"488 146 OFFCURVE",
"399 111 OFFCURVE",
"327 118 CURVE SMOOTH",
"235 127 OFFCURVE",
"183 200 OFFCURVE",
"205 336 CURVE SMOOTH",
"227 474 OFFCURVE",
"305 550 OFFCURVE",
"401 550 CURVE SMOOTH",
"470 550 OFFCURVE",
"516 513 OFFCURVE",
"530 478 CURVE",
"678 535 LINE",
"635 637 OFFCURVE",
"540 680 OFFCURVE",
"423 680 CURVE SMOOTH",
"221 680 OFFCURVE",
"74 554 OFFCURVE",
"38 336 CURVE SMOOTH",
"1 110 OFFCURVE",
"131 -12 OFFCURVE",
"283 -12 CURVE SMOOTH",
"378 -12 OFFCURVE",
"449 16 OFFCURVE",
"505 74 CURVE",
"511 0 LINE",
"618 0 LINE",
"699 378 LINE",
"387 378 LINE"
);
}
);
width = 734;
}
);
leftKerningGroup = C;
leftMetricsKey = O;
rightMetricsKey = "=H-4";
unicode = 0047;
},
{
color = (255,153,254,255);
glyphname = H;
layers = (
{
layerId = "30D4BC2E-225F-4273-AE59-0FC741A5E71E";
paths = (
{
closed = 1;
nodes = (
"556 668 LINE",
"502 413 LINE",
"226 413 LINE",
"279 668 LINE",
"119 668 LINE",
"-23 0 LINE",
"138 0 LINE",
"197 274 LINE",
"472 274 LINE",
"414 0 LINE",
"575 0 LINE",
"717 668 LINE"
);
}
);
width = 695;
}
);
leftKerningGroup = B;
rightKerningGroup = H;
unicode = 0048;
},
{
color = (255,153,254,255);
glyphname = I;
layers = (
{
layerId = "30D4BC2E-225F-4273-AE59-0FC741A5E71E";
paths = (
{
closed = 1;
nodes = (
"447 544 LINE",
"474 668 LINE",
"129 668 LINE",
"103 544 LINE",
"195 544 LINE",
"105 124 LINE",
"13 124 LINE",
"-13 0 LINE",
"331 0 LINE",
"358 124 LINE",
"267 124 LINE",
"355 544 LINE"
);
}
);
width = 459;
}
);
rightKerningGroup = I;
unicode = 0049;
},
{
color = (255,153,254,255);
glyphname = J;
layers = (
{
layerId = "30D4BC2E-225F-4273-AE59-0FC741A5E71E";
paths = (
{
closed = 1;
nodes = (
"426 668 LINE",
"339 256 LINE SMOOTH",
"316 147 OFFCURVE",
"283 111 OFFCURVE",
"206 113 CURVE SMOOTH",
"138 115 OFFCURVE",
"123 161 OFFCURVE",
"129 228 CURVE",
"-28 176 LINE",
"-22 70 OFFCURVE",
"58 -12 OFFCURVE",
"195 -12 CURVE SMOOTH",
"357 -12 OFFCURVE",
"456 49 OFFCURVE",
"500 256 CURVE SMOOTH",
"588 668 LINE"
);
}
);
width = 566;
}
);
rightMetricsKey = H;
unicode = 004A;
},
{
color = (255,153,254,255);
glyphname = K;
layers = (
{
layerId = "30D4BC2E-225F-4273-AE59-0FC741A5E71E";
paths = (
{
closed = 1;
nodes = (
"384 377 LINE",
"715 668 LINE",
"501 668 LINE",
"229 426 LINE",
"279 668 LINE",
"119 668 LINE",
"-23 0 LINE",
"138 0 LINE",
"180 197 LINE",
"270 277 LINE",
"411 0 LINE",
"577 0 LINE"
);
}
);
width = 656;
}
);
leftKerningGroup = B;
leftMetricsKey = H;
rightMetricsKey = V;
unicode = 004B;
},
{
color = (255,153,254,255);
glyphname = L;
layers = (
{
layerId = "30D4BC2E-225F-4273-AE59-0FC741A5E71E";
paths = (
{
closed = 1;
nodes = (
"168 139 LINE",
"279 668 LINE",
"119 668 LINE",
"-23 0 LINE",
"458 0 LINE",
"488 139 LINE"
);
}
);
width = 543;
}
);
leftKerningGroup = B;
leftMetricsKey = H;
rightKerningGroup = L;
unicode = 004C;
},
{
color = (255,153,254,255);
glyphname = M;
layers = (
{
layerId = "30D4BC2E-225F-4273-AE59-0FC741A5E71E";
paths = (
{
closed = 1;
nodes = (
"635 668 LINE",
"394 193 LINE",
"356 668 LINE",
"119 668 LINE",
"-23 0 LINE",
"134 0 LINE",
"247 533 LINE",
"294 0 LINE",
"426 0 LINE",
"690 510 LINE",
"581 0 LINE",
"737 0 LINE",
"880 668 LINE"
);
}
);
width = 858;
}
);
leftKerningGroup = B;
leftMetricsKey = H;
rightKerningGroup = H;
rightMetricsKey = H;
unicode = 004D;
},
{
color = (255,153,254,255);
glyphname = N;
layers = (
{
layerId = "30D4BC2E-225F-4273-AE59-0FC741A5E71E";
paths = (
{
closed = 1;
nodes = (
"396 0 LINE",
"595 0 LINE",
"737 668 LINE",
"582 668 LINE",
"478 183 LINE",
"318 668 LINE",
"119 668 LINE",
"-23 0 LINE",
"133 0 LINE",
"236 485 LINE"
);
}
);
width = 715;
}
);
leftKerningGroup = B;
leftMetricsKey = H;
rightKerningGroup = H;
rightMetricsKey = H;
unicode = 004E;
},
{
color = (255,153,254,255);
glyphname = O;
layers = (
{
layerId = "30D4BC2E-225F-4273-AE59-0FC741A5E71E";
paths = (
{
closed = 1;
nodes = (
"547 -12 OFFCURVE",
"706 134 OFFCURVE",
"729 345 CURVE SMOOTH",
"752 560 OFFCURVE",
"622 680 OFFCURVE",
"426 680 CURVE SMOOTH",
"221 680 OFFCURVE",
"63 539 OFFCURVE",
"35 321 CURVE SMOOTH",
"10 127 OFFCURVE",
"124 -12 OFFCURVE",
"335 -12 CURVE SMOOTH"
);
},
{
closed = 1;
nodes = (
"237 118 OFFCURVE",
"189 215 OFFCURVE",
"203 321 CURVE SMOOTH",
"223 473 OFFCURVE",
"317 550 OFFCURVE",
"414 550 CURVE SMOOTH",
"498 550 OFFCURVE",
"577 486 OFFCURVE",
"562 345 CURVE SMOOTH",
"548 213 OFFCURVE",
"461 118 OFFCURVE",
"349 118 CURVE SMOOTH"
);
}
);
width = 763;
}
);
leftKerningGroup = C;
rightKerningGroup = D;
unicode = 004F;
},
{
color = (255,153,254,255);
glyphname = P;
layers = (
{
layerId = "30D4BC2E-225F-4273-AE59-0FC741A5E71E";
paths = (
{
closed = 1;
nodes = (
"119 668 LINE",
"-23 0 LINE",
"138 0 LINE",
"187 232 LINE",
"304 232 LINE SMOOTH",
"518 232 OFFCURVE",
"616 316 OFFCURVE",
"635 443 CURVE",
"654 580 OFFCURVE",
"598 668 OFFCURVE",
"379 668 CURVE SMOOTH"
);
},
{
closed = 1;
nodes = (
"252 535 LINE",
"355 535 LINE SMOOTH",
"443 535 OFFCURVE",
"478 507 OFFCURVE",
"468 450 CURVE SMOOTH",
"458 391 OFFCURVE",
"410 363 OFFCURVE",
"319 363 CURVE SMOOTH",
"216 363 LINE"
);
}
);
width = 641;
}
);
leftKerningGroup = B;
leftMetricsKey = H;
unicode = 0050;
},
{
color = (255,153,254,255);
glyphname = Q;
layers = (
{
layerId = "30D4BC2E-225F-4273-AE59-0FC741A5E71E";
paths = (
{
closed = 1;
nodes = (
"227 706 OFFCURVE",
"69 566 OFFCURVE",
"41 346 CURVE SMOOTH",
"16 154 OFFCURVE",
"130 14 OFFCURVE",
"341 14 CURVE SMOOTH",
"408 14 OFFCURVE",
"470 29 OFFCURVE",
"524 56 CURVE",
"618 -55 LINE",
"710 25 LINE",
"623 127 LINE",
"684 189 OFFCURVE",
"724 273 OFFCURVE",
"735 371 CURVE SMOOTH",
"759 586 OFFCURVE",
"628 706 OFFCURVE",
"432 706 CURVE SMOOTH"
);
},
{
closed = 1;
nodes = (
"422 363 LINE",
"331 285 LINE",
"434 162 LINE",
"410 151 OFFCURVE",
"383 145 OFFCURVE",
"355 145 CURVE SMOOTH",
"243 145 OFFCURVE",
"195 242 OFFCURVE",
"209 346 CURVE",
"228 499 OFFCURVE",
"323 576 OFFCURVE",
"420 576 CURVE SMOOTH",
"504 576 OFFCURVE",
"583 513 OFFCURVE",
"568 371 CURVE SMOOTH",
"563 323 OFFCURVE",
"547 279 OFFCURVE",
"525 243 CURVE"
);
}
);
width = 775;
}
);
leftKerningGroup = C;
leftMetricsKey = O;
unicode = 0051;
},
{
color = (255,153,254,255);
glyphname = R;
layers = (
{
layerId = "30D4BC2E-225F-4273-AE59-0FC741A5E71E";
paths = (
{
closed = 1;
nodes = (
"420 269 LINE",
"570 291 OFFCURVE",
"619 363 OFFCURVE",
"629 461 CURVE SMOOTH",
"644 612 OFFCURVE",
"543 668 OFFCURVE",
"369 668 CURVE SMOOTH",
"119 668 LINE",
"-23 0 LINE",
"138 0 LINE",
"192 252 LINE",
"192 252 OFFCURVE",
"231 252 OFFCURVE",
"263 252 CURVE",
"391 0 LINE",
"557 0 LINE"
);
},
{
closed = 1;
nodes = (
"220 384 LINE",
"252 535 LINE",
"346 535 LINE SMOOTH",
"421 535 OFFCURVE",
"471 521 OFFCURVE",
"462 459 CURVE SMOOTH",
"453 396 OFFCURVE",
"398 384 OFFCURVE",
"323 384 CURVE SMOOTH"
);
}
);
width = 644;
}
);
leftKerningGroup = B;
leftMetricsKey = H;
rightKerningGroup = R;
unicode = 0052;
},
{
color = (255,153,254,255);
glyphname = S;
layers = (
{
layerId = "30D4BC2E-225F-4273-AE59-0FC741A5E71E";
paths = (
{
closed = 1;
nodes = (
"224 527 OFFCURVE",
"261 551 OFFCURVE",
"329 551 CURVE SMOOTH",
"378 551 OFFCURVE",
"434 530 OFFCURVE",
"451 483 CURVE",
"606 535 LINE",
"550 643 OFFCURVE",
"440 680 OFFCURVE",
"341 680 CURVE SMOOTH",
"210 680 OFFCURVE",
"78 625 OFFCURVE",
"63 504 CURVE SMOOTH",
"31 246 OFFCURVE",
"424 302 OFFCURVE",
"424 179 CURVE SMOOTH",
"424 93 OFFCURVE",
"193 82 OFFCURVE",
"165 209 CURVE",
"10 157 LINE",
"51 51 OFFCURVE",
"161 -12 OFFCURVE",
"306 -12 CURVE SMOOTH",
"445 -12 OFFCURVE",
"576 55 OFFCURVE",
"587 187 CURVE SMOOTH",
"608 433 OFFCURVE",
"224 365 OFFCURVE",
"224 492 CURVE SMOOTH"
);
}
);
width = 642;
}
);
leftKerningGroup = S;
rightKerningGroup = S_2;
unicode = 0053;
},
{
color = (255,153,254,255);
glyphname = T;
layers = (
{
layerId = "30D4BC2E-225F-4273-AE59-0FC741A5E71E";
paths = (
{
closed = 1;
nodes = (
"87 668 LINE",
"57 529 LINE",
"270 529 LINE",
"158 0 LINE",
"319 0 LINE",
"430 529 LINE",
"644 529 LINE",
"673 668 LINE"
);
}
);
width = 617;
}
);
leftKerningGroup = T;
rightKerningGroup = T;
unicode = 0054;
},
{
color = (255,153,254,255);
glyphname = U;
layers = (
{
layerId = "30D4BC2E-225F-4273-AE59-0FC741A5E71E";
paths = (
{
closed = 1;
nodes = (
"541 668 LINE",
"458 279 LINE SMOOTH",
"437 180 OFFCURVE",
"404 117 OFFCURVE",
"295 117 CURVE SMOOTH",
"178 117 OFFCURVE",
"179 186 OFFCURVE",
"199 279 CURVE SMOOTH",
"282 668 LINE",
"121 668 LINE",
"40 292 LINE SMOOTH",
"4 126 OFFCURVE",
"34 -12 OFFCURVE",
"267 -12 CURVE SMOOTH",
"464 -12 OFFCURVE",
"569 42 OFFCURVE",
"622 292 CURVE SMOOTH",
"702 668 LINE"
);
}
);
width = 677;
}
);
leftMetricsKey = H;
rightKerningGroup = U_2;
rightMetricsKey = "=H-3";
unicode = 0055;
},
{
color = (255,153,254,255);
glyphname = V;
layers = (
{
layerId = "30D4BC2E-225F-4273-AE59-0FC741A5E71E";
paths = (
{
closed = 1;
nodes = (
"546 668 LINE",
"289 177 LINE",
"240 668 LINE",
"82 668 LINE",
"166 0 LINE",
"356 0 LINE",
"724 668 LINE"
);
}
);
width = 662;
}
);
unicode = 0056;
},
{
color = (255,153,254,255);
glyphname = W;
layers = (
{
layerId = "30D4BC2E-225F-4273-AE59-0FC741A5E71E";
paths = (
{
closed = 1;
nodes = (
"783 668 LINE",
"588 205 LINE",
"588 668 LINE",
"419 668 LINE",
"230 222 LINE",
"235 668 LINE",
"82 668 LINE",
"101 0 LINE",
"266 0 LINE",
"468 470 LINE",
"468 0 LINE",
"648 0 LINE",
"951 668 LINE"
);
}
);
width = 889;
}
);
leftMetricsKey = V;
rightMetricsKey = V;
unicode = 0057;
},
{
color = (255,153,254,255);
glyphname = X;
layers = (
{
layerId = "30D4BC2E-225F-4273-AE59-0FC741A5E71E";
paths = (
{
closed = 1;
nodes = (
"768 668 LINE",
"558 668 LINE",
"382 477 LINE",
"286 668 LINE",
"115 668 LINE",
"270 356 LINE",
"-60 0 LINE",
"151 0 LINE",
"343 210 LINE",
"448 0 LINE",
"621 0 LINE",
"456 331 LINE"
);
}
);
width = 706;
}
);
leftMetricsKey = V;
rightMetricsKey = V;
unicode = 0058;
},
{
color = (255,153,254,255);
glyphname = Y;
layers = (
{
layerId = "30D4BC2E-225F-4273-AE59-0FC741A5E71E";
paths = (
{
closed = 1;
nodes = (
"762 668 LINE",
"558 668 LINE",
"339 391 LINE",
"253 668 LINE",
"82 668 LINE",
"242 241 LINE",
"191 0 LINE",
"354 0 LINE",
"404 241 LINE"
);
}
);
width = 700;
}
);
leftKerningGroup = Y;
leftMetricsKey = V;
rightKerningGroup = Y_2;
rightMetricsKey = V;
unicode = 0059;
},
{
color = (255,153,254,255);
glyphname = Z;
layers = (
{
layerId = "30D4BC2E-225F-4273-AE59-0FC741A5E71E";
paths = (
{
closed = 1;
nodes = (
"642 547 LINE",
"668 668 LINE",
"130 668 LINE",
"100 529 LINE",
"411 529 LINE",
"-12 121 LINE",
"-38 0 LINE",
"530 0 LINE",
"560 139 LINE",
"221 139 LINE"
);
}
);
width = 632;
}
);
leftKerningGroup = Z;
rightKerningGroup = Z_2;
unicode = 005A;
},
{
color = (255,153,254,255);
glyphname = a;
layers = (
{
layerId = "30D4BC2E-225F-4273-AE59-0FC741A5E71E";
paths = (
{
closed = 1;
nodes = (
"177 510 OFFCURVE",
"100 472 OFFCURVE",
"49 394 CURVE",
"166 348 LINE",
"185 388 OFFCURVE",
"225 407 OFFCURVE",
"268 407 CURVE SMOOTH",
"322 407 OFFCURVE",
"350 386 OFFCURVE",
"337 328 CURVE SMOOTH",
"334 315 LINE",
"173 298 OFFCURVE",
"-17 267 OFFCURVE",
"-22 123 CURVE SMOOTH",
"-25 39 OFFCURVE",
"48 -12 OFFCURVE",
"126 -12 CURVE SMOOTH",
"197 -12 OFFCURVE",
"243 4 OFFCURVE",
"288 59 CURVE",
"293 0 LINE",
"437 0 LINE",
"437 43 OFFCURVE",
"447 128 OFFCURVE",
"461 193 CURVE SMOOTH",
"466 220 OFFCURVE",
"479 275 OFFCURVE",
"484 302 CURVE",
"515 440 OFFCURVE",
"423 510 OFFCURVE",
"289 510 CURVE SMOOTH"
);
},
{
closed = 1;
nodes = (
"321 213 LINE SMOOTH",
"297 121 OFFCURVE",
"258 91 OFFCURVE",
"204 91 CURVE SMOOTH",
"166 91 OFFCURVE",
"135 111 OFFCURVE",
"139 144 CURVE SMOOTH",
"145 194 OFFCURVE",
"216 216 OFFCURVE",
"324 225 CURVE"
);
}
);
width = 541;
}
);
leftKerningGroup = a;
leftMetricsKey = "=o-5";
unicode = 0061;
},
{
color = (255,153,254,255);
glyphname = b;
layers = (
{
layerId = "30D4BC2E-225F-4273-AE59-0FC741A5E71E";
paths = (
{
closed = 1;
nodes = (
"320 510 OFFCURVE",
"264 487 OFFCURVE",
"227 436 CURVE",
"276 667 LINE",
"121 667 LINE",
"-21 0 LINE",
"115 0 LINE",
"149 66 LINE",
"185 10 OFFCURVE",
"238 -12 OFFCURVE",
"293 -12 CURVE SMOOTH",
"420 -12 OFFCURVE",
"528 87 OFFCURVE",
"550 251 CURVE SMOOTH",
"573 420 OFFCURVE",
"485 510 OFFCURVE",
"373 510 CURVE SMOOTH"
);
},
{
closed = 1;
nodes = (
"385 157 OFFCURVE",
"327 105 OFFCURVE",
"266 105 CURVE SMOOTH",
"206 105 OFFCURVE",
"158 153 OFFCURVE",
"180 255 CURVE SMOOTH",
"204 372 OFFCURVE",
"268 392 OFFCURVE",
"310 392 CURVE SMOOTH",
"373 392 OFFCURVE",
"401 334 OFFCURVE",
"394 251 CURVE SMOOTH"
);
}
);
width = 592;
}
);
leftMetricsKey = n;
rightKerningGroup = b;
rightMetricsKey = o;
unicode = 0062;
},
{
color = (255,153,254,255);
glyphname = c;
layers = (
{
layerId = "30D4BC2E-225F-4273-AE59-0FC741A5E71E";
paths = (
{
closed = 1;
nodes = (
"184 105 OFFCURVE",
"142 143 OFFCURVE",
"163 249 CURVE SMOOTH",
"184 355 OFFCURVE",
"246 392 OFFCURVE",
"300 392 CURVE SMOOTH",
"340 392 OFFCURVE",
"369 378 OFFCURVE",
"379 336 CURVE",
"512 382 LINE",
"476 479 OFFCURVE",
"403 510 OFFCURVE",
"317 510 CURVE SMOOTH",
"156 510 OFFCURVE",
"38 411 OFFCURVE",
"8 250 CURVE SMOOTH",
"-20 99 OFFCURVE",
"63 -12 OFFCURVE",
"224 -12 CURVE SMOOTH",
"309 -12 OFFCURVE",
"401 17 OFFCURVE",
"465 107 CURVE",
"342 154 LINE",
"311 115 OFFCURVE",
"280 105 OFFCURVE",
"237 105 CURVE SMOOTH"
);
}
);
width = 532;
}
);
leftKerningGroup = c;
leftMetricsKey = o;
rightKerningGroup = c_2;
unicode = 0063;
},
{
color = (255,153,254,255);
glyphname = d;
layers = (
{
layerId = "30D4BC2E-225F-4273-AE59-0FC741A5E71E";
paths = (
{
closed = 1;
nodes = (
"458 667 LINE",
"405 421 LINE",
"384 476 OFFCURVE",
"330 510 OFFCURVE",
"266 510 CURVE SMOOTH",
"135 510 OFFCURVE",
"36 413 OFFCURVE",
"9 255 CURVE SMOOTH",
"-19 92 OFFCURVE",
"59 -12 OFFCURVE",
"187 -12 CURVE SMOOTH",
"240 -12 OFFCURVE",
"292 9 OFFCURVE",
"334 63 CURVE",
"339 0 LINE",
"488 0 LINE",
"489 72 OFFCURVE",
"502 143 OFFCURVE",
"512 193 CURVE SMOOTH",
"535 311 OFFCURVE",
"613 667 OFFCURVE",
"613 667 CURVE"
);
},
{
closed = 1;
nodes = (
"366 158 OFFCURVE",
"311 105 OFFCURVE",
"251 105 CURVE SMOOTH",
"173 105 OFFCURVE",
"151 182 OFFCURVE",
"167 265 CURVE SMOOTH",
"184 353 OFFCURVE",
"232 392 OFFCURVE",
"293 392 CURVE SMOOTH",
"338 392 OFFCURVE",
"393 358 OFFCURVE",
"380 261 CURVE SMOOTH"
);
}
);
width = 592;
}
);
leftKerningGroup = c;
leftMetricsKey = o;
rightMetricsKey = a;
unicode = 0064;
},
{
color = (255,153,254,255);
glyphname = e;
layers = (
{
layerId = "30D4BC2E-225F-4273-AE59-0FC741A5E71E";
paths = (
{
closed = 1;
nodes = (
"520 209 LINE",
"563 388 OFFCURVE",
"481 510 OFFCURVE",
"308 510 CURVE SMOOTH",
"133 510 OFFCURVE",
"29 382 OFFCURVE",
"8 248 CURVE SMOOTH",
"-17 84 OFFCURVE",
"73 -12 OFFCURVE",
"230 -12 CURVE SMOOTH",
"331 -12 OFFCURVE",
"416 27 OFFCURVE",
"473 98 CURVE",
"359 142 LINE",
"304 87 OFFCURVE",
"133 83 OFFCURVE",
"155 209 CURVE"
);
},
{
closed = 1;
nodes = (
"169 299 LINE",
"206 431 OFFCURVE",
"411 434 OFFCURVE",
"396 299 CURVE"
);
}
);
width = 568;
}
);
leftKerningGroup = c;
leftMetricsKey = o;
rightKerningGroup = e;
unicode = 0065;
},
{
color = (255,153,254,255);
glyphname = f;
layers = (
{
layerId = "30D4BC2E-225F-4273-AE59-0FC741A5E71E";
paths = (
{
closed = 1;
nodes = (
"383 608 OFFCURVE",
"409 608 OFFCURVE",
"409 608 CURVE",
"434 727 LINE",
"434 727 OFFCURVE",
"388 727 OFFCURVE",
"366 727 CURVE SMOOTH",
"202 727 OFFCURVE",
"172 696 OFFCURVE",
"137 558 CURVE",
"124 496 LINE",
"43 496 LINE",
"19 380 LINE",
"99 380 LINE",
"18 0 LINE",
"173 0 LINE",
"173 0 OFFCURVE",
"218 215 OFFCURVE",
"253 380 CURVE",
"360 380 LINE",
"385 496 LINE",
"278 496 LINE",
"280 508 OFFCURVE",
"283 518 OFFCURVE",
"285 527 CURVE SMOOTH",
"301 599 OFFCURVE",
"306 608 OFFCURVE",
"368 608 CURVE SMOOTH"
);
}
);
width = 379;
}
);
rightKerningGroup = f;
unicode = 0066;
},
{
color = (255,153,254,255);
glyphname = g;
layers = (
{
layerId = "30D4BC2E-225F-4273-AE59-0FC741A5E71E";
paths = (
{
closed = 1;
nodes = (
"444 496 LINE",
"410 429 LINE",
"341 569 OFFCURVE",
"53 539 OFFCURVE",
"10 258 CURVE SMOOTH",
"-13 107 OFFCURVE",
"84 17 OFFCURVE",
"188 17 CURVE SMOOTH",
"242 17 OFFCURVE",
"296 41 OFFCURVE",
"338 91 CURVE",
"338 91 OFFCURVE",
"324 26 OFFCURVE",
"320 6 CURVE SMOOTH",
"296 -110 OFFCURVE",
"133 -109 OFFCURVE",
"113 -41 CURVE",
"-21 -85 LINE",
"30 -248 OFFCURVE",
"409 -278 OFFCURVE",
"477 18 CURVE",
"503 137 OFFCURVE",
"578 496 OFFCURVE",
"578 496 CURVE"
);
},
{
closed = 1;
nodes = (
"362 165 OFFCURVE",
"308 131 OFFCURVE",
"248 131 CURVE SMOOTH",
"192 131 OFFCURVE",
"155 182 OFFCURVE",
"168 266 CURVE SMOOTH",
"181 355 OFFCURVE",
"236 395 OFFCURVE",
"297 395 CURVE SMOOTH",
"357 395 OFFCURVE",
"398 352 OFFCURVE",
"381 263 CURVE SMOOTH"
);
}
);
width = 596;
}
);
leftKerningGroup = g;
leftMetricsKey = o;
rightMetricsKey = u;
unicode = 0067;
},
{
color = (255,153,254,255);
glyphname = h;
layers = (
{
layerId = "30D4BC2E-225F-4273-AE59-0FC741A5E71E";
paths = (
{
closed = 1;
nodes = (
"308 510 OFFCURVE",
"250 470 OFFCURVE",
"222 432 CURVE",
"272 668 LINE",
"121 668 LINE",
"-21 0 LINE",
"135 0 LINE",
"189 254 LINE",
"207 345 OFFCURVE",
"249 392 OFFCURVE",
"311 392 CURVE SMOOTH",
"363 392 OFFCURVE",
"378 355 OFFCURVE",
"358 263 CURVE SMOOTH",
"302 0 LINE",
"458 0 LINE",
"518 281 LINE SMOOTH",
"553 445 OFFCURVE",
"493 510 OFFCURVE",
"396 510 CURVE SMOOTH"
);
}
);
width = 580;
}
);
leftMetricsKey = n;
rightKerningGroup = h;
rightMetricsKey = n;
unicode = 0068;
},
{
color = (255,153,254,255);
glyphname = i;
layers = (
{
layerId = "30D4BC2E-225F-4273-AE59-0FC741A5E71E";
paths = (
{
closed = 1;
nodes = (
"316 578 OFFCURVE",
"356 619 OFFCURVE",
"356 668 CURVE SMOOTH",
"356 717 OFFCURVE",
"316 757 OFFCURVE",
"266 757 CURVE SMOOTH",
"216 757 OFFCURVE",
"177 717 OFFCURVE",
"177 668 CURVE SMOOTH",
"177 619 OFFCURVE",
"216 578 OFFCURVE",
"266 578 CURVE SMOOTH"
);
},
{
closed = 1;
nodes = (
"26 380 LINE",
"129 380 LINE",
"48 0 LINE",
"204 0 LINE",
"309 496 LINE",
"51 496 LINE"
);
}
);
width = 326;
}
);
leftKerningGroup = i;
leftMetricsKey = dotlessi;
rightMetricsKey = dotlessi;
unicode = 0069;
},
{
color = (255,153,254,255);
glyphname = j;
layers = (
{
layerId = "30D4BC2E-225F-4273-AE59-0FC741A5E71E";
paths = (
{
closed = 1;
nodes = (
"255 578 OFFCURVE",
"296 619 OFFCURVE",
"296 668 CURVE SMOOTH",
"296 718 OFFCURVE",
"255 758 OFFCURVE",
"206 758 CURVE SMOOTH",
"156 758 OFFCURVE",
"116 718 OFFCURVE",
"116 668 CURVE SMOOTH",
"116 619 OFFCURVE",
"156 578 OFFCURVE",
"206 578 CURVE SMOOTH"
);
},
{
closed = 1;
nodes = (
"-18 -28 OFFCURVE",
"-26 -42 OFFCURVE",
"-87 -42 CURVE SMOOTH",
"-103 -42 OFFCURVE",
"-148 -42 OFFCURVE",
"-148 -42 CURVE",
"-174 -162 LINE",
"-174 -162 OFFCURVE",
"-107 -162 OFFCURVE",
"-85 -162 CURVE SMOOTH",
"68 -162 OFFCURVE",
"105 -147 OFFCURVE",
"145 8 CURVE",
"249 496 LINE",
"93 496 LINE",
"93 496 OFFCURVE",
"24 164 OFFCURVE",
"-4 39 CURVE"
);
}
);
width = 263;
}
);
unicode = 006A;
},
{
color = (255,153,254,255);
glyphname = k;
layers = (
{
layerId = "30D4BC2E-225F-4273-AE59-0FC741A5E71E";
paths = (
{
closed = 1;
nodes = (
"586 496 LINE",
"388 496 LINE",
"203 327 LINE",
"276 668 LINE",
"121 668 LINE",
"-21 0 LINE",
"135 0 LINE",
"161 124 LINE",
"229 184 LINE",
"324 0 LINE",
"487 0 LINE",
"342 283 LINE"
);
}
);
width = 562;
}
);
leftMetricsKey = n;
unicode = 006B;
},
{
color = (255,153,254,255);
glyphname = l;
layers = (
{
layerId = "30D4BC2E-225F-4273-AE59-0FC741A5E71E";
paths = (
{
closed = 1;
nodes = (
"277 668 LINE",
"121 668 LINE",
"9 140 LINE SMOOTH",
"-13 34 OFFCURVE",
"45 0 OFFCURVE",
"147 0 CURVE SMOOTH",
"244 0 LINE",
"270 124 LINE",
"227 124 LINE SMOOTH",
"161 124 OFFCURVE",
"168 152 OFFCURVE",
"179 204 CURVE SMOOTH"
);
}
);
width = 317;
}
);
leftMetricsKey = n;
unicode = 006C;
},
{
color = (255,153,254,255);
glyphname = m;
layers = (
{
layerId = "30D4BC2E-225F-4273-AE59-0FC741A5E71E";
paths = (
{
closed = 1;
nodes = (
"631 510 OFFCURVE",
"571 485 OFFCURVE",
"523 427 CURVE",
"504 483 OFFCURVE",
"463 510 OFFCURVE",
"384 510 CURVE SMOOTH",
"309 510 OFFCURVE",
"256 469 OFFCURVE",
"226 432 CURVE",
"221 496 LINE",
"85 496 LINE",
"-20 0 LINE",
"136 0 LINE",
"191 258 LINE SMOOTH",
"210 345 OFFCURVE",
"247 392 OFFCURVE",
"309 392 CURVE SMOOTH",
"357 392 OFFCURVE",
"376 365 OFFCURVE",
"354 263 CURVE SMOOTH",
"298 0 LINE",
"454 0 LINE",
"509 261 LINE SMOOTH",
"528 349 OFFCURVE",
"566 392 OFFCURVE",
"628 392 CURVE SMOOTH",
"686 392 OFFCURVE",
"694 360 OFFCURVE",
"673 263 CURVE SMOOTH",
"617 0 LINE",
"773 0 LINE",
"835 290 LINE SMOOTH",
"864 425 OFFCURVE",
"829 510 OFFCURVE",
"701 510 CURVE SMOOTH"
);
}
);
width = 895;
}
);
leftMetricsKey = n;
rightKerningGroup = h;
rightMetricsKey = n;
unicode = 006D;
},
{
color = (255,153,254,255);
glyphname = n;
layers = (
{
layerId = "30D4BC2E-225F-4273-AE59-0FC741A5E71E";
paths = (
{
closed = 1;
nodes = (
"309 510 OFFCURVE",
"254 470 OFFCURVE",
"226 432 CURVE",
"221 496 LINE",
"85 496 LINE",
"-20 0 LINE",
"136 0 LINE",
"190 254 LINE SMOOTH",
"209 345 OFFCURVE",
"250 392 OFFCURVE",
"312 392 CURVE SMOOTH",
"364 392 OFFCURVE",
"379 355 OFFCURVE",
"359 263 CURVE SMOOTH",
"303 0 LINE",
"459 0 LINE",
"519 281 LINE SMOOTH",
"554 445 OFFCURVE",
"494 510 OFFCURVE",
"397 510 CURVE SMOOTH"
);
}
);
width = 581;
}
);
leftKerningGroup = n;
rightKerningGroup = h;
unicode = 006E;
},
{
color = (255,153,254,255);
glyphname = o;
layers = (
{
layerId = "30D4BC2E-225F-4273-AE59-0FC741A5E71E";
paths = (
{
closed = 1;
nodes = (
"166 510 OFFCURVE",
"31 433 OFFCURVE",
"7 242 CURVE SMOOTH",
"-12 87 OFFCURVE",
"85 -13 OFFCURVE",
"239 -13 CURVE SMOOTH",
"339 -13 OFFCURVE",
"503 33 OFFCURVE",
"533 249 CURVE SMOOTH",
"557 422 OFFCURVE",
"446 510 OFFCURVE",
"302 510 CURVE SMOOTH"
);
},
{
closed = 1;
nodes = (
"368 181 OFFCURVE",
"331 105 OFFCURVE",
"245 105 CURVE SMOOTH",
"158 105 OFFCURVE",
"153 188 OFFCURVE",
"163 249 CURVE SMOOTH",
"180 352 OFFCURVE",
"229 391 OFFCURVE",
"289 392 CURVE SMOOTH",
"355 393 OFFCURVE",
"393 356 OFFCURVE",
"378 249 CURVE SMOOTH"
);
}
);
width = 576;
}
);
leftKerningGroup = c;
rightKerningGroup = b;
unicode = 006F;
},
{
color = (255,153,254,255);
glyphname = p;
layers = (
{
layerId = "30D4BC2E-225F-4273-AE59-0FC741A5E71E";
paths = (
{
closed = 1;
nodes = (
"321 510 OFFCURVE",
"260 486 OFFCURVE",
"225 428 CURVE",
"219 496 LINE",
"85 496 LINE",
"-55 -161 LINE",
"101 -161 LINE",
"150 70 LINE",
"182 13 OFFCURVE",
"233 -13 OFFCURVE",
"287 -13 CURVE SMOOTH",
"415 -13 OFFCURVE",
"522 79 OFFCURVE",
"548 254 CURVE SMOOTH",
"570 403 OFFCURVE",
"496 510 OFFCURVE",
"376 510 CURVE SMOOTH"
);
},
{
closed = 1;
nodes = (
"382 168 OFFCURVE",
"338 105 OFFCURVE",
"261 105 CURVE SMOOTH",
"203 105 OFFCURVE",
"158 158 OFFCURVE",
"179 256 CURVE SMOOTH",
"198 347 OFFCURVE",
"245 392 OFFCURVE",
"308 392 CURVE SMOOTH",
"369 392 OFFCURVE",
"404 341 OFFCURVE",
"392 247 CURVE SMOOTH"
);
}
);
width = 589;
}
);
leftMetricsKey = n;
rightKerningGroup = b;
rightMetricsKey = o;
unicode = 0070;
},
{
color = (255,153,254,255);
glyphname = q;
layers = (
{
layerId = "30D4BC2E-225F-4273-AE59-0FC741A5E71E";
paths = (
{
closed = 1;
nodes = (
"576 496 LINE",
"441 496 LINE",
"405 427 LINE",
"374 487 OFFCURVE",
"318 510 OFFCURVE",
"264 510 CURVE SMOOTH",
"124 510 OFFCURVE",
"21 391 OFFCURVE",
"6 228 CURVE SMOOTH",
"-7 86 OFFCURVE",
"66 -12 OFFCURVE",
"184 -12 CURVE SMOOTH",
"239 -12 OFFCURVE",
"289 10 OFFCURVE",
"327 56 CURVE",
"327 56 OFFCURVE",
"316 6 OFFCURVE",
"313 -11 CURVE SMOOTH",
"281 -193 OFFCURVE",
"481 -191 OFFCURVE",
"581 -151 CURVE",
"609 -21 LINE",
"455 -55 OFFCURVE",
"467 -18 OFFCURVE",
"483 58 CURVE SMOOTH"
);
},
{
closed = 1;
nodes = (
"374 161 OFFCURVE",
"311 106 OFFCURVE",
"251 106 CURVE SMOOTH",
"198 106 OFFCURVE",
"161 139 OFFCURVE",
"163 224 CURVE",
"164 338 OFFCURVE",
"220 393 OFFCURVE",
"292 393 CURVE SMOOTH",
"345 393 OFFCURVE",
"386 355 OFFCURVE",
"381 279 CURVE SMOOTH"
);
}
);
width = 602;
}
);
leftKerningGroup = c;
leftMetricsKey = o;
rightKerningGroup = q;
unicode = 0071;
},
{
color = (255,153,254,255);
glyphname = r;
layers = (
{
layerId = "30D4BC2E-225F-4273-AE59-0FC741A5E71E";
paths = (
{
closed = 1;
nodes = (
"290 509 OFFCURVE",
"250 470 OFFCURVE",
"215 409 CURVE",
"208 496 LINE",
"85 496 LINE",
"-20 0 LINE",
"136 0 LINE",
"185 231 LINE SMOOTH",
"202 313 OFFCURVE",
"238 361 OFFCURVE",
"325 361 CURVE SMOOTH",
"339 361 OFFCURVE",
"354 360 OFFCURVE",
"371 358 CURVE",
"403 510 LINE",
"396 510 OFFCURVE",
"380 511 OFFCURVE",
"372 510 CURVE"
);
}
);
width = 391;
}
);
leftMetricsKey = n;
unicode = 0072;
},
{
color = (255,153,254,255);
glyphname = s;
layers = (
{
layerId = "30D4BC2E-225F-4273-AE59-0FC741A5E71E";
paths = (
{
closed = 1;
nodes = (
"174 379 OFFCURVE",
"194 399 OFFCURVE",
"241 399 CURVE SMOOTH",
"288 399 OFFCURVE",
"325 390 OFFCURVE",
"339 355 CURVE",
"471 400 LINE",
"424 484 OFFCURVE",
"339 510 OFFCURVE",
"243 510 CURVE SMOOTH",
"122 510 OFFCURVE",
"30 444 OFFCURVE",
"30 357 CURVE SMOOTH",
"30 180 OFFCURVE",
"296 211 OFFCURVE",
"306 143 CURVE SMOOTH",
"314 86 OFFCURVE",
"140 70 OFFCURVE",
"120 160 CURVE",
"-10 116 LINE",
"39 5 OFFCURVE",
"153 -13 OFFCURVE",
"229 -13 CURVE SMOOTH",
"367 -13 OFFCURVE",
"454 53 OFFCURVE",
"454 156 CURVE SMOOTH",
"454 321 OFFCURVE",
"174 284 OFFCURVE",
"174 362 CURVE SMOOTH"
);
}
);
width = 515;
}
);
leftKerningGroup = s_2;
rightKerningGroup = s;
unicode = 0073;
},
{
color = (255,153,254,255);
glyphname = t;
layers = (
{
layerId = "30D4BC2E-225F-4273-AE59-0FC741A5E71E";
paths = (
{
closed = 1;
nodes = (
"261 380 LINE",
"370 380 LINE",
"394 496 LINE",
"286 496 LINE",
"312 620 LINE",
"157 620 LINE",
"131 496 LINE",
"53 496 LINE",
"28 380 LINE",
"106 380 LINE",
"55 140 LINE SMOOTH",
"32 34 OFFCURVE",
"91 0 OFFCURVE",
"193 0 CURVE SMOOTH",
"289 0 LINE",
"315 124 LINE",
"272 124 LINE SMOOTH",
"207 124 OFFCURVE",
"213 153 OFFCURVE",
"224 205 CURVE SMOOTH"
);
}
);
width = 391;
}
);
leftKerningGroup = t;
rightKerningGroup = t1;
unicode = 0074;
},
{
color = (255,153,254,255);
glyphname = v;
layers = (
{
layerId = "30D4BC2E-225F-4273-AE59-0FC741A5E71E";
paths = (
{
closed = 1;
nodes = (
"398 496 LINE",
"219 157 LINE",
"186 496 LINE",
"35 496 LINE",
"107 0 LINE",
"285 0 LINE",
"568 496 LINE"
);
}
);
width = 533;
}
);
leftKerningGroup = y;
rightKerningGroup = y_2;
unicode = 0076;
},
{
color = (255,153,254,255);
glyphname = w;
layers = (
{
layerId = "30D4BC2E-225F-4273-AE59-0FC741A5E71E";
paths = (
{
closed = 1;
nodes = (
"604 496 LINE",
"455 159 LINE",
"463 496 LINE",
"313 496 LINE",
"185 175 LINE",
"181 496 LINE",
"35 496 LINE",
"54 0 LINE",
"214 0 LINE",
"362 356 LINE",
"359 0 LINE",
"533 0 LINE",
"762 496 LINE"
);
}
);
width = 727;
}
);
leftMetricsKey = v;
rightMetricsKey = v;
unicode = 0077;
},
{
color = (255,153,254,255);
glyphname = x;
layers = (
{
layerId = "30D4BC2E-225F-4273-AE59-0FC741A5E71E";
paths = (
{
closed = 1;
nodes = (
"571 496 LINE",
"387 496 LINE",
"276 376 LINE",
"216 496 LINE",
"66 496 LINE",
"179 270 LINE",
"-71 0 LINE",
"113 0 LINE",
"242 141 LINE",
"313 0 LINE",
"464 0 LINE",
"340 246 LINE"
);
}
);
width = 536;
}
);
leftMetricsKey = v;
rightMetricsKey = v;
unicode = 0078;
},
{
color = (255,153,254,255);
glyphname = y;
layers = (
{
layerId = "30D4BC2E-225F-4273-AE59-0FC741A5E71E";
paths = (
{
closed = 1;
nodes = (
"386 496 LINE",
"220 180 LINE",
"190 496 LINE",
"35 496 LINE",
"121 2 LINE",
"106 -37 OFFCURVE",
"94 -51 OFFCURVE",
"10 -51 CURVE SMOOTH",
"-21 -51 LINE",
"-44 -161 LINE",
"5 -161 LINE SMOOTH",
"159 -161 OFFCURVE",
"176 -149 OFFCURVE",
"266 -1 CURVE",
"562 496 LINE"
);
}
);
width = 527;
}
);
leftKerningGroup = y;
leftMetricsKey = v;
rightKerningGroup = y_2;
rightMetricsKey = v;
unicode = 0079;
},
{
color = (255,153,254,255);
glyphname = z;
layers = (
{
layerId = "30D4BC2E-225F-4273-AE59-0FC741A5E71E";
paths = (
{
closed = 1;
nodes = (
"539 496 LINE",
"91 496 LINE",
"65 375 LINE",
"296 375 LINE",
"-14 121 LINE",
"-40 0 LINE",
"437 0 LINE",
"462 121 LINE",
"203 121 LINE",
"513 375 LINE"
);
}
);
width = 528;
}
);
leftKerningGroup = z;
rightKerningGroup = z_2;
unicode = 007A;
},
{
color = (153,255,154,255);
glyphname = circumflex;
layers = (
{
layerId = "30D4BC2E-225F-4273-AE59-0FC741A5E71E";
paths = (
{
closed = 1;
nodes = (
"320 635 LINE",
"379 574 LINE",
"495 574 LINE",
"377 701 LINE SMOOTH",
"350 731 OFFCURVE",
"307 733 OFFCURVE",
"278 711 CURVE SMOOTH",
"89 574 LINE",
"236 574 LINE"
);
}
);
width = 480;
}
);
unicode = "02C6,E998";
},
{
color = (153,255,154,255);
glyphname = caron;
layers = (
{
layerId = "30D4BC2E-225F-4273-AE59-0FC741A5E71E";
paths = (
{
closed = 1;
nodes = (
"522 720 LINE",
"375 720 LINE",
"291 659 LINE",
"235 720 LINE",
"120 720 LINE",
"234 593 LINE SMOOTH",
"259 564 OFFCURVE",
"302 560 OFFCURVE",
"332 583 CURVE"
);
}
);
width = 476;
}
);
unicode = "02C7,E999";
},
{
color = (153,255,154,255);
glyphname = breve;
layers = (
{
layerId = "30D4BC2E-225F-4273-AE59-0FC741A5E71E";
paths = (
{
closed = 1;
nodes = (
"341 688 LINE",
"333 666 OFFCURVE",
"310 651 OFFCURVE",
"282 651 CURVE SMOOTH",
"256 651 OFFCURVE",
"234 666 OFFCURVE",
"229 688 CURVE",
"136 688 LINE",
"143 623 OFFCURVE",
"199 577 OFFCURVE",
"278 577 CURVE SMOOTH",
"360 577 OFFCURVE",
"416 626 OFFCURVE",
"435 688 CURVE"
);
}
);
width = 385;
}
);
unicode = "02D8,E99B";
},
{
color = (153,255,154,255);
glyphname = dotaccent;
layers = (
{
layerId = "30D4BC2E-225F-4273-AE59-0FC741A5E71E";
paths = (
{
closed = 1;
nodes = (
"131 719 OFFCURVE",
"99 687 OFFCURVE",
"99 648 CURVE SMOOTH",
"99 609 OFFCURVE",
"131 578 OFFCURVE",
"170 578 CURVE SMOOTH",
"209 578 OFFCURVE",
"240 609 OFFCURVE",
"240 648 CURVE SMOOTH",
"240 687 OFFCURVE",
"209 719 OFFCURVE",
"170 719 CURVE SMOOTH"
);
}
);
width = 204;
}
);
unicode = "02D9,E99C";
},
{
color = (153,255,154,255);
glyphname = ring;
layers = (
{
layerId = "30D4BC2E-225F-4273-AE59-0FC741A5E71E";
paths = (
{
closed = 1;
nodes = (
"355 595 OFFCURVE",
"295 535 OFFCURVE",
"222 535 CURVE SMOOTH",
"149 535 OFFCURVE",
"90 595 OFFCURVE",
"90 668 CURVE SMOOTH",
"90 741 OFFCURVE",
"149 800 OFFCURVE",
"222 800 CURVE SMOOTH",
"295 800 OFFCURVE",
"355 741 OFFCURVE",
"355 668 CURVE SMOOTH"
);
},
{
closed = 1;
nodes = (
"196 715 OFFCURVE",
"175 694 OFFCURVE",
"175 668 CURVE SMOOTH",
"175 642 OFFCURVE",
"196 621 OFFCURVE",
"222 621 CURVE SMOOTH",
"248 621 OFFCURVE",
"269 642 OFFCURVE",
"269 668 CURVE SMOOTH",
"269 694 OFFCURVE",
"248 715 OFFCURVE",
"222 715 CURVE SMOOTH"
);
}
);
width = 301;
}
);
unicode = 02DA;
},
{
color = (153,255,154,255);
glyphname = ogonek;
layers = (
{
layerId = "30D4BC2E-225F-4273-AE59-0FC741A5E71E";
paths = (
{
closed = 1;
nodes = (
"83 -45 OFFCURVE",
"132 -23 OFFCURVE",
"183 0 CURVE",
"39 0 LINE",
"-7 -12 OFFCURVE",
"-45 -48 OFFCURVE",
"-51 -84 CURVE SMOOTH",
"-57 -123 OFFCURVE",
"-36 -173 OFFCURVE",
"73 -173 CURVE SMOOTH",
"98 -173 OFFCURVE",
"137 -168 OFFCURVE",
"154 -164 CURVE",
"170 -88 LINE",
"161 -91 OFFCURVE",
"138 -97 OFFCURVE",
"119 -97 CURVE SMOOTH",
"97 -97 OFFCURVE",
"72 -93 OFFCURVE",
"77 -69 CURVE SMOOTH"
);
}
);
width = 296;
}
);
unicode = "02DB,E99E";
},
{
color = (153,255,154,255);
glyphname = quoteleft;
layers = (
{
layerId = "30D4BC2E-225F-4273-AE59-0FC741A5E71E";
paths = (
{
closed = 1;
nodes = (
"292 668 LINE",
"193 668 LINE",
"81 488 LINE SMOOTH",
"75 478 OFFCURVE",
"70 467 OFFCURVE",
"68 455 CURVE SMOOTH",
"59 402 OFFCURVE",
"93 351 OFFCURVE",
"145 341 CURVE SMOOTH",
"198 332 OFFCURVE",
"249 366 OFFCURVE",
"259 419 CURVE SMOOTH",
"268 464 OFFCURVE",
"244 508 OFFCURVE",
"203 526 CURVE"
);
}
);
width = 281;
}
);
leftKerningGroup = quoteleft;
rightKerningGroup = quoteleft_2;
unicode = "2018,E9A3";
},
{
color = (153,255,154,255);
glyphname = quoteright;
layers = (
{
layerId = "30D4BC2E-225F-4273-AE59-0FC741A5E71E";
paths = (
{
closed = 1;
nodes = (
"160 688 OFFCURVE",
"109 654 OFFCURVE",
"99 601 CURVE SMOOTH",
"90 555 OFFCURVE",
"115 511 OFFCURVE",
"155 493 CURVE",
"66 351 LINE",
"165 351 LINE",
"278 531 LINE SMOOTH",
"284 541 OFFCURVE",
"288 552 OFFCURVE",
"291 564 CURVE SMOOTH",
"304 616 OFFCURVE",
"266 668 OFFCURVE",
"213 678 CURVE SMOOTH"
);
}
);
width = 282;
}
);
leftKerningGroup = quoteright;
rightKerningGroup = quoteright_2;
unicode = "2019,E9A4";
},
{
color = (153,255,154,255);
glyphname = quotesinglbase;
layers = (
{
layerId = "30D4BC2E-225F-4273-AE59-0FC741A5E71E";
paths = (
{
closed = 1;
nodes = (
"54 192 OFFCURVE",
"3 157 OFFCURVE",
"-7 104 CURVE SMOOTH",
"-16 59 OFFCURVE",
"9 15 OFFCURVE",
"49 -3 CURVE",
"-40 -145 LINE",
"59 -145 LINE",
"172 35 LINE SMOOTH",
"178 45 OFFCURVE",
"182 56 OFFCURVE",
"185 68 CURVE SMOOTH",
"198 120 OFFCURVE",
"160 172 OFFCURVE",
"107 182 CURVE SMOOTH"
);
}
);
width = 282;
}
);
leftKerningGroup = period;
rightKerningGroup = period_2;
unicode = "201A,E9A5";
},
{
color = (153,255,154,255);
glyphname = quotedblleft;
layers = (
{
layerId = "30D4BC2E-225F-4273-AE59-0FC741A5E71E";
paths = (
{
closed = 1;
nodes = (
"292 668 LINE",
"193 668 LINE",
"81 488 LINE SMOOTH",
"75 478 OFFCURVE",
"70 467 OFFCURVE",
"68 455 CURVE SMOOTH",
"59 402 OFFCURVE",
"93 351 OFFCURVE",
"145 341 CURVE SMOOTH",
"198 332 OFFCURVE",
"249 366 OFFCURVE",
"259 419 CURVE SMOOTH",
"268 464 OFFCURVE",
"244 508 OFFCURVE",
"203 526 CURVE"
);
},
{
closed = 1;
nodes = (
"516 668 LINE",
"417 668 LINE",
"305 488 LINE SMOOTH",
"299 478 OFFCURVE",
"294 467 OFFCURVE",
"292 455 CURVE SMOOTH",
"283 402 OFFCURVE",
"317 351 OFFCURVE",
"369 341 CURVE SMOOTH",
"422 332 OFFCURVE",
"473 366 OFFCURVE",
"483 419 CURVE SMOOTH",
"491 464 OFFCURVE",
"467 508 OFFCURVE",
"427 526 CURVE"
);
}
);
width = 505;
}
);
leftKerningGroup = quoteleft;
rightKerningGroup = quoteleft_2;
unicode = "201C,E9A6";
},
{
color = (153,255,154,255);
glyphname = quotedblright;
layers = (
{
layerId = "30D4BC2E-225F-4273-AE59-0FC741A5E71E";
paths = (
{
closed = 1;
nodes = (
"383 688 OFFCURVE",
"333 654 OFFCURVE",
"323 601 CURVE SMOOTH",
"314 555 OFFCURVE",
"339 511 OFFCURVE",
"378 493 CURVE",
"290 351 LINE",
"389 351 LINE",
"501 531 LINE SMOOTH",
"507 541 OFFCURVE",
"512 552 OFFCURVE",
"514 564 CURVE SMOOTH",
"523 617 OFFCURVE",
"489 668 OFFCURVE",
"436 678 CURVE SMOOTH"
);
},
{
closed = 1;
nodes = (
"160 688 OFFCURVE",
"109 654 OFFCURVE",
"99 601 CURVE SMOOTH",
"90 555 OFFCURVE",
"115 511 OFFCURVE",
"155 493 CURVE",
"66 351 LINE",
"165 351 LINE",
"278 531 LINE SMOOTH",
"284 541 OFFCURVE",
"288 552 OFFCURVE",
"291 564 CURVE SMOOTH",
"304 616 OFFCURVE",
"266 668 OFFCURVE",
"213 678 CURVE SMOOTH"
);
}
);
width = 505;
}
);
leftKerningGroup = quoteright;
rightKerningGroup = quoteright_2;
unicode = "201D,E9A7";
},
{
color = (153,255,154,255);
glyphname = quotedblbase;
layers = (
{
layerId = "30D4BC2E-225F-4273-AE59-0FC741A5E71E";
paths = (
{
closed = 1;
nodes = (
"277 192 OFFCURVE",
"227 157 OFFCURVE",
"217 104 CURVE SMOOTH",
"209 59 OFFCURVE",
"233 15 OFFCURVE",
"272 -3 CURVE",
"184 -145 LINE",
"283 -145 LINE",
"395 35 LINE SMOOTH",
"401 45 OFFCURVE",
"406 56 OFFCURVE",
"408 68 CURVE SMOOTH",
"417 121 OFFCURVE",
"383 172 OFFCURVE",
"330 182 CURVE SMOOTH"
);
},
{
closed = 1;
nodes = (
"54 192 OFFCURVE",
"3 157 OFFCURVE",
"-7 104 CURVE SMOOTH",
"-16 59 OFFCURVE",
"9 15 OFFCURVE",
"49 -3 CURVE",
"-40 -145 LINE",
"59 -145 LINE",
"172 35 LINE SMOOTH",
"178 45 OFFCURVE",
"182 56 OFFCURVE",
"185 68 CURVE SMOOTH",
"198 120 OFFCURVE",
"160 172 OFFCURVE",
"107 182 CURVE SMOOTH"
);
}
);
width = 505;
}
);
leftKerningGroup = period;
rightKerningGroup = period_2;
unicode = "201E,E9A8";
},
{
color = (153,255,154,255);
glyphname = dagger;
layers = (
{
layerId = "30D4BC2E-225F-4273-AE59-0FC741A5E71E";
paths = (
{
closed = 1;
nodes = (
"405 496 LINE",
"442 668 LINE",
"297 668 LINE",
"260 496 LINE",
"77 496 LINE",
"52 380 LINE",
"236 380 LINE",
"155 1 LINE",
"300 1 LINE",
"380 380 LINE",
"564 380 LINE",
"588 496 LINE"
);
}
);
width = 594;
}
);
unicode = "2020,E9A9";
},
{
color = (153,255,154,255);
glyphname = daggerdbl;
layers = (
{
layerId = "30D4BC2E-225F-4273-AE59-0FC741A5E71E";
paths = (
{
closed = 1;
nodes = (
"564 380 LINE",
"589 496 LINE",
"405 496 LINE",
"442 668 LINE",
"297 668 LINE",
"260 496 LINE",
"77 496 LINE",
"52 380 LINE",
"236 380 LINE",
"216 288 LINE",
"33 288 LINE",
"8 173 LINE",
"192 173 LINE",
"155 1 LINE",
"301 1 LINE",
"336 173 LINE",
"520 173 LINE",
"544 288 LINE",
"361 288 LINE",
"381 380 LINE"
);
}
);
width = 595;
}
);
unicode = "2021,E9AA";
},
{
glyphname = bullet;
layers = (
{
layerId = "30D4BC2E-225F-4273-AE59-0FC741A5E71E";
paths = (
{
closed = 1;
nodes = (
"299 88 OFFCURVE",
"373 163 OFFCURVE",
"373 254 CURVE SMOOTH",
"373 346 OFFCURVE",
"299 420 OFFCURVE",
"207 420 CURVE SMOOTH",
"115 420 OFFCURVE",
"41 346 OFFCURVE",
"41 254 CURVE SMOOTH",
"41 163 OFFCURVE",
"115 88 OFFCURVE",
"207 88 CURVE SMOOTH"
);
}
);
width = 446;
}
);
unicode = 2022;
},
{
glyphname = ellipsis;
layers = (
{
layerId = "30D4BC2E-225F-4273-AE59-0FC741A5E71E";
paths = (
{
closed = 1;
nodes = (
"35 184 OFFCURVE",
"-9 140 OFFCURVE",
"-9 86 CURVE SMOOTH",
"-9 32 OFFCURVE",
"35 -12 OFFCURVE",
"89 -12 CURVE SMOOTH",
"142 -12 OFFCURVE",
"186 32 OFFCURVE",
"186 86 CURVE SMOOTH",
"186 140 OFFCURVE",
"142 184 OFFCURVE",
"89 184 CURVE SMOOTH"
);
},
{
closed = 1;
nodes = (
"561 184 OFFCURVE",
"517 140 OFFCURVE",
"517 86 CURVE SMOOTH",
"517 32 OFFCURVE",
"561 -12 OFFCURVE",
"615 -12 CURVE SMOOTH",
"669 -12 OFFCURVE",
"712 32 OFFCURVE",
"712 86 CURVE SMOOTH",
"712 140 OFFCURVE",
"669 184 OFFCURVE",
"615 184 CURVE SMOOTH"
);
},
{
closed = 1;
nodes = (
"297 184 OFFCURVE",
"255 140 OFFCURVE",
"255 86 CURVE SMOOTH",
"255 32 OFFCURVE",
"297 -12 OFFCURVE",
"351 -12 CURVE SMOOTH",
"405 -12 OFFCURVE",
"449 32 OFFCURVE",
"449 86 CURVE SMOOTH",
"449 140 OFFCURVE",
"405 184 OFFCURVE",
"351 184 CURVE SMOOTH"
);
}
);
width = 807;
}
);
leftKerningGroup = period;
rightKerningGroup = period_2;
unicode = "2026,E9AC";
},
{
glyphname = perthousand;
layers = (
{
layerId = "30D4BC2E-225F-4273-AE59-0FC741A5E71E";
paths = (
{
closed = 1;
nodes = (
"711 668 LINE",
"244 0 LINE",
"370 0 LINE",
"838 668 LINE"
);
},
{
closed = 1;
nodes = (
"720 382 OFFCURVE",
"622 294 OFFCURVE",
"611 185 CURVE SMOOTH",
"600 76 OFFCURVE",
"678 -12 OFFCURVE",
"787 -12 CURVE SMOOTH",
"896 -12 OFFCURVE",
"994 76 OFFCURVE",
"1005 185 CURVE SMOOTH",
"1016 294 OFFCURVE",
"938 382 OFFCURVE",
"829 382 CURVE SMOOTH"
);
},
{
closed = 1;
nodes = (
"882 141 OFFCURVE",
"843 107 OFFCURVE",
"800 107 CURVE SMOOTH",
"756 107 OFFCURVE",
"725 141 OFFCURVE",
"729 185 CURVE SMOOTH",
"733 228 OFFCURVE",
"773 263 OFFCURVE",
"816 263 CURVE SMOOTH",
"860 263 OFFCURVE",
"891 228 OFFCURVE",
"887 185 CURVE SMOOTH"
);
},
{
closed = 1;
nodes = (
"481 592 OFFCURVE",
"402 680 OFFCURVE",
"293 680 CURVE SMOOTH",
"184 680 OFFCURVE",
"87 592 OFFCURVE",
"75 483 CURVE SMOOTH",
"63 374 OFFCURVE",
"143 286 OFFCURVE",
"252 286 CURVE SMOOTH",
"361 286 OFFCURVE",
"458 374 OFFCURVE",
"470 483 CURVE SMOOTH"
);
},
{
closed = 1;
nodes = (
"198 526 OFFCURVE",
"237 561 OFFCURVE",
"281 561 CURVE SMOOTH",
"324 561 OFFCURVE",
"356 526 OFFCURVE",
"351 483 CURVE SMOOTH",
"346 439 OFFCURVE",
"308 405 OFFCURVE",
"264 405 CURVE SMOOTH",
"221 405 OFFCURVE",
"189 439 OFFCURVE",
"194 483 CURVE SMOOTH"
);
},
{
closed = 1;
nodes = (
"1149 382 OFFCURVE",
"1051 294 OFFCURVE",
"1040 185 CURVE SMOOTH",
"1029 76 OFFCURVE",
"1107 -12 OFFCURVE",
"1216 -12 CURVE SMOOTH",
"1325 -12 OFFCURVE",
"1423 76 OFFCURVE",
"1434 185 CURVE SMOOTH",
"1445 294 OFFCURVE",
"1367 382 OFFCURVE",
"1258 382 CURVE SMOOTH"
);
},
{
closed = 1;
nodes = (
"1311 141 OFFCURVE",
"1272 107 OFFCURVE",
"1229 107 CURVE SMOOTH",
"1185 107 OFFCURVE",
"1154 141 OFFCURVE",
"1158 185 CURVE SMOOTH",
"1162 228 OFFCURVE",
"1202 263 OFFCURVE",
"1245 263 CURVE SMOOTH",
"1289 263 OFFCURVE",
"1320 228 OFFCURVE",
"1316 185 CURVE SMOOTH"
);
}
);
width = 1507;
}
);
leftKerningGroup = percent;
unicode = "2030,E9AD";
},
{
color = (153,255,154,255);
glyphname = guilsinglleft;
layers = (
{
layerId = "30D4BC2E-225F-4273-AE59-0FC741A5E71E";
paths = (
{
closed = 1;
nodes = (
"388 460 LINE",
"217 460 LINE",
"24 250 LINE",
"127 40 LINE",
"291 40 LINE",
"177 273 LINE",
"166 217 LINE"
);
}
);
width = 401;
}
);
leftKerningGroup = guilsinglleft;
rightKerningGroup = guilsinglleft_2;
unicode = "2039,E9AE";
},
{
color = (153,255,154,255);
glyphname = guilsinglright;
layers = (
{
layerId = "30D4BC2E-225F-4273-AE59-0FC741A5E71E";
paths = (
{
closed = 1;
nodes = (
"-20 40 LINE",
"151 40 LINE",
"344 250 LINE",
"241 460 LINE",
"77 460 LINE",
"191 227 LINE",
"202 283 LINE"
);
}
);
width = 402;
}
);
leftKerningGroup = guilsinglright;
rightKerningGroup = guilsinglright_2;
unicode = "203A,E9AF";
},
{
color = (153,254,255,255);
glyphname = fraction;
layers = (
{
layerId = "30D4BC2E-225F-4273-AE59-0FC741A5E71E";
paths = (
{
closed = 1;
nodes = (
"413 668 LINE",
"-55 0 LINE",
"72 0 LINE",
"539 668 LINE"
);
}
);
width = 482;
}
);
unicode = "2044,E9B0";
},
{
color = (153,254,255,255);
glyphname = ordfeminine;
layers = (
{
layerId = "30D4BC2E-225F-4273-AE59-0FC741A5E71E";
paths = (
{
closed = 1;
nodes = (
"196 692 OFFCURVE",
"155 672 OFFCURVE",
"127 631 CURVE",
"207 599 LINE",
"215 618 OFFCURVE",
"236 625 OFFCURVE",
"254 625 CURVE SMOOTH",
"281 625 OFFCURVE",
"297 614 OFFCURVE",
"293 594 CURVE",
"289 582 LINE",
"187 576 OFFCURVE",
"84 562 OFFCURVE",
"86 474 CURVE SMOOTH",
"87 431 OFFCURVE",
"118 396 OFFCURVE",
"174 396 CURVE SMOOTH",
"222 396 OFFCURVE",
"251 413 OFFCURVE",
"270 435 CURVE",
"272 403 LINE",
"358 403 LINE",
"363 453 OFFCURVE",
"370 497 OFFCURVE",
"382 549 CURVE",
"410 661 OFFCURVE",
"341 692 OFFCURVE",
"266 692 CURVE SMOOTH"
);
},
{
closed = 1;
nodes = (
"277 510 LINE",
"266 456 OFFCURVE",
"191 449 OFFCURVE",
"193 491 CURVE",
"193 506 OFFCURVE",
"206 518 OFFCURVE",
"243 523 CURVE",
"252 525 OFFCURVE",
"282 528 OFFCURVE",
"282 528 CURVE"
);
}
);
width = 395;
}
);
unicode = "00AA,E93D";
},
{
color = (153,254,255,255);
glyphname = guillemotleft;
layers = (
{
layerId = "30D4BC2E-225F-4273-AE59-0FC741A5E71E";
paths = (
{
closed = 1;
nodes = (
"400 460 LINE",
"229 460 LINE",
"36 250 LINE",
"139 40 LINE",
"303 40 LINE",
"189 273 LINE",
"178 217 LINE"
);
},
{
closed = 1;
nodes = (
"640 460 LINE",
"469 460 LINE",
"276 250 LINE",
"379 40 LINE",
"543 40 LINE",
"429 273 LINE",
"418 217 LINE"
);
}
);
width = 665;
}
);
leftKerningGroup = guilsinglleft;
rightKerningGroup = guilsinglleft_2;
unicode = "00AB,E93E";
},
{
glyphname = logicalnot;
layers = (
{
layerId = "30D4BC2E-225F-4273-AE59-0FC741A5E71E";
paths = (
{
closed = 1;
nodes = (
"73 422 LINE",
"73 295 LINE",
"457 295 LINE",
"457 56 LINE",
"585 56 LINE",
"585 422 LINE"
);
}
);
width = 696;
}
);
unicode = "00AC,E93F";
},
{
glyphname = registered;
layers = (
{
layerId = "30D4BC2E-225F-4273-AE59-0FC741A5E71E";
paths = (
{
closed = 1;
nodes = (
"217 679 OFFCURVE",
"62 524 OFFCURVE",
"62 334 CURVE SMOOTH",
"62 143 OFFCURVE",
"217 -12 OFFCURVE",
"407 -12 CURVE SMOOTH",
"599 -12 OFFCURVE",
"754 143 OFFCURVE",
"754 334 CURVE SMOOTH",
"754 524 OFFCURVE",
"599 679 OFFCURVE",
"407 679 CURVE SMOOTH"
);
},
{
closed = 1;
nodes = (
"256 57 OFFCURVE",
"132 181 OFFCURVE",
"132 334 CURVE SMOOTH",
"132 486 OFFCURVE",
"256 610 OFFCURVE",
"407 610 CURVE SMOOTH",
"560 610 OFFCURVE",
"684 486 OFFCURVE",
"684 334 CURVE SMOOTH",
"684 181 OFFCURVE",
"560 57 OFFCURVE",
"407 57 CURVE SMOOTH"
);
},
{
closed = 1;
nodes = (
"568 507 OFFCURVE",
"496 529 OFFCURVE",
"401 529 CURVE SMOOTH",
"250 529 LINE",
"250 161 LINE",
"347 161 LINE",
"347 300 LINE",
"379 300 LINE",
"480 161 LINE",
"588 161 LINE",
"481 310 LINE",
"550 329 OFFCURVE",
"568 373 OFFCURVE",
"568 415 CURVE SMOOTH"
);
},
{
closed = 1;
nodes = (
"347 375 LINE",
"347 453 LINE",
"399 453 LINE SMOOTH",
"437 453 OFFCURVE",
"467 446 OFFCURVE",
"467 414 CURVE SMOOTH",
"467 382 OFFCURVE",
"437 375 OFFCURVE",
"399 375 CURVE"
);
}
);
width = 814;
}
);
unicode = "00AE,E940";
},
{
color = (153,254,255,255);
glyphname = macron;
layers = (
{
layerId = "30D4BC2E-225F-4273-AE59-0FC741A5E71E";
paths = (
{
closed = 1;
nodes = (
"403 570 LINE",
"424 668 LINE",
"125 668 LINE",
"104 570 LINE"
);
}
);
width = 405;
}
);
unicode = 00AF;
},
{
glyphname = degree;
layers = (
{
layerId = "30D4BC2E-225F-4273-AE59-0FC741A5E71E";
paths = (
{
closed = 1;
nodes = (
"156 679 OFFCURVE",
"83 606 OFFCURVE",
"83 517 CURVE SMOOTH",
"83 427 OFFCURVE",
"156 354 OFFCURVE",
"245 354 CURVE SMOOTH",
"335 354 OFFCURVE",
"407 427 OFFCURVE",
"407 517 CURVE SMOOTH",
"407 606 OFFCURVE",
"335 679 OFFCURVE",
"245 679 CURVE SMOOTH"
);
},
{
closed = 1;
nodes = (
"205 444 OFFCURVE",
"172 477 OFFCURVE",
"172 517 CURVE SMOOTH",
"172 557 OFFCURVE",
"205 590 OFFCURVE",
"245 590 CURVE SMOOTH",
"286 590 OFFCURVE",
"318 557 OFFCURVE",
"318 517 CURVE SMOOTH",
"318 477 OFFCURVE",
"286 444 OFFCURVE",
"245 444 CURVE SMOOTH"
);
}
);
width = 411;
}
);
unicode = "00B0,E941";
},
{
color = (153,254,255,255);
glyphname = plusminus;
layers = (
{
layerId = "30D4BC2E-225F-4273-AE59-0FC741A5E71E";
paths = (
{
closed = 1;
nodes = (
"376 391 LINE",
"376 495 LINE",
"248 495 LINE",
"248 391 LINE",
"56 391 LINE",
"56 283 LINE",
"248 283 LINE",
"248 180 LINE",
"376 180 LINE",
"376 283 LINE",
"568 283 LINE",
"568 391 LINE"
);
},
{
closed = 1;
nodes = (
"56 0 LINE",
"568 0 LINE",
"568 128 LINE",
"56 128 LINE"
);
}
);
width = 701;
}
);
unicode = "00B1,E942";
},
{
color = (153,254,255,255);
glyphname = twosuperior;
layers = (
{
layerId = "30D4BC2E-225F-4273-AE59-0FC741A5E71E";
paths = (
{
closed = 1;
nodes = (
"429 760 OFFCURVE",
"367 788 OFFCURVE",
"288 788 CURVE SMOOTH",
"213 788 OFFCURVE",
"161 760 OFFCURVE",
"132 700 CURVE",
"216 667 LINE",
"227 697 OFFCURVE",
"247 711 OFFCURVE",
"277 711 CURVE SMOOTH",
"301 711 OFFCURVE",
"324 698 OFFCURVE",
"321 670 CURVE SMOOTH",
"314 606 OFFCURVE",
"190 540 OFFCURVE",
"87 484 CURVE",
"70 403 LINE",
"370 403 LINE",
"388 491 LINE",
"240 491 LINE",
"330 530 OFFCURVE",
"425 609 OFFCURVE",
"427 686 CURVE SMOOTH"
);
}
);
width = 407;
}
);
unicode = "00B2,E943";
},
{
color = (153,254,255,255);
glyphname = threesuperior;
layers = (
{
layerId = "30D4BC2E-225F-4273-AE59-0FC741A5E71E";
paths = (
{
closed = 1;
nodes = (
"400 611 OFFCURVE",
"426 641 OFFCURVE",
"428 683 CURVE SMOOTH",
"431 752 OFFCURVE",
"367 788 OFFCURVE",
"286 788 CURVE SMOOTH",
"212 788 OFFCURVE",
"165 761 OFFCURVE",
"134 709 CURVE",
"217 676 LINE",
"231 707 OFFCURVE",
"254 713 OFFCURVE",
"278 713 CURVE SMOOTH",
"301 713 OFFCURVE",
"328 701 OFFCURVE",
"324 676 CURVE",
"321 649 OFFCURVE",
"293 636 OFFCURVE",
"251 636 CURVE SMOOTH",
"236 636 LINE",
"218 552 LINE",
"233 552 LINE SMOOTH",
"282 552 OFFCURVE",
"307 541 OFFCURVE",
"305 511 CURVE SMOOTH",
"304 490 OFFCURVE",
"283 472 OFFCURVE",
"254 472 CURVE SMOOTH",
"226 472 OFFCURVE",
"205 485 OFFCURVE",
"196 511 CURVE",
"98 478 LINE",
"129 424 OFFCURVE",
"186 396 OFFCURVE",
"253 396 CURVE SMOOTH",
"331 396 OFFCURVE",
"398 432 OFFCURVE",
"409 505 CURVE SMOOTH",
"416 549 OFFCURVE",
"393 584 OFFCURVE",
"362 599 CURVE"
);
}
);
width = 425;
}
);
unicode = "00B3,E944";
},
{
color = (153,254,255,255);
glyphname = acute;
layers = (
{
layerId = "30D4BC2E-225F-4273-AE59-0FC741A5E71E";
paths = (
{
closed = 1;
nodes = (
"307 730 OFFCURVE",
"272 734 OFFCURVE",
"248 715 CURVE SMOOTH",
"246 714 OFFCURVE",
"105 574 OFFCURVE",
"105 574 CURVE",
"228 574 LINE",
"228 574 OFFCURVE",
"312 623 OFFCURVE",
"318 628 CURVE SMOOTH",
"342 648 OFFCURVE",
"346 682 OFFCURVE",
"326 706 CURVE SMOOTH"
);
}
);
width = 320;
}
);
unicode = "00B4,E9CB";
},
{
color = (153,254,255,255);
glyphname = mu;
layers = (
{
layerId = "30D4BC2E-225F-4273-AE59-0FC741A5E71E";
paths = (
{
closed = 1;
nodes = (
"404 495 LINE",
"348 231 LINE SMOOTH",
"328 137 OFFCURVE",
"293 102 OFFCURVE",
"236 106 CURVE SMOOTH",
"190 109 OFFCURVE",
"164 136 OFFCURVE",
"184 231 CURVE SMOOTH",
"240 495 LINE",
"85 495 LINE",
"-55 -161 LINE",
"101 -161 LINE",
"143 40 LINE",
"164 -24 OFFCURVE",
"275 -16 OFFCURVE",
"310 43 CURVE",
"314 0 LINE",
"455 0 LINE",
"560 495 LINE"
);
}
);
width = 577;
}
);
leftMetricsKey = p;
rightMetricsKey = u;
unicode = "03BC,E945";
},
{
color = (153,254,255,255);
glyphname = paragraph;
layers = (
{
layerId = "30D4BC2E-225F-4273-AE59-0FC741A5E71E";
paths = (
{
closed = 1;
nodes = (
"286 668 LINE SMOOTH",
"181 668 OFFCURVE",
"79 583 OFFCURVE",
"56 478 CURVE SMOOTH",
"37 390 OFFCURVE",
"82 317 OFFCURVE",
"160 296 CURVE",
"63 -161 LINE",
"159 -161 LINE",
"321 600 LINE",
"414 600 LINE",
"253 -161 LINE",
"348 -161 LINE",
"510 600 LINE",
"558 600 LINE",
"573 668 LINE"
);
}
);
width = 531;
}
);
leftMetricsKey = q;
rightMetricsKey = f;
unicode = "00B6,E946";
},
{
glyphname = periodcentered;
layers = (
{
layerId = "30D4BC2E-225F-4273-AE59-0FC741A5E71E";
paths = (
{
closed = 1;
nodes = (
"189 151 OFFCURVE",
"233 194 OFFCURVE",
"233 248 CURVE SMOOTH",
"233 302 OFFCURVE",
"189 345 OFFCURVE",
"136 345 CURVE SMOOTH",
"82 345 OFFCURVE",
"38 302 OFFCURVE",
"38 248 CURVE SMOOTH",
"38 194 OFFCURVE",
"82 151 OFFCURVE",
"136 151 CURVE SMOOTH"
);
}
);
width = 305;
}
);
unicode = "00B7,E947";
},
{
color = (153,254,255,255);
glyphname = cedilla;
layers = (
{
layerId = "30D4BC2E-225F-4273-AE59-0FC741A5E71E";
paths = (
{
closed = 1;
nodes = (
"127 1 LINE",
"91 26 LINE",
"22 -57 LINE SMOOTH",
"8 -74 OFFCURVE",
"23 -93 OFFCURVE",
"40 -88 CURVE SMOOTH",
"73 -78 OFFCURVE",
"105 -90 OFFCURVE",
"103 -111 CURVE SMOOTH",
"100 -147 OFFCURVE",
"34 -147 OFFCURVE",
"-9 -128 CURVE",
"-35 -178 LINE",
"7 -199 OFFCURVE",
"183 -219 OFFCURVE",
"194 -112 CURVE SMOOTH",
"199 -59 OFFCURVE",
"146 -36 OFFCURVE",
"87 -47 CURVE"
);
}
);
width = 322;
}
);
unicode = "00B8,E9CD";
},
{
color = (153,254,255,255);
glyphname = onesuperior;
layers = (
{
layerId = "30D4BC2E-225F-4273-AE59-0FC741A5E71E";
paths = (
{
closed = 1;
nodes = (
"255 779 LINE",
"227 738 OFFCURVE",
"193 735 OFFCURVE",
"140 735 CURVE",
"121 647 LINE",
"205 647 LINE",
"153 403 LINE",
"257 403 LINE",
"337 779 LINE"
);
}
);
width = 294;
}
);
unicode = "00B9,E948";
},
{
color = (153,254,255,255);
glyphname = ordmasculine;
layers = (
{
layerId = "30D4BC2E-225F-4273-AE59-0FC741A5E71E";
paths = (
{
closed = 1;
nodes = (
"188 689 OFFCURVE",
"114 643 OFFCURVE",
"103 543 CURVE SMOOTH",
"92 442 OFFCURVE",
"157 396 OFFCURVE",
"240 396 CURVE SMOOTH",
"323 396 OFFCURVE",
"397 442 OFFCURVE",
"407 543 CURVE SMOOTH",
"418 643 OFFCURVE",
"354 689 OFFCURVE",
"271 689 CURVE SMOOTH"
);
},
{
closed = 1;
nodes = (
"299 495 OFFCURVE",
"276 473 OFFCURVE",
"248 473 CURVE SMOOTH",
"220 473 OFFCURVE",
"201 495 OFFCURVE",
"206 543 CURVE SMOOTH",
"211 590 OFFCURVE",
"235 612 OFFCURVE",
"263 612 CURVE SMOOTH",
"290 612 OFFCURVE",
"309 590 OFFCURVE",
"304 543 CURVE SMOOTH"
);
}
);
width = 412;
}
);
unicode = "00BA,E949";
},
{
color = (153,254,255,255);
glyphname = guillemotright;
layers = (
{
layerId = "30D4BC2E-225F-4273-AE59-0FC741A5E71E";
paths = (
{
closed = 1;
nodes = (
"232 40 LINE",
"403 40 LINE",
"596 250 LINE",
"493 460 LINE",
"329 460 LINE",
"443 227 LINE",
"454 283 LINE"
);
},
{
closed = 1;
nodes = (
"-8 40 LINE",
"163 40 LINE",
"356 250 LINE",
"253 460 LINE",
"89 460 LINE",
"203 227 LINE",
"214 283 LINE"
);
}
);
width = 666;
}
);
leftKerningGroup = guilsinglright;
rightKerningGroup = guilsinglright_2;
unicode = "00BB,E94A";
},
{
glyphname = onequarter;
layers = (
{
layerId = "30D4BC2E-225F-4273-AE59-0FC741A5E71E";
paths = (
{
closed = 1;
nodes = (
"597 667 LINE",
"129 0 LINE",
"256 0 LINE",
"724 667 LINE"
);
},
{
closed = 1;
nodes = (
"233 292 LINE",
"313 668 LINE",
"231 668 LINE",
"203 626 OFFCURVE",
"169 623 OFFCURVE",
"116 623 CURVE",
"97 536 LINE",
"181 536 LINE",
"129 292 LINE"
);
},
{
closed = 1;
nodes = (
"784 161 LINE",
"829 375 LINE",
"715 375 LINE",
"487 152 LINE",
"470 75 LINE",
"662 75 LINE",
"646 0 LINE",
"749 0 LINE",
"765 75 LINE",
"822 75 LINE",
"841 161 LINE"
);
},
{
closed = 1;
nodes = (
"680 161 LINE",
"602 161 LINE",
"700 257 LINE"
);
}
);
width = 930;
}
);
unicode = "00BC,E94B";
},
{
glyphname = onehalf;
layers = (
{
layerId = "30D4BC2E-225F-4273-AE59-0FC741A5E71E";
paths = (
{
closed = 1;
nodes = (
"597 667 LINE",
"129 0 LINE",
"256 0 LINE",
"724 667 LINE"
);
},
{
closed = 1;
nodes = (
"233 292 LINE",
"313 668 LINE",
"231 668 LINE",
"203 626 OFFCURVE",
"169 623 OFFCURVE",
"116 623 CURVE",
"97 536 LINE",
"181 536 LINE",
"129 292 LINE"
);
},
{
closed = 1;
nodes = (
"856 356 OFFCURVE",
"794 384 OFFCURVE",
"714 384 CURVE SMOOTH",
"639 384 OFFCURVE",
"586 356 OFFCURVE",
"558 297 CURVE",
"642 264 LINE",
"652 294 OFFCURVE",
"673 308 OFFCURVE",
"702 308 CURVE SMOOTH",
"726 308 OFFCURVE",
"750 295 OFFCURVE",
"747 267 CURVE SMOOTH",
"740 203 OFFCURVE",
"615 137 OFFCURVE",
"513 81 CURVE",
"496 0 LINE",
"796 0 LINE",
"815 88 LINE",
"666 88 LINE",
"756 127 OFFCURVE",
"852 206 OFFCURVE",
"854 283 CURVE SMOOTH"
);
}
);
width = 919;
}
);
unicode = "00BD,E94C";
},
{
glyphname = threequarters;
layers = (
{
layerId = "30D4BC2E-225F-4273-AE59-0FC741A5E71E";
paths = (
{
closed = 1;
nodes = (
"666 667 LINE",
"198 0 LINE",
"325 0 LINE",
"793 667 LINE"
);
},
{
closed = 1;
nodes = (
"812 161 LINE",
"858 375 LINE",
"744 375 LINE",
"515 152 LINE",
"499 75 LINE",
"690 75 LINE",
"674 0 LINE",
"778 0 LINE",
"794 75 LINE",
"851 75 LINE",
"869 161 LINE"
);
},
{
closed = 1;
nodes = (
"709 161 LINE",
"630 161 LINE",
"729 257 LINE"
);
},
{
closed = 1;
nodes = (
"392 441 OFFCURVE",
"370 476 OFFCURVE",
"339 490 CURVE",
"377 502 OFFCURVE",
"403 533 OFFCURVE",
"405 575 CURVE SMOOTH",
"408 644 OFFCURVE",
"344 679 OFFCURVE",
"263 679 CURVE SMOOTH",
"189 679 OFFCURVE",
"142 653 OFFCURVE",
"111 600 CURVE",
"194 568 LINE",
"208 599 OFFCURVE",
"231 605 OFFCURVE",
"255 605 CURVE SMOOTH",
"278 605 OFFCURVE",
"305 593 OFFCURVE",
"301 568 CURVE",
"298 541 OFFCURVE",
"270 528 OFFCURVE",
"228 528 CURVE SMOOTH",
"213 528 LINE",
"195 444 LINE",
"210 444 LINE SMOOTH",
"259 444 OFFCURVE",
"284 433 OFFCURVE",
"282 403 CURVE SMOOTH",
"281 382 OFFCURVE",
"260 364 OFFCURVE",
"231 364 CURVE SMOOTH",
"203 364 OFFCURVE",
"182 377 OFFCURVE",
"173 403 CURVE",
"75 370 LINE",
"106 316 OFFCURVE",
"163 288 OFFCURVE",
"230 288 CURVE",
"308 288 OFFCURVE",
"375 325 OFFCURVE",
"386 397 CURVE SMOOTH"
);
}
);
width = 958;
}
);
unicode = "00BE,E94D";
},
{
glyphname = less;
layers = (
{
layerId = "30D4BC2E-225F-4273-AE59-0FC741A5E71E";
paths = (
{
closed = 1;
nodes = (
"527 510 LINE",
"34 299 LINE",
"34 200 LINE",
"527 -12 LINE",
"527 130 LINE",
"203 250 LINE",
"527 368 LINE"
);
}
);
width = 640;
}
);
unicode = "003C,E923";
},
{
color = (153,254,255,255);
glyphname = equal;
layers = (
{
layerId = "30D4BC2E-225F-4273-AE59-0FC741A5E71E";
paths = (
{
closed = 1;
nodes = (
"572 283 LINE",
"572 410 LINE",
"60 410 LINE",
"60 283 LINE"
);
},
{
closed = 1;
nodes = (
"572 96 LINE",
"572 225 LINE",
"60 225 LINE",
"60 96 LINE"
);
}
);
width = 685;
}
);
unicode = "003D,E924";
},
{
glyphname = greater;
layers = (
{
layerId = "30D4BC2E-225F-4273-AE59-0FC741A5E71E";
paths = (
{
closed = 1;
nodes = (
"78 510 LINE",
"78 368 LINE",
"403 250 LINE",
"78 130 LINE",
"78 -12 LINE",
"571 200 LINE",
"571 299 LINE"
);
}
);
width = 638;
}
);
unicode = "003E,E925";
},
{
color = (255,255,153,255);
glyphname = question;
layers = (
{
guideLines = (
{
position = "{0, 293}";
}
);
layerId = "30D4BC2E-225F-4273-AE59-0FC741A5E71E";
paths = (
{
closed = 1;
nodes = (
"184 183 OFFCURVE",
"140 140 OFFCURVE",
"140 86 CURVE SMOOTH",
"140 32 OFFCURVE",
"184 -12 OFFCURVE",
"237 -12 CURVE SMOOTH",
"291 -12 OFFCURVE",
"335 32 OFFCURVE",
"335 86 CURVE SMOOTH",
"335 140 OFFCURVE",
"291 183 OFFCURVE",
"237 183 CURVE SMOOTH"
);
},
{
closed = 1;
nodes = (
"243 680 OFFCURVE",
"142 642 OFFCURVE",
"85 541 CURVE",
"223 486 LINE",
"241 529 OFFCURVE",
"292 552 OFFCURVE",
"356 552 CURVE SMOOTH",
"416 552 OFFCURVE",
"450 535 OFFCURVE",
"448 497 CURVE SMOOTH",
"446 457 OFFCURVE",
"376 434 OFFCURVE",
"326 411 CURVE SMOOTH",
"251 377 OFFCURVE",
"195 322 OFFCURVE",
"185 243 CURVE",
"346 243 LINE",
"366 295 OFFCURVE",
"399 316 OFFCURVE",
"468 345 CURVE SMOOTH",
"538 375 OFFCURVE",
"604 413 OFFCURVE",
"620 499 CURVE SMOOTH",
"645 634 OFFCURVE",
"500 680 OFFCURVE",
"368 680 CURVE SMOOTH"
);
}
);
width = 634;
}
);
unicode = "003F,E926";
},
{
color = (255,255,153,255);
glyphname = at;
layers = (
{
layerId = "30D4BC2E-225F-4273-AE59-0FC741A5E71E";
paths = (
{
closed = 1;
nodes = (
"199 680 OFFCURVE",
"44 524 OFFCURVE",
"44 333 CURVE SMOOTH",
"44 143 OFFCURVE",
"199 -12 OFFCURVE",
"389 -12 CURVE SMOOTH",
"437 -12 OFFCURVE",
"484 -2 OFFCURVE",
"525 16 CURVE",
"525 94 LINE",
"483 70 OFFCURVE",
"440 58 OFFCURVE",
"389 58 CURVE SMOOTH",
"238 58 OFFCURVE",
"113 180 OFFCURVE",
"113 333 CURVE SMOOTH",
"113 484 OFFCURVE",
"235 610 OFFCURVE",
"389 610 CURVE SMOOTH",
"460 610 OFFCURVE",
"528 583 OFFCURVE",
"580 533 CURVE SMOOTH",
"676 440 OFFCURVE",
"670 277 OFFCURVE",
"591 239 CURVE SMOOTH",
"557 223 OFFCURVE",
"488 221 OFFCURVE",
"508 312 CURVE",
"520 372 OFFCURVE",
"548 498 OFFCURVE",
"548 498 CURVE",
"427 541 OFFCURVE",
"233 531 OFFCURVE",
"189 317 CURVE SMOOTH",
"154 148 OFFCURVE",
"337 97 OFFCURVE",
"433 224 CURVE",
"463 114 OFFCURVE",
"688 121 OFFCURVE",
"719 316 CURVE SMOOTH",
"754 536 OFFCURVE",
"562 680 OFFCURVE",
"389 680 CURVE SMOOTH"
);
},
{
closed = 1;
nodes = (
"391 229 OFFCURVE",
"266 220 OFFCURVE",
"287 319 CURVE",
"312 429 OFFCURVE",
"386 433 OFFCURVE",
"432 425 CURVE",
"432 425 OFFCURVE",
"432 422 OFFCURVE",
"414 339 CURVE SMOOTH"
);
}
);
width = 757;
}
);
leftMetricsKey = O;
rightMetricsKey = O;
unicode = "0040,E92C";
},
{
color = (255,255,153,255);
glyphname = colon;
layers = (
{
layerId = "30D4BC2E-225F-4273-AE59-0FC741A5E71E";
paths = (
{
closed = 1;
nodes = (
"35 183 OFFCURVE",
"-9 140 OFFCURVE",
"-9 86 CURVE SMOOTH",
"-9 32 OFFCURVE",
"35 -12 OFFCURVE",
"89 -12 CURVE SMOOTH",
"142 -12 OFFCURVE",
"186 32 OFFCURVE",
"186 86 CURVE SMOOTH",
"186 140 OFFCURVE",
"142 183 OFFCURVE",
"89 183 CURVE SMOOTH"
);
},
{
closed = 1;
nodes = (
"105 511 OFFCURVE",
"61 467 OFFCURVE",
"61 413 CURVE SMOOTH",
"61 360 OFFCURVE",
"105 316 OFFCURVE",
"159 316 CURVE SMOOTH",
"213 316 OFFCURVE",
"256 360 OFFCURVE",
"256 413 CURVE SMOOTH",
"256 467 OFFCURVE",
"213 511 OFFCURVE",
"159 511 CURVE SMOOTH"
);
}
);
width = 281;
}
);
leftKerningGroup = colon;
rightKerningGroup = colon_2;
unicode = "003A,E921";
},
{
color = (255,255,153,255);
glyphname = semicolon;
layers = (
{
layerId = "30D4BC2E-225F-4273-AE59-0FC741A5E71E";
paths = (
{
closed = 1;
nodes = (
"106 511 OFFCURVE",
"62 467 OFFCURVE",
"62 413 CURVE SMOOTH",
"62 360 OFFCURVE",
"106 316 OFFCURVE",
"159 316 CURVE SMOOTH",
"213 316 OFFCURVE",
"257 360 OFFCURVE",
"257 413 CURVE SMOOTH",
"257 467 OFFCURVE",
"213 511 OFFCURVE",
"159 511 CURVE SMOOTH"
);
},
{
closed = 1;
nodes = (
"54 192 OFFCURVE",
"3 157 OFFCURVE",
"-7 104 CURVE SMOOTH",
"-16 59 OFFCURVE",
"9 15 OFFCURVE",
"49 -3 CURVE",
"-40 -146 LINE",
"59 -146 LINE",
"172 34 LINE SMOOTH",
"178 44 OFFCURVE",
"182 55 OFFCURVE",
"185 68 CURVE SMOOTH",
"197 121 OFFCURVE",
"160 172 OFFCURVE",
"107 182 CURVE SMOOTH"
);
}
);
width = 282;
}
);
leftKerningGroup = colon;
rightKerningGroup = colon_2;
unicode = "003B,E922";
},
{
color = (255,255,153,255);
glyphname = bracketleft;
layers = (
{
layerId = "30D4BC2E-225F-4273-AE59-0FC741A5E71E";
paths = (
{
closed = 1;
nodes = (
"353 552 LINE",
"378 668 LINE",
"119 668 LINE",
"-57 -161 LINE",
"202 -161 LINE",
"227 -46 LINE",
"99 -46 LINE",
"226 552 LINE"
);
}
);
width = 340;
}
);
leftMetricsKey = N;
unicode = "005B,E927";
},
{
glyphname = backslash;
layers = (
{
layerId = "30D4BC2E-225F-4273-AE59-0FC741A5E71E";
paths = (
{
closed = 1;
nodes = (
"240 668 LINE",
"87 668 LINE",
"348 0 LINE",
"499 0 LINE"
);
}
);
width = 584;
}
);
unicode = "005C,E928";
},
{
color = (255,255,153,255);
glyphname = bracketright;
layers = (
{
layerId = "30D4BC2E-225F-4273-AE59-0FC741A5E71E";
paths = (
{
closed = 1;
nodes = (
"105 668 LINE",
"81 552 LINE",
"209 552 LINE",
"82 -46 LINE",
"-46 -46 LINE",
"-71 -161 LINE",
"188 -161 LINE",
"364 668 LINE"
);
}
);
width = 342;
}
);
rightMetricsKey = N;
unicode = "005D,E929";
},
{
glyphname = asciicircum;
layers = (
{
layerId = "30D4BC2E-225F-4273-AE59-0FC741A5E71E";
paths = (
{
closed = 1;
nodes = (
"347 668 LINE",
"234 668 LINE",
"49 312 LINE",
"192 312 LINE",
"291 506 LINE",
"389 312 LINE",
"532 312 LINE"
);
}
);
width = 589;
}
);
unicode = "005E,E92A";
},
{
color = (255,153,254,255);
glyphname = underscore;
layers = (
{
layerId = "30D4BC2E-225F-4273-AE59-0FC741A5E71E";
paths = (
{
closed = 1;
nodes = (
"380 -128 LINE",
"380 0 LINE",
"-30 0 LINE",
"-30 -128 LINE"
);
}
);
width = 457;
}
);
unicode = "005F,E92B";
},
{
color = (153,254,255,255);
glyphname = grave;
layers = (
{
layerId = "30D4BC2E-225F-4273-AE59-0FC741A5E71E";
paths = (
{
closed = 1;
nodes = (
"207 730 OFFCURVE",
"172 734 OFFCURVE",
"148 714 CURVE SMOOTH",
"124 694 OFFCURVE",
"120 660 OFFCURVE",
"139 635 CURVE",
"156 615 OFFCURVE",
"206 574 OFFCURVE",
"206 574 CURVE",
"314 574 LINE",
"314 574 OFFCURVE",
"251 674 OFFCURVE",
"226 706 CURVE SMOOTH"
);
}
);
width = 315;
}
);
unicode = "0060,E932";
},
{
color = (255,255,153,255);
glyphname = exclam;
layers = (
{
layerId = "30D4BC2E-225F-4273-AE59-0FC741A5E71E";
paths = (
{
closed = 1;
nodes = (
"150 -12 OFFCURVE",
"194 32 OFFCURVE",
"194 86 CURVE SMOOTH",
"194 140 OFFCURVE",
"150 184 OFFCURVE",
"97 184 CURVE SMOOTH",
"43 184 OFFCURVE",
"-1 140 OFFCURVE",
"-1 86 CURVE SMOOTH",
"-1 32 OFFCURVE",
"43 -12 OFFCURVE",
"97 -12 CURVE SMOOTH"
);
},
{
closed = 1;
nodes = (
"120 668 LINE",
"83 496 LINE",
"71 243 LINE",
"186 243 LINE",
"281 496 LINE",
"318 668 LINE"
);
}
);
width = 297;
}
);
leftMetricsKey = N;
rightMetricsKey = N;
unicode = "0021,E90F";
},
{
glyphname = quotedbl;
layers = (
{
layerId = "30D4BC2E-225F-4273-AE59-0FC741A5E71E";
paths = (
{
closed = 1;
nodes = (
"102 668 LINE",
"116 434 LINE",
"230 434 LINE",
"244 668 LINE"
);
},
{
closed = 1;
nodes = (
"290 668 LINE",
"305 434 LINE",
"418 434 LINE",
"432 668 LINE"
);
}
);
width = 444;
}
);
leftKerningGroup = quotesingle;
rightKerningGroup = quotesingle_2;
unicode = "0022,E911";
},
{
glyphname = numbersign;
layers = (
{
layerId = "30D4BC2E-225F-4273-AE59-0FC741A5E71E";
paths = (
{
closed = 1;
nodes = (
"723 402 LINE",
"744 541 LINE",
"615 541 LINE",
"634 668 LINE",
"493 668 LINE",
"474 541 LINE",
"337 541 LINE",
"356 668 LINE",
"216 668 LINE",
"197 541 LINE",
"69 541 LINE",
"49 401 LINE",
"177 401 LINE",
"157 266 LINE",
"29 266 LINE",
"9 127 LINE",
"137 127 LINE",
"119 0 LINE",
"260 0 LINE",
"278 127 LINE",
"414 127 LINE",
"396 0 LINE",
"537 0 LINE",
"555 127 LINE",
"684 127 LINE",
"704 267 LINE",
"576 267 LINE",
"595 402 LINE"
);
},
{
closed = 1;
nodes = (
"435 267 LINE",
"298 267 LINE",
"317 401 LINE",
"454 401 LINE"
);
}
);
width = 752;
}
);
leftMetricsKey = o;
rightMetricsKey = o;
unicode = "0023,E913";
},
{
color = (255,255,153,255);
glyphname = dollar;
layers = (
{
layerId = "30D4BC2E-225F-4273-AE59-0FC741A5E71E";
paths = (
{
closed = 1;
nodes = (
"397 538 LINE",
"422 527 OFFCURVE",
"443 509 OFFCURVE",
"452 484 CURVE",
"607 536 LINE",
"566 613 OFFCURVE",
"498 654 OFFCURVE",
"425 671 CURVE",
"441 747 LINE",
"366 747 LINE",
"352 680 LINE",
"171 680 OFFCURVE",
"75 602 OFFCURVE",
"63 505 CURVE SMOOTH",
"45 359 OFFCURVE",
"161 314 OFFCURVE",
"266 280 CURVE",
"235 130 LINE",
"201 145 OFFCURVE",
"173 171 OFFCURVE",
"165 210 CURVE",
"10 157 LINE",
"41 77 OFFCURVE",
"111 22 OFFCURVE",
"207 -1 CURVE",
"188 -86 LINE",
"264 -86 LINE",
"280 -11 LINE",
"448 -20 OFFCURVE",
"578 58 OFFCURVE",
"588 187 CURVE",
"601 332 OFFCURVE",
"474 367 OFFCURVE",
"367 398 CURVE"
);
},
{
closed = 1;
nodes = (
"224 526 OFFCURVE",
"259 550 OFFCURVE",
"324 552 CURVE",
"296 421 LINE",
"254 437 OFFCURVE",
"224 457 OFFCURVE",
"224 493 CURVE SMOOTH"
);
},
{
closed = 1;
nodes = (
"337 256 LINE",
"388 238 OFFCURVE",
"425 217 OFFCURVE",
"425 179 CURVE SMOOTH",
"425 137 OFFCURVE",
"368 113 OFFCURVE",
"307 115 CURVE"
);
}
);
width = 644;
}
);
leftMetricsKey = S;
rightMetricsKey = S;
unicode = "0024,E914";
},
{
color = (255,255,153,255);
glyphname = percent;
layers = (
{
layerId = "30D4BC2E-225F-4273-AE59-0FC741A5E71E";
paths = (
{
closed = 1;
nodes = (
"694 668 LINE",
"227 0 LINE",
"353 0 LINE",
"821 668 LINE"
);
},
{
closed = 1;
nodes = (
"703 382 OFFCURVE",
"605 294 OFFCURVE",
"594 185 CURVE SMOOTH",
"583 76 OFFCURVE",
"661 -12 OFFCURVE",
"770 -12 CURVE SMOOTH",
"879 -12 OFFCURVE",
"977 76 OFFCURVE",
"988 185 CURVE SMOOTH",
"999 294 OFFCURVE",
"921 382 OFFCURVE",
"812 382 CURVE SMOOTH"
);
},
{
closed = 1;
nodes = (
"865 141 OFFCURVE",
"826 107 OFFCURVE",
"783 107 CURVE SMOOTH",
"739 107 OFFCURVE",
"708 141 OFFCURVE",
"712 185 CURVE SMOOTH",
"716 228 OFFCURVE",
"756 263 OFFCURVE",
"799 263 CURVE SMOOTH",
"843 263 OFFCURVE",
"874 228 OFFCURVE",
"870 185 CURVE SMOOTH"
);
},
{
closed = 1;
nodes = (
"464 592 OFFCURVE",
"385 680 OFFCURVE",
"276 680 CURVE SMOOTH",
"167 680 OFFCURVE",
"70 592 OFFCURVE",
"58 483 CURVE SMOOTH",
"46 374 OFFCURVE",
"126 286 OFFCURVE",
"235 286 CURVE SMOOTH",
"344 286 OFFCURVE",
"441 374 OFFCURVE",
"453 483 CURVE SMOOTH"
);
},
{
closed = 1;
nodes = (
"181 526 OFFCURVE",
"220 561 OFFCURVE",
"264 561 CURVE SMOOTH",
"307 561 OFFCURVE",
"339 526 OFFCURVE",
"334 483 CURVE SMOOTH",
"329 439 OFFCURVE",
"291 405 OFFCURVE",
"247 405 CURVE SMOOTH",
"204 405 OFFCURVE",
"172 439 OFFCURVE",
"177 483 CURVE SMOOTH"
);
}
);
width = 1044;
}
);
leftKerningGroup = percent;
leftMetricsKey = o;
rightMetricsKey = o;
unicode = "0025,E915";
},
{
color = (255,255,153,255);
glyphname = ampersand;
layers = (
{
guideLines = (
{
position = "{0, 706}";
}
);
layerId = "30D4BC2E-225F-4273-AE59-0FC741A5E71E";
paths = (
{
closed = 1;
nodes = (
"550 389 LINE",
"526 332 OFFCURVE",
"492 283 OFFCURVE",
"452 244 CURVE",
"384 348 LINE",
"489 398 OFFCURVE",
"535 475 OFFCURVE",
"535 544 CURVE SMOOTH",
"535 636 OFFCURVE",
"457 706 OFFCURVE",
"354 706 CURVE",
"229 706 OFFCURVE",
"140 629 OFFCURVE",
"140 521 CURVE SMOOTH",
"140 477 OFFCURVE",
"154 431 OFFCURVE",
"182 389 CURVE",
"-176 250 OFFCURVE",
"23 -168 OFFCURVE",
"408 53 CURVE",
"443 0 LINE",
"609 0 LINE",
"516 146 LINE",
"581 204 OFFCURVE",
"639 290 OFFCURVE",
"677 389 CURVE"
);
},
{
closed = 1;
nodes = (
"153 116 OFFCURVE",
"108 246 OFFCURVE",
"248 290 CURVE",
"344 147 LINE",
"302 124 OFFCURVE",
"275 116 OFFCURVE",
"240 116 CURVE"
);
},
{
closed = 1;
nodes = (
"243 527 OFFCURVE",
"282 590 OFFCURVE",
"349 592 CURVE SMOOTH",
"414 594 OFFCURVE",
"452 497 OFFCURVE",
"327 437 CURVE"
);
}
);
width = 684;
}
);
leftMetricsKey = c;
rightMetricsKey = k;
unicode = "0026,E916";
},
{
color = (255,153,254,255);
glyphname = quotesingle;
layers = (
{
layerId = "30D4BC2E-225F-4273-AE59-0FC741A5E71E";
paths = (
{
closed = 1;
nodes = (
"89 668 LINE",
"103 434 LINE",
"217 434 LINE",
"231 668 LINE"
);
}
);
width = 258;
}
);
leftKerningGroup = quotesingle;
rightKerningGroup = quotesingle_2;
unicode = "0027,E917";
},
{
color = (255,255,153,255);
glyphname = parenleft;
layers = (
{
layerId = "30D4BC2E-225F-4273-AE59-0FC741A5E71E";
paths = (
{
closed = 1;
nodes = (
"237 669 LINE",
"36 445 OFFCURVE",
"-63 205 OFFCURVE",
"90 -161 CURVE",
"239 -161 LINE",
"89 159 OFFCURVE",
"162 395 OFFCURVE",
"388 669 CURVE"
);
}
);
width = 378;
}
);
leftMetricsKey = O;
unicode = "0028,E918";
},
{
color = (255,255,153,255);
glyphname = parenright;
layers = (
{
layerId = "30D4BC2E-225F-4273-AE59-0FC741A5E71E";
paths = (
{
closed = 1;
nodes = (
"107 669 LINE",
"257 349 OFFCURVE",
"184 113 OFFCURVE",
"-42 -161 CURVE",
"109 -161 LINE",
"310 63 OFFCURVE",
"410 303 OFFCURVE",
"256 669 CURVE"
);
}
);
width = 378;
}
);
rightMetricsKey = O;
unicode = "0029,E919";
},
{
color = (255,153,254,255);
glyphname = asterisk;
layers = (
{
layerId = "30D4BC2E-225F-4273-AE59-0FC741A5E71E";
paths = (
{
closed = 1;
nodes = (
"402 475 LINE",
"392 562 LINE",
"293 551 LINE",
"314 650 LINE",
"228 668 LINE",
"207 569 LINE",
"120 619 LINE",
"76 544 LINE",
"164 494 LINE",
"89 426 LINE",
"148 361 LINE",
"222 428 LINE",
"263 336 LINE",
"343 372 LINE",
"302 464 LINE"
);
}
);
width = 444;
}
);
leftMetricsKey = "=u-20";
rightMetricsKey = "=u+20";
unicode = "002A,E91A";
},
{
color = (153,254,255,255);
glyphname = plus;
layers = (
{
layerId = "30D4BC2E-225F-4273-AE59-0FC741A5E71E";
paths = (
{
closed = 1;
nodes = (
"359 312 LINE",
"359 496 LINE",
"231 496 LINE",
"231 312 LINE",
"39 312 LINE",
"39 184 LINE",
"231 184 LINE",
"231 0 LINE",
"359 0 LINE",
"359 184 LINE",
"551 184 LINE",
"551 312 LINE"
);
}
);
width = 645;
}
);
unicode = "002B,E91B";
},
{
color = (255,255,153,255);
glyphname = comma;
layers = (
{
layerId = "30D4BC2E-225F-4273-AE59-0FC741A5E71E";
paths = (
{
closed = 1;
nodes = (
"54 191 OFFCURVE",
"3 156 OFFCURVE",
"-7 103 CURVE SMOOTH",
"-16 58 OFFCURVE",
"9 14 OFFCURVE",
"49 -4 CURVE",
"-40 -146 LINE",
"59 -146 LINE",
"172 33 LINE SMOOTH",
"178 43 OFFCURVE",
"182 55 OFFCURVE",
"185 67 CURVE SMOOTH",
"198 119 OFFCURVE",
"160 171 OFFCURVE",
"107 181 CURVE SMOOTH"
);
}
);
width = 282;
}
);
leftKerningGroup = period;
rightKerningGroup = period_2;
unicode = "002C,E91C";
},
{
color = (153,254,255,255);
glyphname = hyphen;
layers = (
{
layerId = "30D4BC2E-225F-4273-AE59-0FC741A5E71E";
paths = (
{
closed = 1;
nodes = (
"336 184 LINE",
"364 313 LINE",
"38 313 LINE",
"10 184 LINE"
);
}
);
width = 408;
}
);
leftKerningGroup = hyphen;
rightKerningGroup = hyphen_2;
unicode = "002D,E91D";
},
{
glyphname = period;
layers = (
{
layerId = "30D4BC2E-225F-4273-AE59-0FC741A5E71E";
paths = (
{
closed = 1;
nodes = (
"142 -12 OFFCURVE",
"186 32 OFFCURVE",
"186 86 CURVE SMOOTH",
"186 140 OFFCURVE",
"142 183 OFFCURVE",
"89 183 CURVE SMOOTH",
"35 183 OFFCURVE",
"-9 140 OFFCURVE",
"-9 86 CURVE SMOOTH",
"-9 32 OFFCURVE",
"35 -12 OFFCURVE",
"89 -12 CURVE SMOOTH"
);
}
);
width = 281;
}
);
leftKerningGroup = period;
rightKerningGroup = period_2;
unicode = "002E,E91E";
},
{
glyphname = slash;
layers = (
{
layerId = "30D4BC2E-225F-4273-AE59-0FC741A5E71E";
paths = (
{
closed = 1;
nodes = (
"-55 0 LINE",
"98 0 LINE",
"499 668 LINE",
"348 668 LINE"
);
}
);
width = 442;
}
);
unicode = "002F,E91F";
},
{
color = (255,255,153,255);
glyphname = braceleft;
layers = (
{
layerId = "30D4BC2E-225F-4273-AE59-0FC741A5E71E";
paths = (
{
closed = 1;
nodes = (
"356 667 LINE SMOOTH",
"239 667 OFFCURVE",
"166 659 OFFCURVE",
"132 505 CURVE SMOOTH",
"111 409 LINE SMOOTH",
"99 352 OFFCURVE",
"83 315 OFFCURVE",
"21 315 CURVE",
"-5 192 LINE",
"57 192 OFFCURVE",
"58 155 OFFCURVE",
"45 97 CURVE SMOOTH",
"24 1 LINE",
"4 -97 OFFCURVE",
"50 -162 OFFCURVE",
"181 -162 CURVE SMOOTH",
"235 -162 LINE",
"261 -42 LINE",
"227 -42 LINE SMOOTH",
"185 -42 OFFCURVE",
"163 -35 OFFCURVE",
"171 2 CURVE SMOOTH",
"198 127 LINE SMOOTH",
"216 212 OFFCURVE",
"177 239 OFFCURVE",
"131 252 CURVE",
"132 255 LINE",
"183 268 OFFCURVE",
"233 296 OFFCURVE",
"252 380 CURVE",
"278 503 LINE SMOOTH",
"286 540 OFFCURVE",
"309 548 OFFCURVE",
"352 548 CURVE SMOOTH",
"385 548 LINE",
"411 667 LINE"
);
}
);
width = 374;
}
);
leftMetricsKey = o;
unicode = "007B,E92D";
},
{
color = (255,153,254,255);
glyphname = bar;
layers = (
{
layerId = "30D4BC2E-225F-4273-AE59-0FC741A5E71E";
paths = (
{
closed = 1;
nodes = (
"233 -161 LINE",
"233 668 LINE",
"87 668 LINE",
"87 -161 LINE"
);
}
);
width = 352;
}
);
unicode = "007C,E92E";
},
{
color = (255,255,153,255);
glyphname = braceright;
layers = (
{
layerId = "30D4BC2E-225F-4273-AE59-0FC741A5E71E";
paths = (
{
closed = 1;
nodes = (
"316 505 LINE SMOOTH",
"336 603 OFFCURVE",
"291 667 OFFCURVE",
"161 667 CURVE SMOOTH",
"106 667 LINE",
"81 548 LINE",
"115 548 LINE SMOOTH",
"157 548 OFFCURVE",
"179 541 OFFCURVE",
"171 503 CURVE SMOOTH",
"144 379 LINE SMOOTH",
"126 295 OFFCURVE",
"165 268 OFFCURVE",
"211 255 CURVE",
"210 252 LINE",
"159 239 OFFCURVE",
"108 211 OFFCURVE",
"90 126 CURVE SMOOTH",
"64 2 LINE SMOOTH",
"56 -34 OFFCURVE",
"32 -42 OFFCURVE",
"-11 -42 CURVE SMOOTH",
"-45 -42 LINE",
"-70 -162 LINE",
"-16 -162 LINE SMOOTH",
"103 -162 OFFCURVE",
"178 -153 OFFCURVE",
"210 1 CURVE SMOOTH",
"229 97 LINE SMOOTH",
"241 154 OFFCURVE",
"258 192 OFFCURVE",
"320 192 CURVE",
"346 315 LINE",
"284 315 OFFCURVE",
"284 351 OFFCURVE",
"296 409 CURVE SMOOTH"
);
}
);
width = 374;
}
);
rightMetricsKey = o;
unicode = "007D,E92F";
},
{
color = (153,254,255,255);
glyphname = asciitilde;
layers = (
{
layerId = "30D4BC2E-225F-4273-AE59-0FC741A5E71E";
paths = (
{
closed = 1;
nodes = (
"396 370 LINE",
"386 304 OFFCURVE",
"362 290 OFFCURVE",
"339 290 CURVE SMOOTH",
"291 290 OFFCURVE",
"255 350 OFFCURVE",
"180 350 CURVE SMOOTH",
"85 350 OFFCURVE",
"38 287 OFFCURVE",
"9 184 CURVE",
"106 146 LINE",
"117 214 OFFCURVE",
"140 227 OFFCURVE",
"164 227 CURVE SMOOTH",
"221 227 OFFCURVE",
"254 167 OFFCURVE",
"324 167 CURVE SMOOTH",
"418 167 OFFCURVE",
"465 230 OFFCURVE",
"494 333 CURVE"
);
}
);
width = 533;
}
);
unicode = "007E,E930";
},
{
color = (153,254,255,255);
glyphname = exclamdown;
layers = (
{
layerId = "30D4BC2E-225F-4273-AE59-0FC741A5E71E";
paths = (
{
closed = 1;
nodes = (
"113 518 OFFCURVE",
"69 474 OFFCURVE",
"69 420 CURVE SMOOTH",
"69 366 OFFCURVE",
"113 324 OFFCURVE",
"166 324 CURVE SMOOTH",
"220 324 OFFCURVE",
"263 366 OFFCURVE",
"263 420 CURVE SMOOTH",
"263 474 OFFCURVE",
"220 518 OFFCURVE",
"166 518 CURVE SMOOTH"
);
},
{
closed = 1;
nodes = (
"-18 11 LINE",
"-55 -162 LINE",
"143 -162 LINE",
"180 11 LINE",
"192 264 LINE",
"77 264 LINE"
);
}
);
width = 297;
}
);
leftMetricsKey = exclam;
rightMetricsKey = exclam;
unicode = "00A1,E931";
},
{
color = (153,254,255,255);
glyphname = cent;
layers = (
{
layerId = "30D4BC2E-225F-4273-AE59-0FC741A5E71E";
paths = (
{
closed = 1;
nodes = (
"330 388 LINE",
"354 382 OFFCURVE",
"371 366 OFFCURVE",
"379 335 CURVE",
"512 381 LINE",
"481 463 OFFCURVE",
"425 498 OFFCURVE",
"355 507 CURVE",
"369 571 LINE",
"296 571 LINE",
"283 508 LINE",
"139 495 OFFCURVE",
"36 399 OFFCURVE",
"8 251 CURVE",
"-16 116 OFFCURVE",
"45 14 OFFCURVE",
"173 -8 CURVE",
"156 -87 LINE",
"230 -87 LINE",
"246 -12 LINE",
"324 -7 OFFCURVE",
"406 24 OFFCURVE",
"465 107 CURVE",
"342 155 LINE",
"320 127 OFFCURVE",
"298 114 OFFCURVE",
"271 109 CURVE"
);
},
{
closed = 1;
nodes = (
"199 114 LINE",
"166 130 OFFCURVE",
"147 171 OFFCURVE",
"163 250 CURVE SMOOTH",
"179 327 OFFCURVE",
"216 366 OFFCURVE",
"256 383 CURVE"
);
}
);
width = 532;
}
);
leftMetricsKey = c;
rightMetricsKey = c;
unicode = "00A2,E933";
},
{
color = (153,254,255,255);
glyphname = sterling;
layers = (
{
layerId = "30D4BC2E-225F-4273-AE59-0FC741A5E71E";
paths = (
{
closed = 1;
nodes = (
"365 113 OFFCURVE",
"319 134 OFFCURVE",
"269 134 CURVE SMOOTH",
"241 134 OFFCURVE",
"212 133 OFFCURVE",
"181 117 CURVE",
"281 173 OFFCURVE",
"325 247 OFFCURVE",
"316 295 CURVE",
"443 295 LINE",
"458 368 LINE",
"298 368 LINE",
"243 493 OFFCURVE",
"275 556 OFFCURVE",
"374 556 CURVE SMOOTH",
"423 556 OFFCURVE",
"456 538 OFFCURVE",
"485 487 CURVE",
"632 537 LINE",
"588 630 OFFCURVE",
"505 679 OFFCURVE",
"388 679 CURVE SMOOTH",
"265 679 OFFCURVE",
"133 628 OFFCURVE",
"115 507 CURVE SMOOTH",
"108 457 OFFCURVE",
"121 409 OFFCURVE",
"133 368 CURVE",
"58 368 LINE",
"43 295 LINE",
"156 295 LINE",
"168 242 OFFCURVE",
"127 158 OFFCURVE",
"2 104 CURVE",
"33 -12 LINE",
"98 20 OFFCURVE",
"146 24 OFFCURVE",
"175 24 CURVE SMOOTH",
"241 24 OFFCURVE",
"297 -12 OFFCURVE",
"367 -12 CURVE SMOOTH",
"432 -12 OFFCURVE",
"484 0 OFFCURVE",
"535 23 CURVE",
"517 144 LINE",
"479 124 OFFCURVE",
"443 113 OFFCURVE",
"407 113 CURVE SMOOTH"
);
}
);
width = 618;
}
);
leftMetricsKey = l;
rightMetricsKey = R;
unicode = "00A3,E934";
},
{
color = (153,254,255,255);
glyphname = currency;
layers = (
{
layerId = "30D4BC2E-225F-4273-AE59-0FC741A5E71E";
paths = (
{
closed = 1;
nodes = (
"555 367 OFFCURVE",
"541 410 OFFCURVE",
"515 446 CURVE",
"582 513 LINE",
"530 565 LINE",
"463 498 LINE",
"427 524 OFFCURVE",
"385 539 OFFCURVE",
"337 539 CURVE SMOOTH",
"290 539 OFFCURVE",
"247 524 OFFCURVE",
"211 498 CURVE",
"144 565 LINE",
"92 513 LINE",
"159 446 LINE",
"133 410 OFFCURVE",
"118 367 OFFCURVE",
"118 321 CURVE SMOOTH",
"118 273 OFFCURVE",
"133 230 OFFCURVE",
"159 194 CURVE",
"92 127 LINE",
"144 75 LINE",
"211 142 LINE",
"247 116 OFFCURVE",
"290 102 OFFCURVE",
"337 102 CURVE SMOOTH",
"385 102 OFFCURVE",
"427 116 OFFCURVE",
"463 142 CURVE",
"530 75 LINE",
"582 127 LINE",
"515 194 LINE",
"540 230 OFFCURVE",
"555 273 OFFCURVE",
"555 321 CURVE SMOOTH"
);
},
{
closed = 1;
nodes = (
"282 221 OFFCURVE",
"238 266 OFFCURVE",
"238 321 CURVE SMOOTH",
"238 375 OFFCURVE",
"282 419 OFFCURVE",
"337 419 CURVE SMOOTH",
"391 419 OFFCURVE",
"436 375 OFFCURVE",
"436 321 CURVE SMOOTH",
"436 266 OFFCURVE",
"391 221 OFFCURVE",
"337 221 CURVE SMOOTH"
);
}
);
width = 678;
}
);
unicode = "00A4,E935";
},
{
color = (153,254,255,255);
glyphname = yen;
layers = (
{
layerId = "30D4BC2E-225F-4273-AE59-0FC741A5E71E";
paths = (
{
closed = 1;
nodes = (
"762 667 LINE",
"558 667 LINE",
"339 390 LINE",
"253 667 LINE",
"82 667 LINE",
"225 286 LINE",
"128 286 LINE",
"112 212 LINE",
"236 212 LINE",
"222 148 LINE",
"99 148 LINE",
"83 75 LINE",
"207 75 LINE",
"191 0 LINE",
"354 0 LINE",
"370 75 LINE",
"499 75 LINE",
"515 148 LINE",
"385 148 LINE",
"398 212 LINE",
"528 212 LINE",
"544 286 LINE",
"442 286 LINE"
);
}
);
width = 700;
}
);
leftMetricsKey = Y;
rightMetricsKey = Y;
unicode = "00A5,E936";
},
{
color = (255,153,254,255);
glyphname = brokenbar;
layers = (
{
layerId = "30D4BC2E-225F-4273-AE59-0FC741A5E71E";
paths = (
{
closed = 1;
nodes = (
"215 -161 LINE",
"215 150 LINE",
"87 150 LINE",
"87 -161 LINE"
);
},
{
closed = 1;
nodes = (
"215 358 LINE",
"215 668 LINE",
"87 668 LINE",
"87 358 LINE"
);
}
);
width = 334;
}
);
unicode = "00A6,E937";
},
{
color = (153,254,255,255);
glyphname = section;
layers = (
{
layerId = "30D4BC2E-225F-4273-AE59-0FC741A5E71E";
paths = (
{
closed = 1;
nodes = (
"340 473 OFFCURVE",
"297 495 OFFCURVE",
"299 525 CURVE SMOOTH",
"302 571 OFFCURVE",
"416 577 OFFCURVE",
"432 532 CURVE",
"571 578 LINE",
"538 654 OFFCURVE",
"458 679 OFFCURVE",
"371 679 CURVE SMOOTH",
"185 679 OFFCURVE",
"118 530 OFFCURVE",
"159 429 CURVE",
"79 398 OFFCURVE",
"15 353 OFFCURVE",
"15 261 CURVE SMOOTH",
"15 187 OFFCURVE",
"80 144 OFFCURVE",
"112 120 CURVE SMOOTH",
"166 79 OFFCURVE",
"231 46 OFFCURVE",
"231 5 CURVE SMOOTH",
"231 -66 OFFCURVE",
"90 -79 OFFCURVE",
"81 -2 CURVE",
"-59 -49 LINE",
"-38 -130 OFFCURVE",
"42 -174 OFFCURVE",
"138 -174 CURVE SMOOTH",
"338 -174 OFFCURVE",
"423 7 OFFCURVE",
"375 97 CURVE",
"492 139 OFFCURVE",
"526 204 OFFCURVE",
"526 271 CURVE SMOOTH",
"526 348 OFFCURVE",
"439 397 OFFCURVE",
"407 422 CURVE SMOOTH"
);
},
{
closed = 1;
nodes = (
"303 178 OFFCURVE",
"222 239 OFFCURVE",
"198 257 CURVE SMOOTH",
"152 292 OFFCURVE",
"164 338 OFFCURVE",
"233 352 CURVE",
"233 352 OFFCURVE",
"304 299 OFFCURVE",
"325 284 CURVE SMOOTH",
"381 244 OFFCURVE",
"382 209 OFFCURVE",
"304 177 CURVE"
);
}
);
width = 563;
}
);
leftMetricsKey = s;
rightMetricsKey = s;
unicode = "00A7,E938";
},
{
glyphname = copyright;
layers = (
{
layerId = "30D4BC2E-225F-4273-AE59-0FC741A5E71E";
paths = (
{
closed = 1;
nodes = (
"445 437 OFFCURVE",
"469 425 OFFCURVE",
"481 394 CURVE",
"573 428 LINE",
"540 498 OFFCURVE",
"472 522 OFFCURVE",
"410 522 CURVE SMOOTH",
"302 522 OFFCURVE",
"227 447 OFFCURVE",
"227 334 CURVE SMOOTH",
"227 221 OFFCURVE",
"293 145 OFFCURVE",
"410 145 CURVE SMOOTH",
"468 145 OFFCURVE",
"535 167 OFFCURVE",
"572 231 CURVE",
"482 264 LINE",
"470 243 OFFCURVE",
"448 230 OFFCURVE",
"416 230 CURVE SMOOTH",
"378 230 OFFCURVE",
"339 256 OFFCURVE",
"339 334 CURVE SMOOTH",
"339 409 OFFCURVE",
"377 437 OFFCURVE",
"416 437 CURVE"
);
},
{
closed = 1;
nodes = (
"217 679 OFFCURVE",
"62 524 OFFCURVE",
"62 334 CURVE SMOOTH",
"62 143 OFFCURVE",
"217 -12 OFFCURVE",
"407 -12 CURVE SMOOTH",
"599 -12 OFFCURVE",
"754 143 OFFCURVE",
"754 334 CURVE SMOOTH",
"754 524 OFFCURVE",
"599 679 OFFCURVE",
"407 679 CURVE SMOOTH"
);
},
{
closed = 1;
nodes = (
"256 57 OFFCURVE",
"132 181 OFFCURVE",
"132 334 CURVE SMOOTH",
"132 486 OFFCURVE",
"256 610 OFFCURVE",
"407 610 CURVE SMOOTH",
"560 610 OFFCURVE",
"684 486 OFFCURVE",
"684 334 CURVE SMOOTH",
"684 181 OFFCURVE",
"560 57 OFFCURVE",
"407 57 CURVE SMOOTH"
);
}
);
width = 814;
}
);
unicode = "00A9,E93A";
},
{
color = (153,254,255,255);
glyphname = questiondown;
layers = (
{
layerId = "30D4BC2E-225F-4273-AE59-0FC741A5E71E";
paths = (
{
closed = 1;
nodes = (
"418 325 OFFCURVE",
"462 367 OFFCURVE",
"462 421 CURVE SMOOTH",
"462 475 OFFCURVE",
"418 519 OFFCURVE",
"364 519 CURVE SMOOTH",
"310 519 OFFCURVE",
"268 475 OFFCURVE",
"268 421 CURVE SMOOTH",
"268 367 OFFCURVE",
"310 325 OFFCURVE",
"364 325 CURVE SMOOTH"
);
},
{
closed = 1;
nodes = (
"379 21 LINE",
"360 -22 OFFCURVE",
"310 -45 OFFCURVE",
"247 -45 CURVE SMOOTH",
"185 -45 OFFCURVE",
"151 -28 OFFCURVE",
"154 10 CURVE",
"156 50 OFFCURVE",
"226 73 OFFCURVE",
"275 96 CURVE SMOOTH",
"350 130 OFFCURVE",
"407 186 OFFCURVE",
"417 265 CURVE",
"257 265 LINE",
"237 213 OFFCURVE",
"203 192 OFFCURVE",
"134 162 CURVE SMOOTH",
"63 131 OFFCURVE",
"-2 94 OFFCURVE",
"-18 8 CURVE SMOOTH",
"-43 -127 OFFCURVE",
"102 -173 OFFCURVE",
"235 -173 CURVE SMOOTH",
"358 -173 OFFCURVE",
"460 -135 OFFCURVE",
"517 -34 CURVE"
);
}
);
width = 634;
}
);
unicode = "00BF,E94E";
},
{
color = (153,254,255,255);
glyphname = grave.case;
layers = (
{
layerId = "30D4BC2E-225F-4273-AE59-0FC741A5E71E";
paths = (
{
closed = 1;
nodes = (
"275 731 LINE",
"275 731 OFFCURVE",
"213 832 OFFCURVE",
"187 863 CURVE SMOOTH",
"168 887 OFFCURVE",
"132 891 OFFCURVE",
"108 872 CURVE SMOOTH",
"84 853 OFFCURVE",
"82 817 OFFCURVE",
"101 793 CURVE SMOOTH",
"117 772 OFFCURVE",
"167 731 OFFCURVE",
"167 731 CURVE"
);
}
);
width = 240;
}
);
},
{
color = (153,254,255,255);
glyphname = acute.case;
layers = (
{
layerId = "30D4BC2E-225F-4273-AE59-0FC741A5E71E";
paths = (
{
closed = 1;
nodes = (
"367 805 OFFCURVE",
"370 839 OFFCURVE",
"351 863 CURVE SMOOTH",
"333 887 OFFCURVE",
"296 891 OFFCURVE",
"272 872 CURVE SMOOTH",
"271 871 OFFCURVE",
"129 731 OFFCURVE",
"129 731 CURVE",
"252 731 LINE",
"252 731 OFFCURVE",
"338 780 OFFCURVE",
"343 785 CURVE SMOOTH"
);
}
);
width = 199;
}
);
},
{
color = (153,254,255,255);
glyphname = circumflex.case;
layers = (
{
layerId = "30D4BC2E-225F-4273-AE59-0FC741A5E71E";
paths = (
{
closed = 1;
nodes = (
"233 731 LINE",
"86 731 LINE",
"275 868 LINE SMOOTH",
"304 890 OFFCURVE",
"347 888 OFFCURVE",
"374 858 CURVE SMOOTH",
"492 731 LINE",
"376 731 LINE",
"317 792 LINE"
);
}
);
width = 408;
}
);
},
{
color = (153,255,154,255);
glyphname = germandbls;
layers = (
{
layerId = "30D4BC2E-225F-4273-AE59-0FC741A5E71E";
paths = (
{
closed = 1;
nodes = (
"618 619 OFFCURVE",
"511 679 OFFCURVE",
"376 679 CURVE SMOOTH",
"205 679 OFFCURVE",
"109 617 OFFCURVE",
"70 435 CURVE SMOOTH",
"-23 0 LINE",
"134 0 LINE",
"224 424 LINE SMOOTH",
"247 533 OFFCURVE",
"285 566 OFFCURVE",
"365 566 CURVE SMOOTH",
"432 566 OFFCURVE",
"454 532 OFFCURVE",
"450 498 CURVE SMOOTH",
"444 449 OFFCURVE",
"400 415 OFFCURVE",
"328 415 CURVE SMOOTH",
"302 415 LINE",
"277 298 LINE",
"307 298 LINE SMOOTH",
"388 298 OFFCURVE",
"429 269 OFFCURVE",
"424 204 CURVE SMOOTH",
"418 124 OFFCURVE",
"344 94 OFFCURVE",
"241 123 CURVE",
"253 -11 LINE",
"402 -22 OFFCURVE",
"566 10 OFFCURVE",
"585 210 CURVE SMOOTH",
"592 285 OFFCURVE",
"563 345 OFFCURVE",
"516 368 CURVE",
"565 400 OFFCURVE",
"592 436 OFFCURVE",
"600 493 CURVE SMOOTH"
);
}
);
width = 642;
}
);
leftMetricsKey = B;
rightMetricsKey = B;
unicode = "00DF,E96C";
},
{
color = (153,255,154,255);
glyphname = AE;
layers = (
{
layerId = "30D4BC2E-225F-4273-AE59-0FC741A5E71E";
paths = (
{
closed = 1;
nodes = (
"1042 529 LINE",
"1071 668 LINE",
"553 668 LINE",
"-65 0 LINE",
"136 0 LINE",
"241 119 LINE",
"437 119 LINE",
"411 0 LINE",
"929 0 LINE",
"959 139 LINE",
"602 139 LINE",
"631 275 LINE",
"849 275 LINE",
"879 413 LINE",
"660 413 LINE",
"685 529 LINE"
);
},
{
closed = 1;
nodes = (
"464 247 LINE",
"354 247 LINE",
"501 421 LINE"
);
}
);
width = 1029;
}
);
leftMetricsKey = A;
rightKerningGroup = E;
rightMetricsKey = E;
unicode = "00C6,E953";
},
{
color = (153,255,154,255);
glyphname = florin;
layers = (
{
layerId = "30D4BC2E-225F-4273-AE59-0FC741A5E71E";
paths = (
{
closed = 1;
nodes = (
"419 608 LINE",
"445 729 LINE",
"376 729 LINE SMOOTH",
"242 729 OFFCURVE",
"178 695 OFFCURVE",
"153 578 CURVE SMOOTH",
"135 496 LINE",
"53 496 LINE",
"29 381 LINE",
"111 381 LINE",
"38 39 LINE",
"31 3 OFFCURVE",
"24 -14 OFFCURVE",
"2 -26 CURVE SMOOTH",
"-12 -34 OFFCURVE",
"-37 -35 OFFCURVE",
"-59 -31 CURVE",
"-87 -164 LINE",
"-41 -175 OFFCURVE",
"27 -175 OFFCURVE",
"62 -163 CURVE SMOOTH",
"115 -145 OFFCURVE",
"162 -95 OFFCURVE",
"179 -16 CURVE SMOOTH",
"263 381 LINE",
"371 381 LINE",
"395 496 LINE",
"287 496 LINE",
"302 564 LINE SMOOTH",
"310 601 OFFCURVE",
"323 608 OFFCURVE",
"377 608 CURVE SMOOTH"
);
}
);
width = 390;
}
);
leftMetricsKey = "=f+10";
rightMetricsKey = f;
unicode = "0192,E997";
},
{
glyphname = integral;
layers = (
{
layerId = "30D4BC2E-225F-4273-AE59-0FC741A5E71E";
paths = (
{
closed = 1;
nodes = (
"164 680 OFFCURVE",
"83 619 OFFCURVE",
"85 388 CURVE SMOOTH",
"86 292 OFFCURVE",
"93 48 OFFCURVE",
"93 2 CURVE SMOOTH",
"93 -60 OFFCURVE",
"86 -95 OFFCURVE",
"64 -105 CURVE",
"66 -99 OFFCURVE",
"67 -93 OFFCURVE",
"67 -86 CURVE SMOOTH",
"67 -55 OFFCURVE",
"42 -30 OFFCURVE",
"10 -30 CURVE SMOOTH",
"-20 -30 OFFCURVE",
"-45 -54 OFFCURVE",
"-46 -84 CURVE",
"-46 -131 OFFCURVE",
"9 -174 OFFCURVE",
"54 -174 CURVE SMOOTH",
"149 -174 OFFCURVE",
"230 -113 OFFCURVE",
"228 118 CURVE SMOOTH",
"227 215 OFFCURVE",
"220 458 OFFCURVE",
"220 504 CURVE SMOOTH",
"220 566 OFFCURVE",
"228 601 OFFCURVE",
"249 611 CURVE",
"247 605 OFFCURVE",
"246 599 OFFCURVE",
"246 592 CURVE SMOOTH",
"246 561 OFFCURVE",
"270 536 OFFCURVE",
"302 536 CURVE SMOOTH",
"332 536 OFFCURVE",
"357 560 OFFCURVE",
"358 590 CURVE",
"358 642 OFFCURVE",
"308 680 OFFCURVE",
"259 680 CURVE SMOOTH"
);
}
);
width = 344;
}
);
unicode = "222B,E9BF";
},
{
glyphname = approxequal;
layers = (
{
layerId = "30D4BC2E-225F-4273-AE59-0FC741A5E71E";
paths = (
{
closed = 1;
nodes = (
"294 182 OFFCURVE",
"246 243 OFFCURVE",
"170 243 CURVE SMOOTH",
"81 243 OFFCURVE",
"45 186 OFFCURVE",
"36 95 CURVE",
"140 57 LINE",
"141 108 OFFCURVE",
"159 118 OFFCURVE",
"180 118 CURVE SMOOTH",
"237 118 OFFCURVE",
"284 59 OFFCURVE",
"354 59 CURVE SMOOTH",
"442 59 OFFCURVE",
"477 114 OFFCURVE",
"486 206 CURVE",
"382 244 LINE",
"381 193 OFFCURVE",
"362 182 OFFCURVE",
"342 182 CURVE SMOOTH"
);
},
{
closed = 1;
nodes = (
"237 317 OFFCURVE",
"284 257 OFFCURVE",
"354 257 CURVE SMOOTH",
"442 257 OFFCURVE",
"477 313 OFFCURVE",
"486 404 CURVE",
"382 441 LINE",
"381 391 OFFCURVE",
"362 380 OFFCURVE",
"342 380 CURVE SMOOTH",
"294 380 OFFCURVE",
"246 441 OFFCURVE",
"170 441 CURVE SMOOTH",
"81 441 OFFCURVE",
"45 384 OFFCURVE",
"36 294 CURVE",
"140 256 LINE",
"141 307 OFFCURVE",
"159 317 OFFCURVE",
"180 317 CURVE SMOOTH"
);
}
);
width = 556;
}
);
unicode = "2248,E9C0";
},
{
glyphname = notequal;
layers = (
{
layerId = "30D4BC2E-225F-4273-AE59-0FC741A5E71E";
paths = (
{
closed = 1;
nodes = (
"570 283 LINE",
"570 410 LINE",
"504 410 LINE",
"564 495 LINE",
"411 495 LINE",
"352 410 LINE",
"58 410 LINE",
"58 283 LINE",
"262 283 LINE",
"221 225 LINE",
"58 225 LINE",
"58 96 LINE",
"131 96 LINE",
"64 0 LINE",
"217 0 LINE",
"285 96 LINE",
"570 96 LINE",
"570 225 LINE",
"374 225 LINE",
"414 283 LINE"
);
}
);
width = 661;
}
);
unicode = "2260,E9C1";
},
{
glyphname = lessequal;
layers = (
{
layerId = "30D4BC2E-225F-4273-AE59-0FC741A5E71E";
paths = (
{
closed = 1;
nodes = (
"53 0 LINE",
"565 0 LINE",
"565 128 LINE",
"53 128 LINE"
);
},
{
closed = 1;
nodes = (
"565 510 LINE",
"53 386 LINE",
"53 260 LINE",
"565 136 LINE",
"565 265 LINE",
"228 324 LINE",
"565 381 LINE"
);
}
);
width = 676;
}
);
unicode = "2264,E9C2";
},
{
glyphname = greaterequal;
layers = (
{
layerId = "30D4BC2E-225F-4273-AE59-0FC741A5E71E";
paths = (
{
closed = 1;
nodes = (
"79 0 LINE",
"591 0 LINE",
"591 128 LINE",
"79 128 LINE"
);
},
{
closed = 1;
nodes = (
"79 510 LINE",
"79 381 LINE",
"416 324 LINE",
"79 265 LINE",
"79 136 LINE",
"591 260 LINE",
"591 386 LINE"
);
}
);
width = 702;
}
);
unicode = "2265,E9C3";
},
{
glyphname = lozenge;
layers = (
{
layerId = "30D4BC2E-225F-4273-AE59-0FC741A5E71E";
paths = (
{
closed = 1;
nodes = (
"301 502 LINE",
"425 313 LINE",
"301 124 LINE",
"176 313 LINE"
);
},
{
closed = 1;
nodes = (
"301 716 LINE",
"38 313 LINE",
"301 -91 LINE",
"563 313 LINE"
);
}
);
width = 607;
}
);
unicode = "25CA,E9C4";
},
{
glyphname = summation;
layers = (
{
layerId = "30D4BC2E-225F-4273-AE59-0FC741A5E71E";
paths = (
{
closed = 1;
nodes = (
"350 254 LINE",
"113 -34 LINE",
"113 -162 LINE",
"648 -162 LINE",
"648 -34 LINE",
"283 -34 LINE",
"522 254 LINE",
"283 540 LINE",
"648 540 LINE",
"648 668 LINE",
"113 668 LINE",
"113 540 LINE"
);
}
);
width = 793;
}
);
unicode = "2211,E9B9";
},
{
color = (153,254,255,255);
glyphname = minus;
layers = (
{
layerId = "30D4BC2E-225F-4273-AE59-0FC741A5E71E";
paths = (
{
closed = 1;
nodes = (
"551 184 LINE",
"551 312 LINE",
"39 312 LINE",
"39 184 LINE"
);
}
);
width = 645;
}
);
unicode = "2212,E9BA";
},
{
glyphname = uni2215;
layers = (
{
layerId = "30D4BC2E-225F-4273-AE59-0FC741A5E71E";
paths = (
{
closed = 1;
nodes = (
"413 668 LINE",
"-55 0 LINE",
"72 0 LINE",
"539 668 LINE"
);
}
);
width = 482;
}
);
unicode = "2215,E9BB";
},
{
glyphname = uni2219;
layers = (
{
layerId = "30D4BC2E-225F-4273-AE59-0FC741A5E71E";
paths = (
{
closed = 1;
nodes = (
"178 157 OFFCURVE",
"222 201 OFFCURVE",
"222 255 CURVE SMOOTH",
"222 309 OFFCURVE",
"178 351 OFFCURVE",
"125 351 CURVE SMOOTH",
"71 351 OFFCURVE",
"27 309 OFFCURVE",
"27 255 CURVE SMOOTH",
"27 201 OFFCURVE",
"71 157 OFFCURVE",
"125 157 CURVE SMOOTH"
);
}
);
width = 281;
}
);
unicode = "2219,E9BC";
},
{
glyphname = radical;
layers = (
{
layerId = "30D4BC2E-225F-4273-AE59-0FC741A5E71E";
paths = (
{
closed = 1;
nodes = (
"502 668 LINE",
"332 29 LINE",
"252 225 LINE",
"19 225 LINE",
"19 93 LINE",
"161 93 LINE",
"271 -162 LINE",
"427 -162 LINE",
"646 668 LINE"
);
}
);
width = 615;
}
);
unicode = "221A,E9BD";
},
{
glyphname = infinity;
layers = (
{
layerId = "30D4BC2E-225F-4273-AE59-0FC741A5E71E";
paths = (
{
closed = 1;
nodes = (
"454 412 OFFCURVE",
"404 380 OFFCURVE",
"362 336 CURVE",
"321 380 OFFCURVE",
"271 412 OFFCURVE",
"205 412 CURVE SMOOTH",
"106 412 OFFCURVE",
"29 346 OFFCURVE",
"29 255 CURVE SMOOTH",
"29 162 OFFCURVE",
"104 97 OFFCURVE",
"201 97 CURVE SMOOTH",
"273 97 OFFCURVE",
"321 132 OFFCURVE",
"362 176 CURVE",
"403 132 OFFCURVE",
"452 97 OFFCURVE",
"524 97 CURVE SMOOTH",
"621 97 OFFCURVE",
"696 162 OFFCURVE",
"696 255 CURVE SMOOTH",
"696 346 OFFCURVE",
"619 412 OFFCURVE",
"520 412 CURVE SMOOTH"
);
},
{
closed = 1;
nodes = (
"173 204 OFFCURVE",
"149 226 OFFCURVE",
"149 256 CURVE SMOOTH",
"149 286 OFFCURVE",
"176 306 OFFCURVE",
"210 306 CURVE SMOOTH",
"244 306 OFFCURVE",
"273 283 OFFCURVE",
"296 256 CURVE",
"273 228 OFFCURVE",
"245 204 OFFCURVE",
"208 204 CURVE"
);
},
{
closed = 1;
nodes = (
"480 204 OFFCURVE",
"452 228 OFFCURVE",
"429 256 CURVE",
"452 283 OFFCURVE",
"481 306 OFFCURVE",
"515 306 CURVE SMOOTH",
"549 306 OFFCURVE",
"576 286 OFFCURVE",
"576 256 CURVE SMOOTH",
"576 226 OFFCURVE",
"552 204 OFFCURVE",
"517 204 CURVE"
);
}
);
width = 757;
}
);
unicode = "221E,E9BE";
},
{
glyphname = Omega;
layers = (
{
layerId = "30D4BC2E-225F-4273-AE59-0FC741A5E71E";
paths = (
{
closed = 1;
nodes = (
"509 139 LINE",
"591 191 OFFCURVE",
"646 283 OFFCURVE",
"646 386 CURVE SMOOTH",
"646 548 OFFCURVE",
"515 680 OFFCURVE",
"353 680 CURVE SMOOTH",
"191 680 OFFCURVE",
"60 548 OFFCURVE",
"60 386 CURVE SMOOTH",
"60 283 OFFCURVE",
"115 191 OFFCURVE",
"197 139 CURVE",
"197 115 LINE",
"60 115 LINE",
"60 0 LINE",
"328 0 LINE",
"328 223 LINE",
"245 235 OFFCURVE",
"181 307 OFFCURVE",
"181 392 CURVE SMOOTH",
"181 487 OFFCURVE",
"258 564 OFFCURVE",
"353 564 CURVE SMOOTH",
"447 564 OFFCURVE",
"524 487 OFFCURVE",
"524 392 CURVE SMOOTH",
"524 307 OFFCURVE",
"461 235 OFFCURVE",
"378 223 CURVE",
"378 0 LINE",
"646 0 LINE",
"646 115 LINE",
"509 115 LINE"
);
}
);
width = 757;
}
);
unicode = "03A9,E9B4";
},
{
glyphname = estimated;
layers = (
{
layerId = "30D4BC2E-225F-4273-AE59-0FC741A5E71E";
paths = (
{
closed = 1;
nodes = (
"244 58 OFFCURVE",
"200 75 OFFCURVE",
"167 104 CURVE",
"167 249 LINE",
"552 249 LINE",
"552 393 OFFCURVE",
"435 510 OFFCURVE",
"292 510 CURVE SMOOTH",
"147 510 OFFCURVE",
"30 393 OFFCURVE",
"30 249 CURVE SMOOTH",
"30 105 OFFCURVE",
"147 -12 OFFCURVE",
"292 -12 CURVE SMOOTH",
"381 -12 OFFCURVE",
"460 34 OFFCURVE",
"507 103 CURVE",
"439 128 LINE",
"404 85 OFFCURVE",
"350 58 OFFCURVE",
"292 58 CURVE"
);
},
{
closed = 1;
nodes = (
"415 315 LINE",
"167 315 LINE",
"167 394 LINE",
"200 423 OFFCURVE",
"244 440 OFFCURVE",
"292 440 CURVE SMOOTH",
"338 440 OFFCURVE",
"382 423 OFFCURVE",
"415 394 CURVE"
);
}
);
width = 610;
}
);
unicode = "212E,E9B5";
},
{
glyphname = partialdiff;
layers = (
{
layerId = "30D4BC2E-225F-4273-AE59-0FC741A5E71E";
paths = (
{
closed = 1;
nodes = (
"536 694 OFFCURVE",
"252 680 OFFCURVE",
"152 680 CURVE",
"152 560 LINE",
"352 571 OFFCURVE",
"413 481 OFFCURVE",
"422 356 CURVE",
"395 391 OFFCURVE",
"338 435 OFFCURVE",
"245 435 CURVE SMOOTH",
"121 435 OFFCURVE",
"21 335 OFFCURVE",
"21 212 CURVE SMOOTH",
"21 95 OFFCURVE",
"92 33 OFFCURVE",
"162 6 CURVE SMOOTH",
"231 -21 OFFCURVE",
"432 -44 OFFCURVE",
"509 143 CURVE SMOOTH",
"531 198 OFFCURVE",
"536 257 OFFCURVE",
"536 315 CURVE"
);
},
{
closed = 1;
nodes = (
"219 107 OFFCURVE",
"172 154 OFFCURVE",
"172 211 CURVE SMOOTH",
"172 269 OFFCURVE",
"219 315 OFFCURVE",
"276 315 CURVE SMOOTH",
"333 315 OFFCURVE",
"379 269 OFFCURVE",
"379 211 CURVE",
"379 154 OFFCURVE",
"333 107 OFFCURVE",
"276 107 CURVE SMOOTH"
);
}
);
width = 594;
}
);
unicode = "2202,E9B6";
},
{
glyphname = Delta;
layers = (
{
layerId = "30D4BC2E-225F-4273-AE59-0FC741A5E71E";
paths = (
{
closed = 1;
nodes = (
"287 418 LINE",
"415 115 LINE",
"159 115 LINE"
);
},
{
closed = 1;
nodes = (
"287 680 LINE",
"-29 0 LINE",
"604 0 LINE"
);
}
);
width = 715;
}
);
unicode = "0394,E9B7";
},
{
glyphname = product;
layers = (
{
layerId = "30D4BC2E-225F-4273-AE59-0FC741A5E71E";
paths = (
{
closed = 1;
nodes = (
"113 668 LINE",
"113 -161 LINE",
"241 -161 LINE",
"241 552 LINE",
"517 552 LINE",
"517 -161 LINE",
"645 -161 LINE",
"645 668 LINE"
);
}
);
width = 790;
}
);
unicode = "220F,E9B8";
},
{
color = (153,255,154,255);
glyphname = pi;
layers = (
{
layerId = "30D4BC2E-225F-4273-AE59-0FC741A5E71E";
paths = (
{
closed = 1;
nodes = (
"553 380 LINE",
"641 380 LINE",
"666 496 LINE",
"77 496 LINE",
"52 380 LINE",
"141 380 LINE",
"60 0 LINE",
"191 0 LINE",
"272 380 LINE",
"422 380 LINE",
"366 118 LINE SMOOTH",
"351 47 OFFCURVE",
"377 1 OFFCURVE",
"482 1 CURVE SMOOTH",
"560 1 LINE",
"583 105 LINE",
"550 105 LINE SMOOTH",
"499 105 OFFCURVE",
"497 117 OFFCURVE",
"504 152 CURVE SMOOTH"
);
}
);
width = 672;
}
);
unicode = "03C0,E9A0";
},
{
color = (153,255,154,255);
glyphname = hungarumlaut;
layers = (
{
layerId = "30D4BC2E-225F-4273-AE59-0FC741A5E71E";
paths = (
{
closed = 1;
nodes = (
"291 729 OFFCURVE",
"256 733 OFFCURVE",
"232 713 CURVE SMOOTH",
"230 712 OFFCURVE",
"89 572 OFFCURVE",
"89 572 CURVE",
"212 572 LINE",
"212 572 OFFCURVE",
"296 622 OFFCURVE",
"302 626 CURVE SMOOTH",
"327 643 OFFCURVE",
"330 681 OFFCURVE",
"310 705 CURVE SMOOTH"
);
},
{
closed = 1;
nodes = (
"498 729 OFFCURVE",
"463 733 OFFCURVE",
"439 713 CURVE SMOOTH",
"437 712 OFFCURVE",
"297 572 OFFCURVE",
"297 572 CURVE",
"419 572 LINE",
"419 572 OFFCURVE",
"503 622 OFFCURVE",
"509 626 CURVE SMOOTH",
"534 643 OFFCURVE",
"537 681 OFFCURVE",
"517 705 CURVE SMOOTH"
);
}
);
width = 502;
}
);
unicode = "02DD,E9C5";
},
{
color = (153,255,154,255);
glyphname = tilde;
layers = (
{
layerId = "30D4BC2E-225F-4273-AE59-0FC741A5E71E";
paths = (
{
closed = 1;
nodes = (
"410 679 OFFCURVE",
"407 648 OFFCURVE",
"364 648 CURVE SMOOTH",
"324 648 OFFCURVE",
"304 689 OFFCURVE",
"225 689 CURVE SMOOTH",
"158 689 OFFCURVE",
"107 632 OFFCURVE",
"89 574 CURVE",
"178 574 LINE",
"192 597 OFFCURVE",
"207 607 OFFCURVE",
"229 607 CURVE SMOOTH",
"280 607 OFFCURVE",
"294 571 OFFCURVE",
"362 568 CURVE SMOOTH",
"432 565 OFFCURVE",
"467 602 OFFCURVE",
"482 623 CURVE SMOOTH",
"508 659 OFFCURVE",
"476 699 OFFCURVE",
"441 688 CURVE SMOOTH"
);
}
);
width = 461;
}
);
unicode = "02DC,E99F";
},
{
glyphname = endash;
layers = (
{
layerId = "30D4BC2E-225F-4273-AE59-0FC741A5E71E";
paths = (
{
closed = 1;
nodes = (
"464 185 LINE",
"464 313 LINE",
"38 313 LINE",
"38 185 LINE"
);
}
);
width = 536;
}
);
leftKerningGroup = hyphen;
rightKerningGroup = hyphen_2;
unicode = 2013;
},
{
glyphname = emdash;
layers = (
{
layerId = "30D4BC2E-225F-4273-AE59-0FC741A5E71E";
paths = (
{
closed = 1;
nodes = (
"798 185 LINE",
"798 313 LINE",
"38 313 LINE",
"38 185 LINE"
);
}
);
width = 870;
}
);
leftKerningGroup = hyphen;
rightKerningGroup = hyphen_2;
unicode = 2014;
},
{
glyphname = trademark;
layers = (
{
layerId = "30D4BC2E-225F-4273-AE59-0FC741A5E71E";
paths = (
{
closed = 1;
nodes = (
"113 575 LINE",
"234 575 LINE",
"234 301 LINE",
"343 301 LINE",
"343 575 LINE",
"463 575 LINE",
"463 668 LINE",
"113 668 LINE"
);
},
{
closed = 1;
nodes = (
"793 668 LINE",
"726 432 LINE",
"660 668 LINE",
"487 668 LINE",
"487 301 LINE",
"594 301 LINE",
"594 558 LINE",
"678 301 LINE",
"775 301 LINE",
"859 558 LINE",
"859 301 LINE",
"966 301 LINE",
"966 668 LINE"
);
}
);
width = 1013;
}
);
unicode = "2122,E9B3";
},
{
color = (153,255,154,255);
glyphname = dotlessi;
layers = (
{
layerId = "30D4BC2E-225F-4273-AE59-0FC741A5E71E";
paths = (
{
closed = 1;
nodes = (
"26 380 LINE",
"129 380 LINE",
"48 0 LINE",
"204 0 LINE",
"309 496 LINE",
"51 496 LINE"
);
}
);
width = 326;
}
);
leftKerningGroup = i;
unicode = "0131,E98D";
},
{
color = (153,255,154,255);
glyphname = Euro;
layers = (
{
layerId = "30D4BC2E-225F-4273-AE59-0FC741A5E71E";
paths = (
{
closed = 1;
nodes = (
"346 118 OFFCURVE",
"299 156 OFFCURVE",
"284 231 CURVE",
"348 231 LINE",
"404 305 LINE",
"279 305 LINE",
"281 326 OFFCURVE",
"283 342 OFFCURVE",
"288 366 CURVE",
"452 366 LINE",
"508 440 LINE",
"313 440 LINE",
"347 512 OFFCURVE",
"406 553 OFFCURVE",
"477 553 CURVE SMOOTH",
"529 553 OFFCURVE",
"571 534 OFFCURVE",
"595 475 CURVE",
"734 525 LINE",
"693 646 OFFCURVE",
"587 680 OFFCURVE",
"488 680 CURVE SMOOTH",
"334 680 OFFCURVE",
"212 593 OFFCURVE",
"157 440 CURVE",
"105 440 LINE",
"49 366 LINE",
"137 366 LINE",
"133 344 OFFCURVE",
"130 324 OFFCURVE",
"128 305 CURVE",
"77 305 LINE",
"21 231 LINE",
"128 231 LINE",
"141 73 OFFCURVE",
"245 -7 OFFCURVE",
"384 -12 CURVE SMOOTH",
"523 -17 OFFCURVE",
"620 40 OFFCURVE",
"681 140 CURVE",
"552 194 LINE",
"511 133 OFFCURVE",
"453 118 OFFCURVE",
"405 118 CURVE SMOOTH"
);
}
);
width = 762;
}
);
unicode = "20AC,E9B1";
},
{
color = (153,255,154,255);
glyphname = uni2113;
layers = (
{
layerId = "30D4BC2E-225F-4273-AE59-0FC741A5E71E";
paths = (
{
closed = 1;
nodes = (
"362 141 LINE",
"335 124 OFFCURVE",
"307 110 OFFCURVE",
"276 110 CURVE SMOOTH",
"234 110 OFFCURVE",
"218 132 OFFCURVE",
"231 191 CURVE SMOOTH",
"247 264 LINE",
"259 272 LINE SMOOTH",
"386 356 OFFCURVE",
"495 424 OFFCURVE",
"509 540 CURVE SMOOTH",
"520 632 OFFCURVE",
"461 680 OFFCURVE",
"356 680 CURVE SMOOTH",
"244 680 OFFCURVE",
"167 617 OFFCURVE",
"132 452 CURVE SMOOTH",
"92 265 LINE",
"18 218 LINE",
"-5 112 LINE",
"69 157 LINE",
"45 32 OFFCURVE",
"120 -12 OFFCURVE",
"219 -12 CURVE SMOOTH",
"301 -12 OFFCURVE",
"364 25 OFFCURVE",
"400 52 CURVE"
);
},
{
closed = 1;
nodes = (
"296 501 LINE SMOOTH",
"306 549 OFFCURVE",
"322 573 OFFCURVE",
"354 573 CURVE SMOOTH",
"379 573 OFFCURVE",
"391 556 OFFCURVE",
"383 521 CURVE SMOOTH",
"370 465 OFFCURVE",
"330 410 OFFCURVE",
"275 376 CURVE SMOOTH",
"270 373 LINE"
);
}
);
width = 506;
}
);
unicode = "2113,E9B2";
},
{
color = (153,255,154,255);
glyphname = Lslash;
layers = (
{
layerId = "30D4BC2E-225F-4273-AE59-0FC741A5E71E";
paths = (
{
closed = 1;
nodes = (
"219 140 LINE",
"258 322 LINE",
"433 414 LINE",
"459 538 LINE",
"283 445 LINE",
"331 668 LINE",
"171 668 LINE",
"103 348 LINE",
"11 300 LINE",
"-15 177 LINE",
"76 225 LINE",
"28 0 LINE",
"510 0 LINE",
"539 140 LINE"
);
}
);
width = 594;
}
);
leftMetricsKey = t;
rightKerningGroup = L;
rightMetricsKey = L;
unicode = "0141,E98E";
},
{
color = (153,255,154,255);
glyphname = lslash;
layers = (
{
layerId = "30D4BC2E-225F-4273-AE59-0FC741A5E71E";
paths = (
{
closed = 1;
nodes = (
"229 321 LINE",
"350 385 LINE",
"376 507 LINE",
"254 442 LINE",
"301 668 LINE",
"146 668 LINE",
"79 349 LINE",
"3 309 LINE",
"-23 188 LINE",
"53 228 LINE",
"34 140 LINE SMOOTH",
"11 34 OFFCURVE",
"70 0 OFFCURVE",
"172 0 CURVE SMOOTH",
"196 0 OFFCURVE",
"269 0 OFFCURVE",
"269 0 CURVE",
"294 124 LINE",
"294 124 OFFCURVE",
"263 124 OFFCURVE",
"252 124 CURVE SMOOTH",
"186 124 OFFCURVE",
"193 153 OFFCURVE",
"204 205 CURVE SMOOTH"
);
}
);
width = 342;
}
);
leftMetricsKey = f;
rightMetricsKey = l;
unicode = "0142,E98F";
},
{
color = (153,255,154,255);
glyphname = oslash;
layers = (
{
layerId = "30D4BC2E-225F-4273-AE59-0FC741A5E71E";
paths = (
{
closed = 1;
nodes = (
"564 475 LINE",
"513 529 LINE",
"450 470 LINE",
"410 497 OFFCURVE",
"359 510 OFFCURVE",
"303 510 CURVE SMOOTH",
"167 510 OFFCURVE",
"32 433 OFFCURVE",
"7 243 CURVE SMOOTH",
"-1 180 OFFCURVE",
"10 127 OFFCURVE",
"37 85 CURVE",
"-26 27 LINE",
"25 -27 LINE",
"87 32 LINE",
"127 3 OFFCURVE",
"180 -12 OFFCURVE",
"241 -12 CURVE SMOOTH",
"340 -12 OFFCURVE",
"504 34 OFFCURVE",
"534 250 CURVE SMOOTH",
"544 320 OFFCURVE",
"531 376 OFFCURVE",
"502 418 CURVE"
);
},
{
closed = 1;
nodes = (
"181 352 OFFCURVE",
"231 390 OFFCURVE",
"289 392 CURVE SMOOTH",
"314 393 OFFCURVE",
"334 388 OFFCURVE",
"350 376 CURVE",
"160 200 LINE",
"159 217 OFFCURVE",
"161 234 OFFCURVE",
"164 250 CURVE SMOOTH"
);
},
{
closed = 1;
nodes = (
"369 182 OFFCURVE",
"332 106 OFFCURVE",
"247 106 CURVE SMOOTH",
"220 106 OFFCURVE",
"202 113 OFFCURVE",
"188 125 CURVE",
"381 306 LINE",
"382 290 OFFCURVE",
"382 271 OFFCURVE",
"379 250 CURVE SMOOTH"
);
}
);
width = 577;
}
);
leftKerningGroup = c;
leftMetricsKey = o;
rightKerningGroup = b;
rightMetricsKey = o;
unicode = "00F8,E985";
},
{
color = (153,255,154,255);
glyphname = Oslash;
layers = (
{
layerId = "30D4BC2E-225F-4273-AE59-0FC741A5E71E";
paths = (
{
closed = 1;
nodes = (
"747 633 LINE",
"696 686 LINE",
"627 622 LINE",
"575 660 OFFCURVE",
"506 680 OFFCURVE",
"426 680 CURVE SMOOTH",
"221 680 OFFCURVE",
"63 539 OFFCURVE",
"35 321 CURVE SMOOTH",
"24 238 OFFCURVE",
"39 165 OFFCURVE",
"76 109 CURVE",
"5 43 LINE",
"56 -11 LINE",
"125 54 LINE",
"176 12 OFFCURVE",
"247 -12 OFFCURVE",
"334 -12 CURVE SMOOTH",
"547 -12 OFFCURVE",
"706 134 OFFCURVE",
"728 345 CURVE SMOOTH",
"738 438 OFFCURVE",
"720 514 OFFCURVE",
"679 569 CURVE"
);
},
{
closed = 1;
nodes = (
"221 473 OFFCURVE",
"316 550 OFFCURVE",
"414 550 CURVE SMOOTH",
"449 550 OFFCURVE",
"484 538 OFFCURVE",
"511 514 CURVE",
"207 231 LINE",
"199 258 OFFCURVE",
"198 289 OFFCURVE",
"202 321 CURVE SMOOTH"
);
},
{
closed = 1;
nodes = (
"547 213 OFFCURVE",
"460 118 OFFCURVE",
"349 118 CURVE SMOOTH",
"302 118 OFFCURVE",
"267 135 OFFCURVE",
"242 163 CURVE",
"552 451 LINE",
"562 422 OFFCURVE",
"566 387 OFFCURVE",
"561 345 CURVE SMOOTH"
);
}
);
width = 762;
}
);
leftMetricsKey = O;
rightMetricsKey = O;
unicode = "00D8,E965";
},
{
color = (153,255,154,255);
glyphname = Thorn;
layers = (
{
layerId = "30D4BC2E-225F-4273-AE59-0FC741A5E71E";
paths = (
{
closed = 1;
nodes = (
"259 563 LINE",
"280 668 LINE",
"119 668 LINE",
"-23 0 LINE",
"139 0 LINE",
"166 128 LINE",
"255 128 LINE SMOOTH",
"404 128 OFFCURVE",
"582 150 OFFCURVE",
"609 344 CURVE SMOOTH",
"634 516 OFFCURVE",
"520 563 OFFCURVE",
"347 563 CURVE SMOOTH"
);
},
{
closed = 1;
nodes = (
"432 305 OFFCURVE",
"405 269 OFFCURVE",
"294 269 CURVE SMOOTH",
"196 269 LINE",
"230 426 LINE",
"332 426 LINE SMOOTH",
"437 426 OFFCURVE",
"452 399 OFFCURVE",
"441 347 CURVE SMOOTH"
);
}
);
width = 636;
}
);
leftKerningGroup = B;
leftMetricsKey = B;
rightMetricsKey = B;
unicode = "00DE,E96B";
},
{
color = (153,255,154,255);
glyphname = ae;
layers = (
{
layerId = "30D4BC2E-225F-4273-AE59-0FC741A5E71E";
paths = (
{
closed = 1;
nodes = (
"834 209 LINE",
"876 387 OFFCURVE",
"795 510 OFFCURVE",
"622 510 CURVE SMOOTH",
"539 510 OFFCURVE",
"484 489 OFFCURVE",
"437 452 CURVE",
"413 487 OFFCURVE",
"363 510 OFFCURVE",
"298 510 CURVE SMOOTH",
"186 510 OFFCURVE",
"109 471 OFFCURVE",
"58 394 CURVE",
"176 348 LINE",
"195 388 OFFCURVE",
"236 407 OFFCURVE",
"277 407 CURVE SMOOTH",
"331 407 OFFCURVE",
"358 386 OFFCURVE",
"346 329 CURVE SMOOTH",
"340 299 LINE",
"177 299 OFFCURVE",
"40 275 OFFCURVE",
"-7 182 CURVE SMOOTH",
"-48 100 OFFCURVE",
"-5 26 OFFCURVE",
"62 3 CURVE SMOOTH",
"159 -30 OFFCURVE",
"284 -16 OFFCURVE",
"367 78 CURVE",
"400 24 OFFCURVE",
"458 -12 OFFCURVE",
"544 -12 CURVE SMOOTH",
"645 -12 OFFCURVE",
"730 27 OFFCURVE",
"786 98 CURVE",
"673 143 LINE",
"618 87 OFFCURVE",
"446 83 OFFCURVE",
"468 209 CURVE"
);
},
{
closed = 1;
nodes = (
"482 299 LINE",
"519 430 OFFCURVE",
"725 433 OFFCURVE",
"710 299 CURVE"
);
},
{
closed = 1;
nodes = (
"162 87 OFFCURVE",
"135 112 OFFCURVE",
"139 145 CURVE SMOOTH",
"146 203 OFFCURVE",
"211 210 OFFCURVE",
"327 209 CURVE",
"317 177 OFFCURVE",
"297 99 OFFCURVE",
"207 91 CURVE SMOOTH"
);
}
);
width = 882;
}
);
leftKerningGroup = a;
leftMetricsKey = a;
rightKerningGroup = e;
rightMetricsKey = e;
unicode = "00E6,E973";
},
{
color = (153,255,154,255);
glyphname = eth;
layers = (
{
layerId = "30D4BC2E-225F-4273-AE59-0FC741A5E71E";
paths = (
{
closed = 1;
nodes = (
"536 686 LINE",
"499 734 LINE",
"425 673 LINE",
"378 703 OFFCURVE",
"316 723 OFFCURVE",
"234 726 CURVE",
"208 604 LINE",
"254 604 OFFCURVE",
"290 596 OFFCURVE",
"316 584 CURVE",
"253 530 LINE",
"290 483 LINE",
"367 547 LINE",
"411 499 OFFCURVE",
"411 429 OFFCURVE",
"410 384 CURVE",
"383 428 OFFCURVE",
"318 456 OFFCURVE",
"263 456 CURVE SMOOTH",
"143 456 OFFCURVE",
"38 391 OFFCURVE",
"9 255 CURVE SMOOTH",
"-15 144 OFFCURVE",
"32 -12 OFFCURVE",
"229 -12 CURVE SMOOTH",
"392 -12 OFFCURVE",
"531 99 OFFCURVE",
"548 371 CURVE SMOOTH",
"554 460 OFFCURVE",
"537 561 OFFCURVE",
"471 633 CURVE"
);
},
{
closed = 1;
nodes = (
"348 139 OFFCURVE",
"307 101 OFFCURVE",
"238 101 CURVE SMOOTH",
"178 101 OFFCURVE",
"136 152 OFFCURVE",
"143 220 CURVE SMOOTH",
"150 289 OFFCURVE",
"196 338 OFFCURVE",
"262 338 CURVE SMOOTH",
"326 338 OFFCURVE",
"365 292 OFFCURVE",
"357 220 CURVE SMOOTH"
);
}
);
width = 582;
}
);
leftKerningGroup = c;
leftMetricsKey = d;
rightKerningGroup = D;
rightMetricsKey = D;
unicode = "00F0,E97D";
},
{
color = (153,255,154,255);
glyphname = thorn;
layers = (
{
layerId = "30D4BC2E-225F-4273-AE59-0FC741A5E71E";
paths = (
{
closed = 1;
nodes = (
"321 511 OFFCURVE",
"264 488 OFFCURVE",
"227 434 CURVE",
"276 668 LINE",
"121 668 LINE",
"-55 -161 LINE",
"101 -161 LINE",
"151 75 LINE",
"171 21 OFFCURVE",
"234 -12 OFFCURVE",
"287 -12 CURVE SMOOTH",
"451 -12 OFFCURVE",
"551 140 OFFCURVE",
"551 306 CURVE SMOOTH",
"551 470 OFFCURVE",
"449 511 OFFCURVE",
"376 511 CURVE SMOOTH"
);
},
{
closed = 1;
nodes = (
"206 107 OFFCURVE",
"158 160 OFFCURVE",
"178 256 CURVE SMOOTH",
"198 350 OFFCURVE",
"246 392 OFFCURVE",
"306 392 CURVE SMOOTH",
"360 392 OFFCURVE",
"393 359 OFFCURVE",
"393 273 CURVE SMOOTH",
"393 219 OFFCURVE",
"367 107 OFFCURVE",
"261 107 CURVE SMOOTH"
);
}
);
width = 590;
}
);
leftKerningGroup = B;
leftMetricsKey = p;
rightKerningGroup = b;
rightMetricsKey = p;
unicode = "00FE,E98B";
},
{
color = (153,255,154,255);
glyphname = uni02C9;
layers = (
{
layerId = "30D4BC2E-225F-4273-AE59-0FC741A5E71E";
paths = (
{
closed = 1;
nodes = (
"383 550 LINE",
"404 648 LINE",
"105 648 LINE",
"84 550 LINE"
);
}
);
width = 373;
}
);
unicode = 02C9;
},
{
color = (153,254,255,255);
glyphname = multiply;
layers = (
{
layerId = "30D4BC2E-225F-4273-AE59-0FC741A5E71E";
paths = (
{
closed = 1;
nodes = (
"512 385 LINE",
"421 476 LINE",
"284 337 LINE",
"146 476 LINE",
"55 385 LINE",
"194 248 LINE",
"58 112 LINE",
"149 22 LINE",
"284 158 LINE",
"418 22 LINE",
"509 112 LINE",
"373 248 LINE"
);
}
);
width = 618;
}
);
unicode = "00D7,E964";
},
{
color = (153,254,255,255);
glyphname = divide;
layers = (
{
layerId = "30D4BC2E-225F-4273-AE59-0FC741A5E71E";
paths = (
{
closed = 1;
nodes = (
"339 351 OFFCURVE",
"375 387 OFFCURVE",
"375 431 CURVE SMOOTH",
"375 475 OFFCURVE",
"339 510 OFFCURVE",
"296 510 CURVE SMOOTH",
"253 510 OFFCURVE",
"217 475 OFFCURVE",
"217 431 CURVE SMOOTH",
"217 387 OFFCURVE",
"253 351 OFFCURVE",
"296 351 CURVE SMOOTH"
);
},
{
closed = 1;
nodes = (
"253 147 OFFCURVE",
"217 111 OFFCURVE",
"217 68 CURVE SMOOTH",
"217 24 OFFCURVE",
"253 -12 OFFCURVE",
"296 -12 CURVE SMOOTH",
"339 -12 OFFCURVE",
"375 24 OFFCURVE",
"375 68 CURVE SMOOTH",
"375 111 OFFCURVE",
"339 147 OFFCURVE",
"296 147 CURVE SMOOTH"
);
},
{
closed = 1;
nodes = (
"552 186 LINE",
"552 314 LINE",
"40 314 LINE",
"40 186 LINE"
);
}
);
width = 645;
}
);
unicode = "00F7,E984";
},
{
color = (153,255,154,255);
glyphname = OE;
layers = (
{
layerId = "30D4BC2E-225F-4273-AE59-0FC741A5E71E";
paths = (
{
closed = 1;
nodes = (
"1122 529 LINE",
"1152 668 LINE",
"659 668 LINE",
"644 596 LINE",
"600 651 OFFCURVE",
"517 680 OFFCURVE",
"427 680 CURVE SMOOTH",
"222 680 OFFCURVE",
"64 540 OFFCURVE",
"36 321 CURVE SMOOTH",
"11 128 OFFCURVE",
"125 -12 OFFCURVE",
"330 -12 CURVE SMOOTH",
"403 -12 OFFCURVE",
"480 9 OFFCURVE",
"530 59 CURVE",
"517 0 LINE",
"1010 0 LINE",
"1039 140 LINE",
"683 140 LINE",
"712 275 LINE",
"930 275 LINE",
"959 413 LINE",
"741 413 LINE",
"766 529 LINE"
);
},
{
closed = 1;
nodes = (
"549 214 OFFCURVE",
"462 119 OFFCURVE",
"350 119 CURVE SMOOTH",
"238 119 OFFCURVE",
"190 216 OFFCURVE",
"204 321 CURVE SMOOTH",
"223 473 OFFCURVE",
"318 550 OFFCURVE",
"415 550 CURVE SMOOTH",
"499 550 OFFCURVE",
"579 487 OFFCURVE",
"563 345 CURVE SMOOTH"
);
}
);
width = 1110;
}
);
leftKerningGroup = C;
leftMetricsKey = O;
rightKerningGroup = E;
rightMetricsKey = E;
unicode = "0152,E990";
},
{
color = (153,255,154,255);
glyphname = oe;
layers = (
{
layerId = "30D4BC2E-225F-4273-AE59-0FC741A5E71E";
paths = (
{
closed = 1;
nodes = (
"891 210 LINE",
"933 388 OFFCURVE",
"867 511 OFFCURVE",
"695 511 CURVE SMOOTH",
"620 511 OFFCURVE",
"526 479 OFFCURVE",
"484 427 CURVE",
"457 472 OFFCURVE",
"400 511 OFFCURVE",
"315 511 CURVE SMOOTH",
"176 511 OFFCURVE",
"42 435 OFFCURVE",
"6 243 CURVE SMOOTH",
"-24 83 OFFCURVE",
"58 -12 OFFCURVE",
"221 -12 CURVE SMOOTH",
"275 -12 OFFCURVE",
"354 8 OFFCURVE",
"414 56 CURVE",
"447 15 OFFCURVE",
"515 -12 OFFCURVE",
"589 -12 CURVE SMOOTH",
"690 -12 OFFCURVE",
"770 28 OFFCURVE",
"835 99 CURVE",
"724 143 LINE",
"669 88 OFFCURVE",
"501 84 OFFCURVE",
"523 210 CURVE"
);
},
{
closed = 1;
nodes = (
"541 300 LINE",
"574 425 OFFCURVE",
"792 436 OFFCURVE",
"767 300 CURVE"
);
},
{
closed = 1;
nodes = (
"361 175 OFFCURVE",
"323 107 OFFCURVE",
"238 107 CURVE SMOOTH",
"152 107 OFFCURVE",
"146 186 OFFCURVE",
"164 259 CURVE SMOOTH",
"188 354 OFFCURVE",
"237 391 OFFCURVE",
"296 392 CURVE SMOOTH",
"365 393 OFFCURVE",
"398 346 OFFCURVE",
"377 250 CURVE SMOOTH"
);
}
);
width = 939;
}
);
leftKerningGroup = c;
leftMetricsKey = o;
rightKerningGroup = e;
rightMetricsKey = e;
unicode = "0153,E991";
},
{
color = (153,255,154,255);
glyphname = Acircumflex;
layers = (
{
associatedMasterId = "30D4BC2E-225F-4273-AE59-0FC741A5E71E";
layerId = "BC13058E-62D9-40F0-991C-91BFBBE3C538";
name = public.background;
paths = (
{
closed = 1;
nodes = (
"329 668 LINE",
"-65 0 LINE",
"121 0 LINE",
"187 119 LINE",
"442 119 LINE",
"458 0 LINE",
"623 0 LINE",
"512 668 LINE"
);
},
{
closed = 1;
nodes = (
"255 247 LINE",
"395 501 LINE",
"427 247 LINE"
);
},
{
closed = 1;
nodes = (
"455 792 LINE",
"514 731 LINE",
"630 731 LINE",
"512 858 LINE SMOOTH",
"485 888 OFFCURVE",
"442 890 OFFCURVE",
"413 868 CURVE SMOOTH",
"224 731 LINE",
"371 731 LINE"
);
}
);
width = 20;
},
{
components = (
{
alignment = -1;
name = A;
},
{
alignment = -1;
name = circumflex.case;
transform = "{1, 0, 0, 1, 138, 0}";
}
);
layerId = "30D4BC2E-225F-4273-AE59-0FC741A5E71E";
width = 698;
}
);
leftKerningGroup = A1;
leftMetricsKey = A;
rightKerningGroup = A_2;
rightMetricsKey = A;
unicode = 00C2;
},
{
color = (153,255,154,255);
glyphname = Atilde;
layers = (
{
associatedMasterId = "30D4BC2E-225F-4273-AE59-0FC741A5E71E";
layerId = "BC13058E-62D9-40F0-991C-91BFBBE3C538";
name = public.background;
paths = (
{
closed = 1;
nodes = (
"329 668 LINE",
"-65 0 LINE",
"121 0 LINE",
"187 119 LINE",
"442 119 LINE",
"458 0 LINE",
"623 0 LINE",
"512 668 LINE"
);
},
{
closed = 1;
nodes = (
"255 247 LINE",
"395 501 LINE",
"427 247 LINE"
);
},
{
closed = 1;
nodes = (
"548 836 OFFCURVE",
"545 805 OFFCURVE",
"502 805 CURVE SMOOTH",
"462 805 OFFCURVE",
"442 846 OFFCURVE",
"363 846 CURVE SMOOTH",
"296 846 OFFCURVE",
"245 789 OFFCURVE",
"227 731 CURVE",
"316 731 LINE",
"330 754 OFFCURVE",
"345 764 OFFCURVE",
"367 764 CURVE SMOOTH",
"418 764 OFFCURVE",
"432 728 OFFCURVE",
"500 725 CURVE SMOOTH",
"570 722 OFFCURVE",
"605 759 OFFCURVE",
"620 780 CURVE SMOOTH",
"646 816 OFFCURVE",
"614 856 OFFCURVE",
"579 845 CURVE SMOOTH"
);
}
);
width = 20;
},
{
components = (
{
alignment = -1;
name = A;
},
{
alignment = -1;
name = tilde.case;
transform = "{1, 0, 0, 1, 143, 0}";
}
);
layerId = "30D4BC2E-225F-4273-AE59-0FC741A5E71E";
width = 698;
}
);
leftKerningGroup = A1;
leftMetricsKey = A;
rightKerningGroup = A_2;
rightMetricsKey = A;
unicode = 00C3;
},
{
color = (153,255,154,255);
glyphname = Adieresis;
layers = (
{
associatedMasterId = "30D4BC2E-225F-4273-AE59-0FC741A5E71E";
layerId = "BC13058E-62D9-40F0-991C-91BFBBE3C538";
name = public.background;
paths = (
{
closed = 1;
nodes = (
"329 668 LINE",
"-65 0 LINE",
"121 0 LINE",
"187 119 LINE",
"442 119 LINE",
"458 0 LINE",
"623 0 LINE",
"512 668 LINE"
);
},
{
closed = 1;
nodes = (
"255 247 LINE",
"395 501 LINE",
"427 247 LINE"
);
},
{
closed = 1;
nodes = (
"311 867 OFFCURVE",
"279 835 OFFCURVE",
"279 796 CURVE SMOOTH",
"279 757 OFFCURVE",
"311 726 OFFCURVE",
"350 726 CURVE SMOOTH",
"389 726 OFFCURVE",
"420 757 OFFCURVE",
"420 796 CURVE SMOOTH",
"420 835 OFFCURVE",
"389 867 OFFCURVE",
"350 867 CURVE SMOOTH"
);
},
{
closed = 1;
nodes = (
"505 867 OFFCURVE",
"473 835 OFFCURVE",
"473 796 CURVE SMOOTH",
"473 757 OFFCURVE",
"505 726 OFFCURVE",
"544 726 CURVE SMOOTH",
"582 726 OFFCURVE",
"613 757 OFFCURVE",
"613 796 CURVE SMOOTH",
"613 835 OFFCURVE",
"582 867 OFFCURVE",
"544 867 CURVE SMOOTH"
);
}
);
width = 20;
},
{
components = (
{
alignment = -1;
name = A;
},
{
alignment = -1;
name = dieresis.case;
transform = "{1, 0, 0, 1, 162, 0}";
}
);
layerId = "30D4BC2E-225F-4273-AE59-0FC741A5E71E";
width = 698;
}
);
leftKerningGroup = A1;
leftMetricsKey = A;
rightKerningGroup = A_2;
rightMetricsKey = A;
unicode = 00C4;
},
{
color = (153,255,154,255);
glyphname = Aring;
layers = (
{
associatedMasterId = "30D4BC2E-225F-4273-AE59-0FC741A5E71E";
layerId = "BC13058E-62D9-40F0-991C-91BFBBE3C538";
name = public.background;
paths = (
{
closed = 1;
nodes = (
"329 668 LINE",
"-65 0 LINE",
"121 0 LINE",
"187 119 LINE",
"442 119 LINE",
"458 0 LINE",
"623 0 LINE",
"512 668 LINE"
);
},
{
closed = 1;
nodes = (
"255 247 LINE",
"395 501 LINE",
"427 247 LINE"
);
},
{
closed = 1;
nodes = (
"566 802 OFFCURVE",
"506 861 OFFCURVE",
"433 861 CURVE SMOOTH",
"360 861 OFFCURVE",
"301 802 OFFCURVE",
"301 729 CURVE SMOOTH",
"301 656 OFFCURVE",
"360 596 OFFCURVE",
"433 596 CURVE SMOOTH",
"506 596 OFFCURVE",
"566 656 OFFCURVE",
"566 729 CURVE SMOOTH"
);
},
{
closed = 1;
nodes = (
"459 776 OFFCURVE",
"480 755 OFFCURVE",
"480 729 CURVE SMOOTH",
"480 703 OFFCURVE",
"459 682 OFFCURVE",
"433 682 CURVE SMOOTH",
"407 682 OFFCURVE",
"386 703 OFFCURVE",
"386 729 CURVE SMOOTH",
"386 755 OFFCURVE",
"407 776 OFFCURVE",
"433 776 CURVE SMOOTH"
);
}
);
width = 20;
},
{
components = (
{
alignment = -1;
name = A;
},
{
alignment = -1;
name = ring.case;
transform = "{1, 0, 0, 1, 159, 0}";
}
);
layerId = "30D4BC2E-225F-4273-AE59-0FC741A5E71E";
width = 698;
}
);
leftKerningGroup = A1;
leftMetricsKey = A;
rightKerningGroup = A_2;
rightMetricsKey = A;
unicode = 00C5;
},
{
color = (153,255,154,255);
glyphname = Agrave;
layers = (
{
associatedMasterId = "30D4BC2E-225F-4273-AE59-0FC741A5E71E";
layerId = "BC13058E-62D9-40F0-991C-91BFBBE3C538";
name = public.background;
paths = (
{
closed = 1;
nodes = (
"329 668 LINE",
"-65 0 LINE",
"121 0 LINE",
"187 119 LINE",
"442 119 LINE",
"458 0 LINE",
"623 0 LINE",
"512 668 LINE"
);
},
{
closed = 1;
nodes = (
"255 247 LINE",
"395 501 LINE",
"427 247 LINE"
);
},
{
closed = 1;
nodes = (
"499 731 LINE",
"499 731 OFFCURVE",
"436 832 OFFCURVE",
"411 863 CURVE SMOOTH",
"391 887 OFFCURVE",
"356 891 OFFCURVE",
"332 872 CURVE SMOOTH",
"308 853 OFFCURVE",
"305 817 OFFCURVE",
"324 793 CURVE SMOOTH",
"340 772 OFFCURVE",
"391 731 OFFCURVE",
"391 731 CURVE"
);
}
);
width = 20;
},
{
components = (
{
alignment = -1;
name = A;
},
{
alignment = -1;
name = grave.case;
transform = "{1, 0, 0, 1, 224, 0}";
}
);
layerId = "30D4BC2E-225F-4273-AE59-0FC741A5E71E";
width = 698;
}
);
leftKerningGroup = A1;
leftMetricsKey = A;
rightKerningGroup = A_2;
rightMetricsKey = A;
unicode = 00C0;
},
{
color = (153,255,154,255);
glyphname = Aacute;
layers = (
{
associatedMasterId = "30D4BC2E-225F-4273-AE59-0FC741A5E71E";
layerId = "BC13058E-62D9-40F0-991C-91BFBBE3C538";
name = public.background;
paths = (
{
closed = 1;
nodes = (
"329 668 LINE",
"-65 0 LINE",
"121 0 LINE",
"187 119 LINE",
"442 119 LINE",
"458 0 LINE",
"623 0 LINE",
"512 668 LINE"
);
},
{
closed = 1;
nodes = (
"255 247 LINE",
"395 501 LINE",
"427 247 LINE"
);
},
{
closed = 1;
nodes = (
"600 805 OFFCURVE",
"603 839 OFFCURVE",
"584 863 CURVE SMOOTH",
"566 887 OFFCURVE",
"529 891 OFFCURVE",
"505 872 CURVE",
"504 871 OFFCURVE",
"362 731 OFFCURVE",
"362 731 CURVE",
"485 731 LINE",
"485 731 OFFCURVE",
"571 780 OFFCURVE",
"576 785 CURVE SMOOTH"
);
}
);
width = 20;
},
{
components = (
{
alignment = -1;
name = A;
},
{
alignment = -1;
name = acute.case;
transform = "{1, 0, 0, 1, 233, 0}";
}
);
layerId = "30D4BC2E-225F-4273-AE59-0FC741A5E71E";
width = 698;
}
);
leftKerningGroup = A1;
leftMetricsKey = A;
rightKerningGroup = A_2;
rightMetricsKey = A;
unicode = 00C1;
},
{
color = (153,255,154,255);
glyphname = Ccedilla;
layers = (
{
associatedMasterId = "30D4BC2E-225F-4273-AE59-0FC741A5E71E";
layerId = "BC13058E-62D9-40F0-991C-91BFBBE3C538";
name = public.background;
paths = (
{
closed = 1;
nodes = (
"480 194 LINE",
"437 138 OFFCURVE",
"388 120 OFFCURVE",
"338 120 CURVE",
"245 121 OFFCURVE",
"184 192 OFFCURVE",
"204 334 CURVE",
"225 474 OFFCURVE",
"308 550 OFFCURVE",
"401 550 CURVE SMOOTH",
"455 550 OFFCURVE",
"501 532 OFFCURVE",
"525 476 CURVE",
"671 525 LINE",
"633 641 OFFCURVE",
"521 680 OFFCURVE",
"417 680 CURVE SMOOTH",
"223 680 OFFCURVE",
"72 563 OFFCURVE",
"37 334 CURVE SMOOTH",
"4 111 OFFCURVE",
"128 -5 OFFCURVE",
"302 -12 CURVE SMOOTH",
"448 -18 OFFCURVE",
"552 41 OFFCURVE",
"616 141 CURVE"
);
},
{
closed = 1;
nodes = (
"314 1 LINE",
"278 26 LINE",
"209 -57 LINE SMOOTH",
"195 -74 OFFCURVE",
"210 -93 OFFCURVE",
"227 -88 CURVE SMOOTH",
"260 -78 OFFCURVE",
"292 -90 OFFCURVE",
"290 -111 CURVE SMOOTH",
"287 -147 OFFCURVE",
"221 -147 OFFCURVE",
"178 -128 CURVE",
"152 -178 LINE",
"194 -199 OFFCURVE",
"370 -219 OFFCURVE",
"381 -112 CURVE SMOOTH",
"386 -59 OFFCURVE",
"333 -36 OFFCURVE",
"274 -47 CURVE"
);
}
);
width = 686;
},
{
components = (
{
alignment = -1;
name = C;
transform = "{1, 0, 0, 1, 1, 0}";
},
{
alignment = -1;
name = cedilla;
transform = "{1, 0, 0, 1, 58, 0}";
}
);
layerId = "30D4BC2E-225F-4273-AE59-0FC741A5E71E";
width = 687;
}
);
leftKerningGroup = C;
leftMetricsKey = C;
rightKerningGroup = C_2;
rightMetricsKey = C;
unicode = 00C7;
},
{
color = (153,255,154,255);
glyphname = ccedilla;
layers = (
{
associatedMasterId = "30D4BC2E-225F-4273-AE59-0FC741A5E71E";
layerId = "BC13058E-62D9-40F0-991C-91BFBBE3C538";
name = public.background;
paths = (
{
closed = 1;
nodes = (
"183 105 OFFCURVE",
"141 143 OFFCURVE",
"162 249 CURVE SMOOTH",
"183 355 OFFCURVE",
"245 392 OFFCURVE",
"299 392 CURVE SMOOTH",
"339 392 OFFCURVE",
"368 378 OFFCURVE",
"378 336 CURVE",
"511 382 LINE",
"475 479 OFFCURVE",
"402 510 OFFCURVE",
"316 510 CURVE SMOOTH",
"155 510 OFFCURVE",
"37 411 OFFCURVE",
"7 250 CURVE SMOOTH",
"-21 99 OFFCURVE",
"62 -12 OFFCURVE",
"223 -12 CURVE SMOOTH",
"308 -12 OFFCURVE",
"400 17 OFFCURVE",
"464 107 CURVE",
"341 154 LINE",
"310 115 OFFCURVE",
"279 105 OFFCURVE",
"236 105 CURVE SMOOTH"
);
},
{
closed = 1;
nodes = (
"235 2 LINE",
"199 27 LINE",
"130 -56 LINE SMOOTH",
"116 -73 OFFCURVE",
"131 -92 OFFCURVE",
"148 -87 CURVE SMOOTH",
"181 -77 OFFCURVE",
"213 -89 OFFCURVE",
"211 -110 CURVE SMOOTH",
"208 -146 OFFCURVE",
"142 -146 OFFCURVE",
"99 -127 CURVE",
"73 -177 LINE",
"115 -198 OFFCURVE",
"291 -218 OFFCURVE",
"302 -111 CURVE SMOOTH",
"307 -58 OFFCURVE",
"254 -35 OFFCURVE",
"195 -46 CURVE"
);
}
);
width = 86;
},
{
components = (
{
alignment = -1;
name = c;
transform = "{1, 0, 0, 1, 1, 0}";
},
{
alignment = -1;
name = cedilla;
transform = "{1, 0, 0, 1, 109, 1}";
}
);
layerId = "30D4BC2E-225F-4273-AE59-0FC741A5E71E";
width = 532;
}
);
leftKerningGroup = c;
leftMetricsKey = c;
rightKerningGroup = c_2;
rightMetricsKey = c;
unicode = 00E7;
},
{
color = (153,255,154,255);
glyphname = Eth;
layers = (
{
layerId = "30D4BC2E-225F-4273-AE59-0FC741A5E71E";
paths = (
{
closed = 1;
nodes = (
"166 668 LINE",
"24 0 LINE",
"247 0 LINE SMOOTH",
"444 0 OFFCURVE",
"655 74 OFFCURVE",
"698 312 CURVE SMOOTH",
"737 527 OFFCURVE",
"630 668 OFFCURVE",
"360 668 CURVE SMOOTH"
);
},
{
closed = 1;
nodes = (
"358 537 LINE SMOOTH",
"518 537 OFFCURVE",
"549 476 OFFCURVE",
"535 355 CURVE SMOOTH",
"520 226 OFFCURVE",
"439 133 OFFCURVE",
"277 133 CURVE SMOOTH",
"214 133 LINE",
"300 537 LINE"
);
},
{
closed = 1;
nodes = (
"6 275 LINE",
"359 275 LINE",
"389 412 LINE",
"36 412 LINE"
);
}
);
width = 736;
}
);
leftMetricsKey = t;
rightKerningGroup = D;
rightMetricsKey = D;
unicode = 00D0;
},
{
color = (153,254,255,255);
glyphname = one.tf;
layers = (
{
layerId = "30D4BC2E-225F-4273-AE59-0FC741A5E71E";
paths = (
{
closed = 1;
nodes = (
"360 124 LINE",
"475 667 LINE",
"357 667 LINE",
"306 586 OFFCURVE",
"254 570 OFFCURVE",
"147 570 CURVE",
"120 447 LINE",
"274 447 LINE",
"207 124 LINE",
"51 124 LINE",
"25 0 LINE",
"474 0 LINE",
"501 124 LINE"
);
}
);
width = 640;
}
);
},
{
color = (153,254,255,255);
glyphname = ogonek.case;
layers = (
{
layerId = "30D4BC2E-225F-4273-AE59-0FC741A5E71E";
paths = (
{
closed = 1;
nodes = (
"69 -92 OFFCURVE",
"92 -98 OFFCURVE",
"114 -98 CURVE SMOOTH",
"134 -98 OFFCURVE",
"157 -91 OFFCURVE",
"165 -89 CURVE",
"149 -164 LINE",
"133 -169 OFFCURVE",
"93 -174 OFFCURVE",
"68 -174 CURVE SMOOTH",
"-40 -174 OFFCURVE",
"-63 -123 OFFCURVE",
"-55 -85 CURVE SMOOTH",
"-45 -39 OFFCURVE",
"1 -12 OFFCURVE",
"43 0 CURVE",
"184 0 LINE",
"144 -5 OFFCURVE",
"82 -34 OFFCURVE",
"75 -68 CURVE"
);
}
);
width = 263;
}
);
},
{
color = (153,255,154,255);
glyphname = Aogonek;
layers = (
{
components = (
{
alignment = -1;
name = A;
}
);
layerId = "30D4BC2E-225F-4273-AE59-0FC741A5E71E";
paths = (
{
closed = 1;
nodes = (
"521 -34 OFFCURVE",
"583 -5 OFFCURVE",
"623 0 CURVE",
"482 0 LINE",
"440 -12 OFFCURVE",
"394 -39 OFFCURVE",
"384 -85 CURVE SMOOTH",
"376 -123 OFFCURVE",
"399 -174 OFFCURVE",
"507 -174 CURVE SMOOTH",
"532 -174 OFFCURVE",
"572 -169 OFFCURVE",
"588 -164 CURVE",
"604 -89 LINE",
"596 -91 OFFCURVE",
"573 -98 OFFCURVE",
"553 -98 CURVE SMOOTH",
"531 -98 OFFCURVE",
"508 -92 OFFCURVE",
"514 -68 CURVE SMOOTH"
);
}
);
width = 698;
}
);
leftKerningGroup = A1;
leftMetricsKey = A;
rightKerningGroup = A_2;
rightMetricsKey = A;
unicode = 0104;
},
{
color = (153,255,154,255);
glyphname = eogonek;
layers = (
{
components = (
{
alignment = -1;
name = e;
transform = "{1, 0, 0, 1, 1, 0}";
}
);
layerId = "30D4BC2E-225F-4273-AE59-0FC741A5E71E";
paths = (
{
closed = 1;
nodes = (
"230 -45 OFFCURVE",
"277 -16 OFFCURVE",
"330 2 CURVE",
"193 0 LINE",
"145 -10 OFFCURVE",
"101 -49 OFFCURVE",
"96 -84 CURVE SMOOTH",
"90 -123 OFFCURVE",
"111 -173 OFFCURVE",
"220 -173 CURVE SMOOTH",
"245 -173 OFFCURVE",
"284 -168 OFFCURVE",
"301 -164 CURVE",
"317 -88 LINE",
"308 -91 OFFCURVE",
"285 -97 OFFCURVE",
"266 -97 CURVE SMOOTH",
"244 -97 OFFCURVE",
"219 -93 OFFCURVE",
"224 -69 CURVE SMOOTH"
);
}
);
width = 568;
}
);
leftKerningGroup = c;
leftMetricsKey = e;
rightKerningGroup = e;
rightMetricsKey = e;
unicode = 0119;
},
{
color = (153,254,255,255);
glyphname = commaaccent;
layers = (
{
layerId = "30D4BC2E-225F-4273-AE59-0FC741A5E71E";
paths = (
{
closed = 1;
nodes = (
"-86 -206 LINE",
"-23 -206 OFFCURVE",
"20 -187 OFFCURVE",
"25 -145 CURVE SMOOTH",
"28 -117 OFFCURVE",
"11 -92 OFFCURVE",
"-20 -85 CURVE",
"81 -45 LINE",
"130 -66 OFFCURVE",
"151 -102 OFFCURVE",
"144 -143 CURVE SMOOTH",
"133 -209 OFFCURVE",
"63 -256 OFFCURVE",
"-43 -251 CURVE"
);
}
);
width = 280;
}
);
unicode = 0326;
},
{
color = (153,254,255,255);
glyphname = Hbar;
layers = (
{
components = (
{
alignment = -1;
name = H;
transform = "{1, 0, 0, 1, 26, 0}";
}
);
guideLines = (
{
position = "{0, 224}";
showMeasurement = 1;
}
);
layerId = "30D4BC2E-225F-4273-AE59-0FC741A5E71E";
paths = (
{
closed = 1;
nodes = (
"760 496 LINE",
"781 594 LINE",
"71 594 LINE",
"50 496 LINE"
);
}
);
width = 740;
}
);
leftMetricsKey = T;
unicode = 0126;
},
{
color = (153,254,255,255);
glyphname = hbar;
layers = (
{
guideLines = (
{
position = "{0, 698}";
}
);
layerId = "30D4BC2E-225F-4273-AE59-0FC741A5E71E";
paths = (
{
closed = 1;
nodes = (
"391 555 LINE",
"408 633 LINE",
"39 633 LINE",
"22 555 LINE"
);
},
{
closed = 1;
nodes = (
"329 510 OFFCURVE",
"271 470 OFFCURVE",
"243 432 CURVE",
"299 698 LINE",
"148 698 LINE",
"0 0 LINE",
"156 0 LINE",
"210 254 LINE",
"228 345 OFFCURVE",
"270 392 OFFCURVE",
"332 392 CURVE SMOOTH",
"384 392 OFFCURVE",
"399 355 OFFCURVE",
"379 263 CURVE SMOOTH",
"323 0 LINE",
"479 0 LINE",
"539 281 LINE SMOOTH",
"574 445 OFFCURVE",
"514 510 OFFCURVE",
"417 510 CURVE SMOOTH"
);
}
);
width = 601;
}
);
rightMetricsKey = h;
unicode = 0127;
},
{
color = (153,254,255,255);
glyphname = caron.salt;
layers = (
{
layerId = "30D4BC2E-225F-4273-AE59-0FC741A5E71E";
paths = (
{
closed = 1;
nodes = (
"75 496 LINE",
"128 650 LINE SMOOTH",
"137 676 OFFCURVE",
"161 688 OFFCURVE",
"182 688 CURVE SMOOTH",
"218 688 OFFCURVE",
"236 656 OFFCURVE",
"236 631 CURVE SMOOTH",
"236 621 OFFCURVE",
"234 612 OFFCURVE",
"230 606 CURVE SMOOTH",
"158 496 LINE"
);
}
);
width = 205;
}
);
},
{
color = (153,255,154,255);
glyphname = dcroat;
layers = (
{
guideLines = (
{
position = "{0, 698}";
}
);
layerId = "30D4BC2E-225F-4273-AE59-0FC741A5E71E";
paths = (
{
closed = 1;
nodes = (
"656 555 LINE",
"673 633 LINE",
"304 633 LINE",
"287 555 LINE"
);
},
{
closed = 1;
nodes = (
"465 698 LINE",
"406 421 LINE",
"385 476 OFFCURVE",
"331 510 OFFCURVE",
"267 510 CURVE SMOOTH",
"135 510 OFFCURVE",
"36 413 OFFCURVE",
"9 255 CURVE SMOOTH",
"-19 92 OFFCURVE",
"59 -13 OFFCURVE",
"187 -13 CURVE SMOOTH",
"241 -13 OFFCURVE",
"293 9 OFFCURVE",
"335 63 CURVE",
"340 -1 LINE",
"489 -1 LINE",
"490 72 OFFCURVE",
"503 143 OFFCURVE",
"513 193 CURVE SMOOTH",
"536 311 OFFCURVE",
"620 698 OFFCURVE",
"620 698 CURVE"
);
},
{
closed = 1;
nodes = (
"363 158 OFFCURVE",
"308 105 OFFCURVE",
"248 105 CURVE SMOOTH",
"169 105 OFFCURVE",
"147 182 OFFCURVE",
"163 265 CURVE SMOOTH",
"180 353 OFFCURVE",
"229 392 OFFCURVE",
"290 392 CURVE SMOOTH",
"335 392 OFFCURVE",
"390 358 OFFCURVE",
"377 261 CURVE SMOOTH"
);
}
);
width = 589;
}
);
leftKerningGroup = c;
leftMetricsKey = d;
rightKerningGroup = f;
unicode = 0111;
},
{
glyphname = dieresis;
layers = (
{
layerId = "30D4BC2E-225F-4273-AE59-0FC741A5E71E";
paths = (
{
closed = 1;
nodes = (
"160 719 OFFCURVE",
"128 687 OFFCURVE",
"128 648 CURVE SMOOTH",
"128 609 OFFCURVE",
"160 578 OFFCURVE",
"199 578 CURVE SMOOTH",
"238 578 OFFCURVE",
"269 609 OFFCURVE",
"269 648 CURVE SMOOTH",
"269 687 OFFCURVE",
"238 719 OFFCURVE",
"199 719 CURVE SMOOTH"
);
},
{
closed = 1;
nodes = (
"354 719 OFFCURVE",
"322 687 OFFCURVE",
"322 648 CURVE SMOOTH",
"322 609 OFFCURVE",
"354 578 OFFCURVE",
"393 578 CURVE SMOOTH",
"431 578 OFFCURVE",
"462 609 OFFCURVE",
"462 648 CURVE SMOOTH",
"462 687 OFFCURVE",
"431 719 OFFCURVE",
"393 719 CURVE SMOOTH"
);
}
);
width = 455;
}
);
unicode = 00A8;
},
{
color = (255,153,254,255);
glyphname = u;
layers = (
{
layerId = "30D4BC2E-225F-4273-AE59-0FC741A5E71E";
paths = (
{
closed = 1;
nodes = (
"406 496 LINE",
"350 234 LINE SMOOTH",
"330 143 OFFCURVE",
"283 106 OFFCURVE",
"231 106 CURVE SMOOTH",
"162 106 OFFCURVE",
"179 199 OFFCURVE",
"186 235 CURVE SMOOTH",
"241 496 LINE",
"86 496 LINE",
"27 220 LINE SMOOTH",
"4 114 OFFCURVE",
"9 -12 OFFCURVE",
"159 -12 CURVE SMOOTH",
"234 -12 OFFCURVE",
"288 19 OFFCURVE",
"316 64 CURVE",
"321 0 LINE",
"456 0 LINE",
"561 496 LINE"
);
}
);
width = 578;
}
);
leftKerningGroup = u;
rightKerningGroup = u1;
unicode = 0075;
},
{
color = (255,153,254,255);
glyphname = uogonek;
layers = (
{
components = (
{
alignment = -1;
name = u;
}
);
layerId = "30D4BC2E-225F-4273-AE59-0FC741A5E71E";
paths = (
{
closed = 1;
nodes = (
"356 -45 OFFCURVE",
"405 -23 OFFCURVE",
"456 0 CURVE",
"328 5 LINE",
"278 -5 OFFCURVE",
"230 -41 OFFCURVE",
"223 -84 CURVE SMOOTH",
"218 -119 OFFCURVE",
"237 -173 OFFCURVE",
"346 -173 CURVE SMOOTH",
"371 -173 OFFCURVE",
"410 -168 OFFCURVE",
"427 -164 CURVE",
"443 -88 LINE",
"434 -91 OFFCURVE",
"411 -97 OFFCURVE",
"392 -97 CURVE SMOOTH",
"370 -97 OFFCURVE",
"345 -93 OFFCURVE",
"350 -69 CURVE SMOOTH"
);
}
);
width = 578;
}
);
leftKerningGroup = u;
leftMetricsKey = u;
rightMetricsKey = u;
unicode = 0173;
},
